<svg xmlns="http://www.w3.org/2000/svg" width="64" height="64" viewBox="0 0 1024 1024"><g class="nc-icon-wrapper"><path d="M975.24 536.38h48.76v48.76h-48.76z m0-48.76h48.76v48.76h-48.76z m-48.77 97.52h48.76v48.76h-48.76z"></path><path d="M926.48 536.38h48.76v48.76h-48.76z m0-48.76h48.76v48.76h-48.76z" fill="#FE892D"></path><path d="M926.48 438.86h48.76v48.76h-48.76z m0-48.76h48.76v48.76h-48.76z m0-48.77h48.76v48.77h-48.76z m0-48.76h48.76v48.76h-48.76z m0-48.76h48.76v48.76h-48.76z m0-48.76h48.76v48.76h-48.76z m0-48.76h48.76v48.76h-48.76z m-48.76 633.9h48.76v48.76h-48.76z m0-48.76h48.76v48.76h-48.76z m0-48.77h48.76v48.77h-48.76z m0-48.76h48.76v48.76h-48.76z m0-48.76h48.76v48.76h-48.76z"></path><path d="M877.71 536.38h48.77v48.76h-48.76z" fill="#FE892D"></path><path d="M877.71 487.62h48.77v48.76h-48.76z" fill="#DD0030"></path><path d="M877.71 438.86h48.77v48.76h-48.76z m0-48.76h48.77v48.76h-48.76z m0-48.77h48.77v48.77h-48.76z m0-48.76h48.77v48.76h-48.76z" fill="#FE892D"></path><path d="M877.71 243.81h48.77v48.76h-48.76z" fill="#FFF"></path><path d="M877.71 195.05h48.77v48.76h-48.76z m0-48.76h48.77v48.76h-48.76z" fill="#FE892D"></path><path d="M877.71 97.53h48.77v48.76h-48.76z m-48.76 731.42h48.76v48.76h-48.76z m0-48.76h48.76v48.76h-48.76z"></path><path d="M828.95 731.43h48.76v48.76h-48.76z m0-48.77h48.76v48.77h-48.76z m0-48.76h48.76v48.76h-48.76z m0-48.76h48.76v48.76h-48.76z" fill="#7A3B0F"></path><path d="M828.95 536.38h48.76v48.76h-48.76z m0-48.76h48.76v48.76h-48.76z m0-48.76h48.76v48.76h-48.76z" fill="#FE892D"></path><path d="M828.95 390.1h48.76v48.76h-48.76z" fill="#FFF"></path><path d="M828.95 341.33h48.76v48.77h-48.76z m0-48.76h48.76v48.76h-48.76z m0-48.76h48.76v48.76h-48.76z m0-48.76h48.76v48.76h-48.76z" fill="#7A3B0F"></path><path d="M828.95 146.29h48.76v48.76h-48.76z" fill="#FE892D"></path><path d="M828.95 97.53h48.76v48.76h-48.76z m-48.76 780.19h48.76v48.76h-48.76z"></path><path d="M780.19 828.95h48.76v48.76h-48.76z m0-48.76h48.76v48.76h-48.76z m0-48.76h48.76v48.76h-48.76z" fill="#7A3B0F"></path><path d="M780.19 682.66h48.76v48.77h-48.76z" fill="#311809"></path><path d="M780.19 633.9h48.76v48.76h-48.76z" fill="#FFF"></path><path d="M780.19 585.14h48.76v48.76h-48.76z" fill="#311809"></path><path d="M780.19 536.38h48.76v48.76h-48.76z" fill="#FC9956"></path><path d="M780.19 487.62h48.76v48.76h-48.76z" fill="#FE892D"></path><path d="M780.19 438.86h48.76v48.76h-48.76z m0-48.76h48.76v48.76h-48.76z" fill="#7A3B0F"></path><path d="M780.19 341.33h48.76v48.77h-48.76z" fill="#FE892D"></path><path d="M780.19 292.57h48.76v48.76h-48.76z" fill="#FFF"></path><path d="M780.19 243.81h48.76v48.76h-48.76z m0-48.76h48.76v48.76h-48.76z" fill="#7A3B0F"></path><path d="M780.19 146.29h48.76v48.76h-48.76z" fill="#FE892D"></path><path d="M780.19 97.53h48.76v48.76h-48.76z m-48.76 780.19h48.76v48.76h-48.76z"></path><path d="M731.43 828.95h48.76v48.76h-48.76z m0-48.76h48.76v48.76h-48.76z" fill="#7A3B0F"></path><path d="M731.43 731.43h48.76v48.76h-48.76z" fill="#311809"></path><path d="M731.43 682.66h48.76v48.77h-48.76z" fill="#7A3B0F"></path><path d="M731.43 633.9h48.76v48.76h-48.76z m0-48.76h48.76v48.76h-48.76z" fill="#311809"></path><path d="M731.43 536.38h48.76v48.76h-48.76z" fill="#FC9956"></path><path d="M731.43 487.62h48.76v48.76h-48.76z m0-48.76h48.76v48.76h-48.76z m0-48.76h48.76v48.76h-48.76z m0-48.77h48.76v48.77h-48.76z" fill="#FE892D"></path><path d="M731.43 292.57h48.76v48.76h-48.76z" fill="#FFF"></path><path d="M731.43 243.81h48.76v48.76h-48.76z m0-48.76h48.76v48.76h-48.76z" fill="#FE892D"></path><path d="M731.43 146.29h48.76v48.76h-48.76z m-48.77 682.66h48.77v48.76h-48.77z"></path><path d="M682.66 780.19h48.77v48.76h-48.77z m0-48.76h48.77v48.76h-48.77z" fill="#7A3B0F"></path><path d="M682.66 682.66h48.77v48.77h-48.77z m0-48.76h48.77v48.76h-48.77z m0-48.76h48.77v48.76h-48.77z" fill="#311809"></path><path d="M682.66 536.38h48.77v48.76h-48.77z" fill="#FC9956"></path><path d="M682.66 487.62h48.77v48.76h-48.77z" fill="#FE892D"></path><path d="M682.66 438.86h48.77v48.76h-48.77z m0-48.76h48.77v48.76h-48.77z m0-48.77h48.77v48.77h-48.77z m0-48.76h48.77v48.76h-48.77z m0-48.76h48.77v48.76h-48.77z m0-48.76h48.77v48.76h-48.77z" fill="#7A3B0F"></path><path d="M682.66 146.29h48.77v48.76h-48.77z m-48.76 682.66h48.76v48.76h-48.76z"></path><path d="M633.9 780.19h48.76v48.76h-48.76z" fill="#7A3B0F"></path><path d="M633.9 731.43h48.76v48.76h-48.76z" fill="#311809"></path><path d="M633.9 682.66h48.76v48.77h-48.76z" fill="#7A3B0F"></path><path d="M633.9 633.9h48.76v48.76h-48.76z m0-48.76h48.76v48.76h-48.76z" fill="#311809"></path><path d="M633.9 536.38h48.76v48.76h-48.76z" fill="#FC9956"></path><path d="M633.9 487.62h48.76v48.76h-48.76z" fill="#FE892D"></path><path d="M633.9 438.86h48.76v48.76h-48.76z m0-48.76h48.76v48.76h-48.76z m0-48.77h48.76v48.77h-48.76z m0-48.76h48.76v48.76h-48.76z m0-48.76h48.76v48.76h-48.76z m0-48.76h48.76v48.76h-48.76z" fill="#7A3B0F"></path><path d="M633.9 146.29h48.76v48.76h-48.76z m-48.76 682.66h48.76v48.76h-48.76z"></path><path d="M585.14 780.19h48.76v48.76h-48.76z m0-48.76h48.76v48.76h-48.76z m0-48.77h48.76v48.77h-48.76z" fill="#7A3B0F"></path><path d="M585.14 633.9h48.76v48.76h-48.76z m0-48.76h48.76v48.76h-48.76z m0-48.76h48.76v48.76h-48.76z" fill="#311809"></path><path d="M585.14 487.62h48.76v48.76h-48.76z m0-48.76h48.76v48.76h-48.76z m0-48.76h48.76v48.76h-48.76z m0-48.77h48.76v48.77h-48.76z" fill="#FE892D"></path><path d="M585.14 292.57h48.76v48.76h-48.76z m0-48.76h48.76v48.76h-48.76z m0-48.76h48.76v48.76h-48.76z" fill="#7A3B0F"></path><path d="M585.14 146.29h48.76v48.76h-48.76z m-48.76 682.66h48.76v48.76h-48.76z"></path><path d="M536.38 780.19h48.76v48.76h-48.76z" fill="#7A3B0F"></path><path d="M536.38 731.43h48.76v48.76h-48.76z m0-48.77h48.76v48.77h-48.76z m0-48.76h48.76v48.76h-48.76z m0-48.76h48.76v48.76h-48.76z" fill="#311809"></path><path d="M536.38 536.38h48.76v48.76h-48.76z m0-48.76h48.76v48.76h-48.76z" fill="#FE892D"></path><path d="M536.38 438.86h48.76v48.76h-48.76z"></path><path d="M536.38 390.1h48.76v48.76h-48.76z" fill="#FE892D"></path><path d="M536.38 341.33h48.76v48.77h-48.76z" fill="#FFF"></path><path d="M536.38 292.57h48.76v48.76h-48.76z m0-48.76h48.76v48.76h-48.76z m0-48.76h48.76v48.76h-48.76z" fill="#FE892D"></path><path d="M536.38 146.29h48.76v48.76h-48.76z m-48.76 682.66h48.76v48.76h-48.76z"></path><path d="M487.62 780.19h48.76v48.76h-48.76z" fill="#7A3B0F"></path><path d="M487.62 731.43h48.76v48.76h-48.76z m0-48.77h48.76v48.77h-48.76z m0-48.76h48.76v48.76h-48.76z m0-48.76h48.76v48.76h-48.76z" fill="#311809"></path><path d="M487.62 536.38h48.76v48.76h-48.76z" fill="#FE892D"></path><path d="M487.62 487.62h48.76v48.76h-48.76z m0-48.76h48.76v48.76h-48.76z"></path><path d="M487.62 390.1h48.76v48.76h-48.76z" fill="#FE892D"></path><path d="M487.62 341.33h48.76v48.77h-48.76z" fill="#DD0030"></path><path d="M487.62 292.57h48.76v48.76h-48.76z" fill="#FE892D"></path><path d="M487.62 243.81h48.76v48.76h-48.76z" fill="#DD0030"></path><path d="M487.62 195.05h48.76v48.76h-48.76z" fill="#FE892D"></path><path d="M487.62 146.29h48.76v48.76h-48.76z m-48.76 682.66h48.76v48.76h-48.76z"></path><path d="M438.86 780.19h48.76v48.76h-48.76z" fill="#7A3B0F"></path><path d="M438.86 731.43h48.76v48.76h-48.76z m0-48.77h48.76v48.77h-48.76z m0-48.76h48.76v48.76h-48.76z m0-48.76h48.76v48.76h-48.76z" fill="#311809"></path><path d="M438.86 536.38h48.76v48.76h-48.76z m0-48.76h48.76v48.76h-48.76z" fill="#FE892D"></path><path d="M438.86 438.86h48.76v48.76h-48.76z"></path><path d="M438.86 390.1h48.76v48.76h-48.76z m0-48.77h48.76v48.77h-48.76z" fill="#FE892D"></path><path d="M438.86 292.57h48.76v48.76h-48.76z" fill="#FFF"></path><path d="M438.86 243.81h48.76v48.76h-48.76z m0-48.76h48.76v48.76h-48.76z" fill="#FE892D"></path><path d="M438.86 146.29h48.76v48.76h-48.76z m-48.76 682.66h48.76v48.76h-48.76z"></path><path d="M390.1 780.19h48.76v48.76h-48.76z m0-48.76h48.76v48.76h-48.76z m0-48.77h48.76v48.77h-48.76z" fill="#7A3B0F"></path><path d="M390.1 633.9h48.76v48.76h-48.76z m0-48.76h48.76v48.76h-48.76z m0-48.76h48.76v48.76h-48.76z" fill="#311809"></path><path d="M390.1 487.62h48.76v48.76h-48.76z m0-48.76h48.76v48.76h-48.76z m0-48.76h48.76v48.76h-48.76z m0-48.77h48.76v48.77h-48.76z" fill="#FE892D"></path><path d="M390.1 292.57h48.76v48.76h-48.76z m0-48.76h48.76v48.76h-48.76z m0-48.76h48.76v48.76h-48.76z" fill="#7A3B0F"></path><path d="M390.1 146.29h48.76v48.76h-48.76z m-48.77 682.66h48.77v48.76h-48.77z"></path><path d="M341.33 780.19h48.77v48.76h-48.77z" fill="#7A3B0F"></path><path d="M341.33 731.43h48.77v48.76h-48.77z" fill="#311809"></path><path d="M341.33 682.66h48.77v48.77h-48.77z" fill="#7A3B0F"></path><path d="M341.33 633.9h48.77v48.76h-48.77z" fill="#FFF"></path><path d="M341.33 585.14h48.77v48.76h-48.77z" fill="#311809"></path><path d="M341.33 536.38h48.77v48.76h-48.77z" fill="#FC9956"></path><path d="M341.33 487.62h48.77v48.76h-48.77z" fill="#FE892D"></path><path d="M341.33 438.86h48.77v48.76h-48.77z m0-48.76h48.77v48.76h-48.77z m0-48.77h48.77v48.77h-48.77z m0-48.76h48.77v48.76h-48.77z m0-48.76h48.77v48.76h-48.77z m0-48.76h48.77v48.76h-48.77z" fill="#7A3B0F"></path><path d="M341.33 146.29h48.77v48.76h-48.77z m-48.76 682.66h48.76v48.76h-48.76z"></path><path d="M292.57 780.19h48.76v48.76h-48.76z m0-48.76h48.76v48.76h-48.76z" fill="#7A3B0F"></path><path d="M292.57 682.66h48.76v48.77h-48.76z" fill="#311809"></path><path d="M292.57 633.9h48.76v48.76h-48.76z m0-48.76h48.76v48.76h-48.76z" fill="#FFF"></path><path d="M292.57 536.38h48.76v48.76h-48.76z" fill="#FC9956"></path><path d="M292.57 487.62h48.76v48.76h-48.76z" fill="#FE892D"></path><path d="M292.57 438.86h48.76v48.76h-48.76z m0-48.76h48.76v48.76h-48.76z m0-48.77h48.76v48.77h-48.76z m0-48.76h48.76v48.76h-48.76z m0-48.76h48.76v48.76h-48.76z m0-48.76h48.76v48.76h-48.76z" fill="#7A3B0F"></path><path d="M292.57 146.29h48.76v48.76h-48.76z m-48.76 731.42h48.76v48.77h-48.76z"></path><path d="M243.81 828.95h48.76v48.76h-48.76z m0-48.76h48.76v48.76h-48.76z" fill="#7A3B0F"></path><path d="M243.81 731.43h48.76v48.76h-48.76z" fill="#311809"></path><path d="M243.81 682.66h48.76v48.77h-48.76z" fill="#7A3B0F"></path><path d="M243.81 633.9h48.76v48.76h-48.76z m0-48.76h48.76v48.76h-48.76z" fill="#311809"></path><path d="M243.81 536.38h48.76v48.76h-48.76z" fill="#FC9956"></path><path d="M243.81 487.62h48.76v48.76h-48.76z m0-48.76h48.76v48.76h-48.76z m0-48.76h48.76v48.76h-48.76z m0-48.77h48.76v48.77h-48.76z" fill="#FE892D"></path><path d="M243.81 292.57h48.76v48.76h-48.76z" fill="#FFF"></path><path d="M243.81 243.81h48.76v48.76h-48.76z m0-48.76h48.76v48.76h-48.76z" fill="#FE892D"></path><path d="M243.81 146.29h48.76v48.76h-48.76z m-48.76 731.42h48.76v48.77h-48.76z"></path><path d="M195.05 828.95h48.76v48.76h-48.76z m0-48.76h48.76v48.76h-48.76z m0-48.76h48.76v48.76h-48.76z" fill="#7A3B0F"></path><path d="M195.05 682.66h48.76v48.77h-48.76z m0-48.76h48.76v48.76h-48.76z m0-48.76h48.76v48.76h-48.76z" fill="#311809"></path><path d="M195.05 536.38h48.76v48.76h-48.76z" fill="#FC9956"></path><path d="M195.05 487.62h48.76v48.76h-48.76z" fill="#FE892D"></path><path d="M195.05 438.86h48.76v48.76h-48.76z" fill="#FFF"></path><path d="M195.05 390.1h48.76v48.76h-48.76z" fill="#7A3B0F"></path><path d="M195.05 341.33h48.76v48.77h-48.76z" fill="#FE892D"></path><path d="M195.05 292.57h48.76v48.76h-48.76z" fill="#FFF"></path><path d="M195.05 243.81h48.76v48.76h-48.76z m0-48.76h48.76v48.76h-48.76z" fill="#7A3B0F"></path><path d="M195.05 146.29h48.76v48.76h-48.76z" fill="#FE892D"></path><path d="M195.05 97.53h48.76v48.76h-48.76z m-48.76 731.42h48.76v48.76h-48.76z m0-48.76h48.76v48.76h-48.76z"></path><path d="M146.29 731.43h48.76v48.76h-48.76z m0-48.77h48.76v48.77h-48.76z m0-48.76h48.76v48.76h-48.76z m0-48.76h48.76v48.76h-48.76z" fill="#7A3B0F"></path><path d="M146.29 536.38h48.76v48.76h-48.76z m0-48.76h48.76v48.76h-48.76z m0-48.76h48.76v48.76h-48.76z" fill="#FE892D"></path><path d="M146.29 390.1h48.76v48.76h-48.76z m0-48.77h48.76v48.77h-48.76z m0-48.76h48.76v48.76h-48.76z m0-48.76h48.76v48.76h-48.76z m0-48.76h48.76v48.76h-48.76z" fill="#7A3B0F"></path><path d="M146.29 146.29h48.76v48.76h-48.76z" fill="#FE892D"></path><path d="M146.29 97.53h48.76v48.76h-48.76z m-48.76 682.66h48.76v48.76h-48.76z m0-48.76h48.76v48.76h-48.76z m0-48.77h48.76v48.77h-48.76z m0-48.76h48.76v48.76h-48.76z m0-48.76h48.76v48.76h-48.76z"></path><path d="M97.53 536.38h48.76v48.76h-48.76z" fill="#FE892D"></path><path d="M97.53 487.62h48.76v48.76h-48.76z" fill="#DD0030"></path><path d="M97.53 438.86h48.76v48.76h-48.76z m0-48.76h48.76v48.76h-48.76z m0-48.77h48.76v48.77h-48.76z m0-48.76h48.76v48.76h-48.76z" fill="#FE892D"></path><path d="M97.53 243.81h48.76v48.76h-48.76z" fill="#FFF"></path><path d="M97.53 195.05h48.76v48.76h-48.76z m0-48.76h48.76v48.76h-48.76z" fill="#FE892D"></path><path d="M97.53 97.53h48.76v48.76h-48.76z m-48.77 487.61h48.77v48.76h-48.77z"></path><path d="M48.76 536.38h48.77v48.76h-48.77z m0-48.76h48.77v48.76h-48.77z" fill="#FE892D"></path><path d="M48.76 438.86h48.77v48.76h-48.77z m0-48.76h48.77v48.76h-48.77z m0-48.77h48.77v48.77h-48.77z m0-48.76h48.77v48.76h-48.77z m0-48.76h48.77v48.76h-48.77z m0-48.76h48.77v48.76h-48.77z m0-48.76h48.77v48.76h-48.77z m-48.76 390.09h48.76v48.76h-48.76z m0-48.76h48.76v48.76h-48.76z"></path></g></svg>