<svg xmlns="http://www.w3.org/2000/svg" width="64" height="64" viewBox="0 0 1024 1024"><g class="nc-icon-wrapper"><path d="M146.29 926.48h48.76v48.76h-48.76z m731.42-48.76h48.77v48.76h-48.76z" fill="#09111F"></path><path d="M828.95 877.71h48.76v48.77h-48.76z m-682.66 0h48.76v48.77h-48.76z" fill="#596988"></path><path d="M97.53 877.71h48.76v48.77h-48.76z m-48.77-48.76h48.77v48.76h-48.77z m877.72 0h48.76v48.76h-48.76z m-97.53 97.53h48.76v48.76h-48.76z m97.53-146.29h48.76v48.76h-48.76z m-877.72 0h48.76v48.76h-48.76z" fill="#09111F"></path><path d="M97.53 828.95h48.76v48.76h-48.76z m780.19 0h48.76v48.76h-48.76z" fill="#596988"></path><path d="M926.48 585.14h48.76v48.76h-48.76z m48.76-97.52h48.76v48.76h-48.76z m0 48.76h48.76v48.76h-48.76z m0-97.52h48.76v48.76h-48.76z m-48.76-48.76h48.76v48.76h-48.76z m-877.72 195.04h48.76v48.76h-48.76z m-48.76-97.52h48.76v48.76h-48.76z m0 48.76h48.76v48.76h-48.76z m0-97.52h48.76v48.76h-48.76z m48.76-48.76h48.77v48.76h-48.77z" fill="#09111F"></path><path d="M487.62 146.29h48.76v48.76h-48.76z m0-97.53h48.76v48.77h-48.76z" fill="#596988"></path><path d="M487.62 97.53h48.76v48.76h-48.76z m48.76-48.77h48.76v48.77h-48.76z m0 97.53h48.76v48.76h-48.76z" fill="#596988"></path><path d="M536.38 97.53h48.76v48.76h-48.76z m-97.52 48.76h48.76v48.76h-48.76z m0-97.53h48.76v48.77h-48.76z" fill="#596988"></path><path d="M438.86 97.53h48.76v48.76h-48.76z" fill="#596988"></path><path d="M390.1 585.14h48.76v48.76h-48.76z m0-146.28h48.76v48.76h-48.76z m0-48.76h48.76v48.76h-48.76z m0 146.28h48.76v48.76h-48.76z m0-48.76h48.76v48.76h-48.76z m243.8-48.76h48.76v48.76h-48.76z m0 48.76h48.76v48.76h-48.76z m0-97.52h48.76v48.76h-48.76z m-48.76 195.04h48.76v48.76h-48.76z m48.76-48.76h48.76v48.76h-48.76z m-195.04 48.76h48.76v48.76h-48.76z m97.52 0h48.76v48.76h-48.76z m-48.76-195.04h48.76v48.76h-48.76z m97.52 0h48.76v48.76h-48.76z m-48.76 0h48.76v48.76h-48.76z m-48.76 195.04h48.76v48.76h-48.76z m-48.76-195.04h48.76v48.76h-48.76z" fill="#586787"></path><path d="M585.14 438.86h48.76v48.76h-48.76z m0 48.76h48.76v48.76h-48.76z m0 48.76h48.76v48.76h-48.76z m-146.28-97.52h48.76v48.76h-48.76z m0 48.76h48.76v48.76h-48.76z m97.52 48.76h48.76v48.76h-48.76z m-48.76 0h48.76v48.76h-48.76z m48.76-97.52h48.76v48.76h-48.76z m0 48.76h48.76v48.76h-48.76z" fill="#2F3654"></path><path d="M438.86 536.38h48.76v48.76h-48.76z" fill="#FFF"></path><path d="M487.62 487.62h48.76v48.76h-48.76z m0-48.76h48.76v48.76h-48.76z" fill="#2F3654"></path><path d="M682.66 633.9h48.77v48.76h-48.77z m-292.56 0h48.76v48.76h-48.76z m292.56-243.8h48.77v48.76h-48.77z" fill="#B9C5D6"></path><path d="M633.9 585.14h48.76v48.76h-48.76z" fill="#586787"></path><path d="M585.14 633.9h48.76v48.76h-48.76z m97.52-48.76h48.77v48.76h-48.77z m-48.76 48.76h48.76v48.76h-48.76z m48.76-97.52h48.77v48.76h-48.77z" fill="#B9C5D6"></path><path d="M682.66 341.33h48.77v48.77h-48.77z" fill="#FFF"></path><path d="M633.9 341.33h48.76v48.77h-48.76z m48.76 146.29h48.77v48.76h-48.77z m0-48.76h48.77v48.76h-48.77z m-195.04 195.04h48.76v48.76h-48.76z m97.52-292.57h48.76v48.77h-48.76z m-48.76 292.57h48.76v48.76h-48.76z m-97.52 0h48.76v48.76h-48.76z m97.52-292.57h48.76v48.77h-48.76z m-48.76 0h48.76v48.77h-48.76z m-48.76 0h48.76v48.77h-48.76z m-48.76 0h48.76v48.77h-48.76z m-48.77 48.77h48.77v48.76h-48.77z m0 146.28h48.77v48.76h-48.77z m0 97.52h48.77v48.76h-48.77z m0-48.76h48.77v48.76h-48.77z m0-97.52h48.77v48.76h-48.77z m0-48.76h48.77v48.76h-48.77z m0-97.53h48.77v48.77h-48.77z m-48.76 48.77h48.76v48.76h-48.76z m0-48.77h48.76v48.77h-48.76z m0 195.05h48.76v48.76h-48.76z m0 97.52h48.76v48.76h-48.76z m0-48.76h48.76v48.76h-48.76z m0-97.52h48.76v48.76h-48.76z m0-48.76h48.76v48.76h-48.76z m97.53 243.8h48.76v48.77h-48.76z m243.8 0h48.76v48.77h-48.76z m-48.76 0h48.76v48.77h-48.76z m97.52 0h48.77v48.77h-48.77z m-243.8 0h48.76v48.77h-48.76z m97.52 0h48.76v48.77h-48.76z m-48.76 0h48.76v48.77h-48.76z m-146.29 0h48.77v48.77h-48.77z m390.1-48.76h48.76v48.76h-48.76z m0-48.76h48.76v48.76h-48.76z m0-97.52h48.76v48.76h-48.76z m0 48.76h48.76v48.76h-48.76z m0-97.52h48.76v48.76h-48.76z m0-48.77h48.76v48.77h-48.76z m0-48.76h48.76v48.76h-48.76z" fill="#B9C5D6"></path><path d="M633.9 292.57h48.76v48.76h-48.76z m48.76 0h48.77v48.76h-48.77z m-97.52 0h48.76v48.76h-48.76z m-48.76 0h48.76v48.76h-48.76z" fill="#FFF"></path><path d="M487.62 292.57h48.76v48.76h-48.76z m-48.76 0h48.76v48.76h-48.76z m-48.76 0h48.76v48.76h-48.76z m-48.77 0h48.77v48.76h-48.77z" fill="#B9C5D6"></path><path d="M731.43 292.57h48.76v48.76h-48.76z m-438.86 0h48.76v48.76h-48.76z m438.86 390.09h48.76v48.77h-48.76z m-438.86 0h48.76v48.77h-48.76z m0-438.85h48.76v48.76h-48.76z m585.14 292.57h48.77v48.76h-48.76z m0-48.76h48.77v48.76h-48.76z m0-48.76h48.77v48.76h-48.76z m-48.76 97.52h48.76v48.76h-48.76z m0-97.52h48.76v48.76h-48.76z m0-48.76h48.76v48.76h-48.76z m0 195.04h48.76v48.76h-48.76z m0-97.52h48.76v48.76h-48.76z m-48.76-146.29h48.76v48.77h-48.76z m0 292.57h48.76v48.76h-48.76z m0-195.04h48.76v48.76h-48.76z m0 48.76h48.76v48.76h-48.76z m0-97.52h48.76v48.76h-48.76z m0-97.53h48.76v48.76h-48.76z m0 243.81h48.76v48.76h-48.76z m0 146.28h48.76v48.77h-48.76z m0-97.52h48.76v48.76h-48.76z m0-341.33h48.76v48.76h-48.76z m-48.76 0h48.76v48.76h-48.76z m-48.77 0h48.77v48.76h-48.77z m-48.76 0h48.76v48.76h-48.76z m-97.52 0h48.76v48.76h-48.76z m-48.76 0h48.76v48.76h-48.76z m97.52 0h48.76v48.76h-48.76z m-146.28 0h48.76v48.76h-48.76z m-48.76 0h48.76v48.76h-48.76z m-48.77 0h48.77v48.76h-48.77z m536.38-48.76h48.77v48.76h-48.76z m-48.76 0h48.76v48.76h-48.76z m0 48.76h48.76v48.76h-48.76z m0-97.52h48.76v48.76h-48.76z m-48.76 48.76h48.76v48.76h-48.76z m0-48.76h48.76v48.76h-48.76z" fill="#596988"></path><path d="M780.19 97.53h48.76v48.76h-48.76z m-487.62 97.52h48.76v48.76h-48.76z m390.09 0h48.77v48.76h-48.77z m48.77-48.76h48.76v48.76h-48.76z m0 48.76h48.76v48.76h-48.76z m-97.53 0h48.76v48.76h-48.76z m-97.52 0h48.76v48.76h-48.76z m-48.76 0h48.76v48.76h-48.76z m97.52 0h48.76v48.76h-48.76z m-146.28 0h48.76v48.76h-48.76z m-48.76 0h48.76v48.76h-48.76z m-48.77 0h48.76v48.76h-48.76z m438.86 633.9h48.76v48.76h-48.76z m-48.76-48.76h48.76v48.76h-48.76z m48.76 0h48.76v48.76h-48.76z m48.76 0h48.76v48.76h-48.76z" fill="#596988"></path><path d="M828.95 731.43h48.76v48.76h-48.76z" fill="#FFF"></path><path d="M780.19 731.43h48.76v48.76h-48.76z m-48.76 0h48.76v48.76h-48.76z m-48.77 0h48.77v48.76h-48.77z m-48.76 0h48.76v48.76h-48.76z m-48.76 48.76h48.76v48.76h-48.76z m0-48.76h48.76v48.76h-48.76z m-97.52 0h48.76v48.76h-48.76z m48.76 0h48.76v48.76h-48.76z m0 97.52h48.76v48.76h-48.76z m0-48.76h48.76v48.76h-48.76z m-48.76 0h48.76v48.76h-48.76z m0 48.76h48.76v48.76h-48.76z m48.76 48.76h48.76v48.77h-48.76z m-48.76 0h48.76v48.77h-48.76z m-48.76-48.76h48.76v48.76h-48.76z m0 48.76h48.76v48.77h-48.76z m0-97.52h48.76v48.76h-48.76z m-48.76 0h48.76v48.76h-48.76z m0-48.76h48.76v48.76h-48.76z m-97.53 0h48.76v48.76h-48.76z m146.29 0h48.76v48.76h-48.76z m-97.53 0h48.77v48.76h-48.77z m-146.28 97.52h48.76v48.76h-48.76z m-48.76-48.76h48.76v48.76h-48.76z m48.76 0h48.76v48.76h-48.76z m0-97.53h48.76v48.77h-48.76z m-48.76 48.77h48.76v48.76h-48.76z m48.76 0h48.76v48.76h-48.76z m48.76 48.76h48.76v48.76h-48.76z m0-48.76h48.76v48.76h-48.76z m0-48.77h48.76v48.77h-48.76z m0-48.76h48.76v48.76h-48.76z m-97.52-48.76h48.76v48.76h-48.76z m48.76-48.76h48.76v48.76h-48.76z m-48.76 0h48.76v48.76h-48.76z" fill="#596988"></path><path d="M97.53 536.38h48.76v48.76h-48.76z m48.76-48.76h48.76v48.76h-48.76z m48.76 0h48.76v48.76h-48.76z" fill="#596988"></path><path d="M97.53 487.62h48.76v48.76h-48.76z m146.28 48.76h48.76v48.76h-48.76z m0-97.52h48.76v48.76h-48.76z m0 146.28h48.76v48.76h-48.76z m0-97.52h48.76v48.76h-48.76z m-48.76 97.52h48.76v48.76h-48.76z m0 48.76h48.76v48.76h-48.76z m48.76-292.57h48.76v48.77h-48.76z m-48.76 0h48.76v48.77h-48.76z m0 48.77h48.76v48.76h-48.76z m48.76 0h48.76v48.76h-48.76z m-97.52 0h48.76v48.76h-48.76z m48.76 48.76h48.76v48.76h-48.76z m-48.76 0h48.76v48.76h-48.76z" fill="#596988"></path><path d="M97.53 438.86h48.76v48.76h-48.76z m146.28-146.29h48.76v48.76h-48.76z m-48.76 0h48.76v48.76h-48.76z m0-48.76h48.76v48.76h-48.76z" fill="#596988"></path><path d="M243.81 243.81h48.76v48.76h-48.76z" fill="#FFF"></path><path d="M146.29 243.81h48.76v48.76h-48.76z m97.52-48.76h48.76v48.76h-48.76z m-48.76 0h48.76v48.76h-48.76z m-48.76 0h48.76v48.76h-48.76z m97.52-48.76h48.76v48.76h-48.76z m-48.76 0h48.76v48.76h-48.76z" fill="#596988"></path><path d="M195.05 97.53h48.76v48.76h-48.76z m-48.76 48.76h48.76v48.76h-48.76z m-48.77 48.76h48.76v48.76h-48.76z" fill="#596988"></path><path d="M292.57 146.29h48.76v48.76h-48.76z m-48.76-48.76h48.76v48.76h-48.76z m-48.76-48.77h48.76v48.77h-48.76z m-48.76 48.77h48.76v48.76h-48.76z" fill="#09111F"></path><path d="M97.53 146.29h48.76v48.76h-48.76z m-48.77 48.76h48.77v48.76h-48.77z m48.77 48.76h48.76v48.76h-48.76z m48.76 97.52h48.76v48.77h-48.76z m0-48.76h48.76v48.76h-48.76z m-48.76 97.53h48.76v48.76h-48.76z" fill="#09111F"></path><path d="M48.76 487.62h48.77v48.76h-48.77z m0 48.76h48.77v48.76h-48.77z m0-97.52h48.77v48.76h-48.77z" fill="#596988"></path><path d="M97.53 585.14h48.76v48.76h-48.76z m48.76 48.76h48.76v48.76h-48.76z m0 48.76h48.76v48.77h-48.76z m-48.76 48.77h48.76v48.76h-48.76z" fill="#09111F"></path><path d="M97.53 780.19h48.76v48.76h-48.76z m48.76 48.76h48.76v48.76h-48.76z" fill="#596988"></path><path d="M195.05 877.71h48.76v48.77h-48.76z m48.76-48.76h48.76v48.76h-48.76z m48.76-48.76h48.76v48.76h-48.76z m48.76 0h48.77v48.76h-48.77z m48.77 48.76h48.76v48.76h-48.76z m0 48.76h48.76v48.77h-48.76z m146.28 48.77h48.76v48.76h-48.76z m-48.76 0h48.76v48.76h-48.76z m-48.76 0h48.76v48.76h-48.76z m146.28-48.76h48.76v48.76h-48.76z m0-48.77h48.76v48.76h-48.76z m48.76-48.76h48.76v48.76h-48.76z m48.76 0h48.77v48.76h-48.77z m48.77 48.76h48.76v48.76h-48.76z m48.76 48.76h48.76v48.77h-48.76z" fill="#09111F"></path><path d="M828.95 828.95h48.76v48.76h-48.76z m48.76-48.76h48.77v48.76h-48.76z" fill="#596988"></path><path d="M877.71 731.43h48.77v48.76h-48.76z m-48.76-48.77h48.76v48.77h-48.76z m0-48.76h48.76v48.76h-48.76z m48.76-48.76h48.77v48.76h-48.76z" fill="#09111F"></path><path d="M926.48 536.38h48.76v48.76h-48.76z m0-48.76h48.76v48.76h-48.76z m0-48.76h48.76v48.76h-48.76z" fill="#596988"></path><path d="M926.48 195.05h48.76v48.76h-48.76z m-48.76 195.05h48.76v48.76h-48.76z m0-146.29h48.76v48.76h-48.76z m0-97.52h48.76v48.76h-48.76z m-48.77 195.04h48.76v48.77h-48.76z m0-48.76h48.76v48.76h-48.76z m0-195.05h48.76v48.76h-48.76z m-48.76-48.76h48.76v48.76h-48.76z m-48.76 48.76h48.76v48.76h-48.76z m-48.77 48.76h48.77v48.77h-48.77z m-48.76 0h48.76v48.77h-48.76z" fill="#09111F"></path><path d="M585.14 146.29h48.76v48.76h-48.76z" fill="#596988"></path><path d="M585.14 97.53h48.76v48.76h-48.76z m0-48.77h48.76v48.77h-48.76z m-48.76-48.76h48.76v48.76h-48.76z m-48.76 0h48.76v48.76h-48.76z m-48.76 0h48.76v48.76h-48.76z" fill="#09111F"></path><path d="M390.1 146.29h48.76v48.76h-48.76z" fill="#596988"></path><path d="M390.1 97.53h48.76v48.76h-48.76z m0-48.77h48.76v48.77h-48.76z m-48.77 97.53h48.77v48.76h-48.77z" fill="#09111F"></path></g></svg>