<svg xmlns="http://www.w3.org/2000/svg" width="64" height="64" viewBox="0 0 1024 1024"><g class="nc-icon-wrapper"><path d="M671.82 559.61h44.94v44.94h-44.94z m0-89.87h44.94v44.94h-44.94z m0-44.95h44.94v44.94h-44.94z m0-44.94h44.94v44.94h-44.94z" fill="#39CC27"></path><path d="M671.82 604.55h44.94v44.94h-44.94z" fill="#39CC27"></path><path d="M671.82 514.67h44.94v44.94h-44.94z" fill="#A3FF94"></path><path d="M626.88 604.55h44.94v44.94h-44.94z m0-179.76h44.94v44.94h-44.94z m0 44.95h44.94v44.94h-44.94z" fill="#39CC27"></path><path d="M626.88 559.61h44.94v44.94h-44.94z" fill="#39CC27"></path><path d="M626.88 514.67h44.94v44.94h-44.94z" fill="#A3FF94"></path><path d="M626.88 649.5h44.94v44.93h-44.94z m0-269.65h44.94v44.94h-44.94z m-134.82 0h44.94v44.94h-44.94z m0 89.89h44.94v44.94h-44.94z" fill="#39CC27"></path><path d="M447.12 469.74h44.94v44.93h-44.94z m44.94 179.75h44.94v44.94h-44.94z m-44.94-89.88h44.94v44.94h-44.94z" fill="#39CC27"></path><path d="M447.12 649.5h44.94v44.93h-44.94z m44.94-224.71h44.94v44.94h-44.94z" fill="#39CC27"></path><path d="M447.12 514.67h44.94v44.94h-44.94z" fill="#A3FF94"></path><path d="M447.12 424.79h44.94v44.94h-44.94z m0-44.94h44.94v44.94h-44.94z m44.94 224.7h44.94v44.94h-44.94z" fill="#39CC27"></path><path d="M492.06 559.61h44.94v44.94h-44.94z" fill="#39CC27"></path><path d="M447.12 604.55h44.94v44.94h-44.94z" fill="#39CC27"></path><path d="M492.06 514.67h44.94v44.94h-44.94z" fill="#A3FF94"></path><path d="M267.36 559.61h44.94v44.94h-44.94z" fill="#39CC27"></path><path d="M312.3 379.85h44.94v44.94h-44.94z"></path><path d="M267.36 424.79h44.94v44.94h-44.94z" fill="#39CC27"></path><path d="M312.3 604.55h44.94v44.94h-44.94z"></path><path d="M267.36 379.85h44.94v44.94h-44.94z m0 269.64h44.94v44.94h-44.94z" fill="#39CC27"></path><path d="M312.3 649.5h44.94v44.93h-44.94z m0-224.71h44.94v44.94h-44.94z"></path><path d="M267.36 469.74h44.94v44.93h-44.94z m0 134.81h44.94v44.94h-44.94z" fill="#39CC27"></path><path d="M267.36 514.67h44.94v44.94h-44.94z" fill="#A3FF94"></path><path d="M312.3 559.61h44.94v44.94h-44.94z"></path><path d="M222.41 514.67h44.94v44.94h-44.94z" fill="#A3FF94"></path><path d="M222.41 469.74h44.94v44.93h-44.94z m0 134.81h44.94v44.94h-44.94z m0 44.94h44.94v44.94h-44.94z" fill="#39CC27"></path><path d="M222.41 559.61h44.94v44.94h-44.94z m0-179.76h44.94v44.94h-44.94z m0 44.94h44.94v44.94h-44.94z m179.77 179.76h44.94v44.94h-44.94z" fill="#39CC27"></path><path d="M402.18 559.61h44.94v44.94h-44.94z m0 89.88h44.94v44.94h-44.94z" fill="#39CC27"></path><path d="M402.18 514.67h44.94v44.94h-44.94z" fill="#A3FF94"></path><path d="M402.18 424.79h44.94v44.94h-44.94z m0 44.95h44.94v44.93h-44.94z m0-89.89h44.94v44.94h-44.94z" fill="#39CC27"></path><path d="M581.94 649.5h44.94v44.93h-44.94z m0-134.82h44.94v44.93h-44.94z m0-44.94h44.94v44.94h-44.94z m0 89.87h44.94v44.94h-44.94z" fill="#1C550B"></path><path d="M581.94 604.55h44.94v44.94h-44.94z m0-179.76h44.94v44.94h-44.94z m0-44.94h44.94v44.94h-44.94z" fill="#1C550B"></path><path d="M761.7 424.79h44.94v44.94h-44.94z m0 44.95h44.94v44.93h-44.94z m0 134.81h44.94v44.94h-44.94z m0-224.7h44.94v44.94h-44.94z"></path><path d="M761.7 559.61h44.94v44.94h-44.94z m0-44.93h44.94v44.93h-44.94z"></path><path d="M716.76 514.67h44.94v44.94h-44.94z" fill="#A3FF94"></path><path d="M716.76 424.79h44.94v44.94h-44.94z m0 134.82h44.94v44.94h-44.94z" fill="#39CC27"></path><path d="M716.76 604.55h44.94v44.94h-44.94z m0-224.7h44.94v44.94h-44.94z m0 89.89h44.94v44.94h-44.94z" fill="#39CC27"></path><path d="M537 604.55h44.93v44.94h-44.93z m0-179.76h44.93v44.94h-44.93z m0 89.89h44.93v44.93h-44.93z m0 134.82h44.93v44.93h-44.93z"></path><path d="M537 559.61h44.93v44.94h-44.93z m0-89.87h44.93v44.94h-44.93z m0-89.89h44.93v44.94h-44.93z"></path><path d="M357.23 379.85h44.94v44.94h-44.94z m0 44.94h44.94v44.94h-44.94z m0 224.7h44.94v44.94h-44.94z m0-134.81h44.94v44.93h-44.94z m0-44.94h44.94v44.94h-44.94z" fill="#1C550B"></path><path d="M312.3 514.67h44.94v44.94h-44.94z"></path><path d="M357.23 604.55h44.94v44.94h-44.94z" fill="#1C550B"></path><path d="M357.23 559.61h44.94v44.94h-44.94z" fill="#1C550B"></path><path d="M312.3 469.74h44.94v44.93h-44.94z m629.16 89.87h44.94v44.94h-44.94z m0-44.94h44.94v44.94h-44.94z m0-44.93h44.94v44.93h-44.94z"></path><path d="M896.52 604.55h44.94v44.94h-44.94z"></path><path d="M896.52 559.61h44.94v44.94h-44.94z m0-44.93h44.94v44.93h-44.94z" fill="#9E9E9E"></path><path d="M896.52 469.74h44.94v44.93h-44.94z" fill="#F2F2F2"></path><path d="M896.52 424.79h44.94v44.94h-44.94z m0-44.94h44.94v44.94h-44.94z m-44.94 359.53h44.94v44.94h-44.94z m0-44.95h44.94v44.95h-44.94z"></path><path d="M851.58 649.5h44.94v44.93h-44.94z"></path><path d="M851.58 604.55h44.94v44.94h-44.94z" fill="#9E9E9E"></path><path d="M851.58 559.61h44.94v44.94h-44.94z m0-44.93h44.94v44.93h-44.94z" fill="#9E9E9E"></path><path d="M851.58 469.74h44.94v44.93h-44.94z" fill="#F2F2F2"></path><path d="M851.58 424.79h44.94v44.94h-44.94z" fill="#9E9E9E"></path><path d="M851.58 379.85h44.94v44.94h-44.94z m0-44.94h44.94v44.94h-44.94z m0-44.94h44.94v44.94h-44.94z m-44.94 494.35h44.94v44.94h-44.94z"></path><path d="M806.64 739.38h44.94v44.93h-44.94z" fill="#9E9E9E"></path><path d="M806.64 694.43h44.94v44.95h-44.94z" fill="#1C550B"></path><path d="M806.64 649.5h44.94v44.93h-44.94z m0-44.95h44.94v44.94h-44.94z" fill="#1C550B"></path><path d="M806.64 559.61h44.94v44.94h-44.94z m0-44.93h44.94v44.93h-44.94z m0-44.94h44.94v44.94h-44.94z m0-44.95h44.94v44.94h-44.94z m0-44.94h44.94v44.94h-44.94z m0-44.94h44.94v44.94h-44.94z" fill="#1C550B"></path><path d="M806.64 289.97h44.94v44.94h-44.94z" fill="#9E9E9E"></path><path d="M806.64 245.03h44.94v44.94h-44.94z m-44.94 539.29h44.94v44.94h-44.94z"></path><path d="M761.7 739.38h44.94v44.93h-44.94z" fill="#9E9E9E"></path><path d="M761.7 694.43h44.94v44.95h-44.94z" fill="#1C550B"></path><path d="M761.7 649.5h44.94v44.93h-44.94z"></path><path d="M761.7 334.91h44.94v44.94h-44.94z" fill="#1C550B"></path><path d="M761.7 289.97h44.94v44.94h-44.94z" fill="#9E9E9E"></path><path d="M761.7 245.03h44.94v44.94h-44.94z m-44.94 539.29h44.94v44.94h-44.94z"></path><path d="M716.76 739.38h44.94v44.93h-44.94z" fill="#9E9E9E"></path><path d="M716.76 694.43h44.94v44.95h-44.94z" fill="#1C550B"></path><path d="M716.76 649.5h44.94v44.93h-44.94z" fill="#39CC27"></path><path d="M716.76 334.91h44.94v44.94h-44.94z" fill="#1C550B"></path><path d="M716.76 289.97h44.94v44.94h-44.94z" fill="#F2F2F2"></path><path d="M716.76 245.03h44.94v44.94h-44.94z m-44.94 539.29h44.94v44.94h-44.94z"></path><path d="M671.82 739.38h44.94v44.93h-44.94z" fill="#9E9E9E"></path><path d="M671.82 694.43h44.94v44.95h-44.94z" fill="#1C550B"></path><path d="M671.82 649.5h44.94v44.93h-44.94z" fill="#39CC27"></path><path d="M671.82 334.91h44.94v44.94h-44.94z" fill="#1C550B"></path><path d="M671.82 289.97h44.94v44.94h-44.94z" fill="#F2F2F2"></path><path d="M671.82 245.03h44.94v44.94h-44.94z m-44.94 539.29h44.94v44.94h-44.94z"></path><path d="M626.88 739.38h44.94v44.93h-44.94z" fill="#9E9E9E"></path><path d="M626.88 694.43h44.94v44.95h-44.94z m0-359.52h44.94v44.94h-44.94z" fill="#1C550B"></path><path d="M626.88 289.97h44.94v44.94h-44.94z" fill="#9E9E9E"></path><path d="M626.88 245.03h44.94v44.94h-44.94z m-44.94 539.29h44.94v44.94h-44.94z"></path><path d="M581.94 739.38h44.94v44.93h-44.94z" fill="#9E9E9E"></path><path d="M581.94 694.43h44.94v44.95h-44.94z m0-359.52h44.94v44.94h-44.94z" fill="#1C550B"></path><path d="M581.94 289.97h44.94v44.94h-44.94z" fill="#9E9E9E"></path><path d="M581.94 245.03h44.94v44.94h-44.94z m-44.94 539.29h44.93v44.94h-44.93z"></path><path d="M537 739.38h44.93v44.93h-44.93z" fill="#9E9E9E"></path><path d="M537 694.43h44.93v44.95h-44.93z m0-359.52h44.93v44.94h-44.93z" fill="#1C550B"></path><path d="M537 289.97h44.93v44.94h-44.93z" fill="#9E9E9E"></path><path d="M537 245.03h44.93v44.94h-44.93z m-44.94 539.29h44.94v44.94h-44.94z"></path><path d="M492.06 739.38h44.94v44.93h-44.94z" fill="#9E9E9E"></path><path d="M492.06 694.43h44.94v44.95h-44.94z m0-359.52h44.94v44.94h-44.94z" fill="#1C550B"></path><path d="M492.06 289.97h44.94v44.94h-44.94z" fill="#9E9E9E"></path><path d="M492.06 245.03h44.94v44.94h-44.94z m-44.94 539.29h44.94v44.94h-44.94z"></path><path d="M447.12 739.38h44.94v44.93h-44.94z" fill="#9E9E9E"></path><path d="M447.12 694.43h44.94v44.95h-44.94z m0-359.52h44.94v44.94h-44.94z" fill="#1C550B"></path><path d="M447.12 289.97h44.94v44.94h-44.94z" fill="#9E9E9E"></path><path d="M447.12 245.03h44.94v44.94h-44.94z m-44.94 539.29h44.94v44.94h-44.94z"></path><path d="M402.18 739.38h44.94v44.93h-44.94z" fill="#9E9E9E"></path><path d="M402.18 694.43h44.94v44.95h-44.94z m0-359.52h44.94v44.94h-44.94z" fill="#1C550B"></path><path d="M402.18 289.97h44.94v44.94h-44.94z" fill="#9E9E9E"></path><path d="M402.18 245.03h44.94v44.94h-44.94z m-44.95 539.29h44.94v44.94h-44.94z"></path><path d="M357.23 739.38h44.94v44.93h-44.94z" fill="#9E9E9E"></path><path d="M357.23 694.43h44.94v44.95h-44.94z m0-359.52h44.94v44.94h-44.94z" fill="#1C550B"></path><path d="M357.23 289.97h44.94v44.94h-44.94z" fill="#9E9E9E"></path><path d="M357.23 245.03h44.94v44.94h-44.94z m-44.94 539.29h44.94v44.94h-44.94z"></path><path d="M312.3 739.38h44.94v44.93h-44.94z" fill="#9E9E9E"></path><path d="M312.3 694.43h44.94v44.95h-44.94z m0-359.52h44.94v44.94h-44.94z" fill="#1C550B"></path><path d="M312.3 289.97h44.94v44.94h-44.94z" fill="#9E9E9E"></path><path d="M312.3 245.03h44.94v44.94h-44.94z m-44.94 539.29h44.94v44.94h-44.94z"></path><path d="M267.36 739.38h44.94v44.93h-44.94z" fill="#9E9E9E"></path><path d="M267.36 694.43h44.94v44.95h-44.94z m0-359.52h44.94v44.94h-44.94z" fill="#1C550B"></path><path d="M267.36 289.97h44.94v44.94h-44.94z" fill="#9E9E9E"></path><path d="M267.36 245.03h44.94v44.94h-44.94z m-44.95 539.29h44.94v44.94h-44.94z"></path><path d="M222.41 739.38h44.94v44.93h-44.94z" fill="#9E9E9E"></path><path d="M222.41 694.43h44.94v44.95h-44.94z m0-359.52h44.94v44.94h-44.94z" fill="#1C550B"></path><path d="M222.41 289.97h44.94v44.94h-44.94z" fill="#9E9E9E"></path><path d="M222.41 245.03h44.94v44.94h-44.94z m-44.93 539.29h44.93v44.94h-44.93z"></path><path d="M177.48 739.38h44.93v44.93h-44.93z" fill="#F2F2F2"></path><path d="M177.48 694.43h44.93v44.95h-44.93z" fill="#1C550B"></path><path d="M177.48 649.5h44.93v44.93h-44.93z m0-44.95h44.93v44.94h-44.93z" fill="#39CC27"></path><path d="M177.48 559.61h44.93v44.94h-44.93z" fill="#39CC27"></path><path d="M177.48 514.67h44.93v44.94h-44.93z" fill="#A3FF94"></path><path d="M177.48 469.74h44.93v44.93h-44.93z m0-44.95h44.93v44.94h-44.93z m0-44.94h44.93v44.94h-44.93z" fill="#39CC27"></path><path d="M177.48 334.91h44.93v44.94h-44.93z" fill="#1C550B"></path><path d="M177.48 289.97h44.93v44.94h-44.93z" fill="#9E9E9E"></path><path d="M177.48 245.03h44.93v44.94h-44.93z m-44.95 539.29h44.95v44.94h-44.95z"></path><path d="M132.53 739.38h44.95v44.93h-44.95z" fill="#F2F2F2"></path><path d="M132.53 694.43h44.95v44.95h-44.95z" fill="#1C550B"></path><path d="M132.53 649.5h44.95v44.93h-44.95z m0-44.95h44.95v44.94h-44.95z" fill="#1C550B"></path><path d="M132.53 559.61h44.95v44.94h-44.95z m0-44.93h44.95v44.93h-44.95z m0-44.94h44.95v44.94h-44.95z m0-44.95h44.95v44.94h-44.95z m0-44.94h44.95v44.94h-44.95z m0-44.94h44.95v44.94h-44.95z" fill="#1C550B"></path><path d="M132.53 289.97h44.95v44.94h-44.95z" fill="#9E9E9E"></path><path d="M132.53 245.03h44.95v44.94h-44.95z m-44.94 539.29h44.94v44.94h-44.94z"></path><path d="M87.59 739.38h44.94v44.93h-44.94z m0-44.95h44.94v44.95h-44.94z" fill="#9E9E9E"></path><path d="M87.59 649.5h44.94v44.93h-44.94z m0-44.95h44.94v44.94h-44.94z" fill="#9E9E9E"></path><path d="M87.59 559.61h44.94v44.94h-44.94z m0-44.93h44.94v44.93h-44.94z m0-44.94h44.94v44.94h-44.94z m0-44.95h44.94v44.94h-44.94z m0-44.94h44.94v44.94h-44.94z m0-44.94h44.94v44.94h-44.94z m0-44.94h44.94v44.94h-44.94z" fill="#9E9E9E"></path><path d="M87.59 245.03h44.94v44.94h-44.94z m-44.94 539.29h44.94v44.94h-44.94z m0-44.94h44.94v44.94h-44.94z m0-44.95h44.94v44.95h-44.94z"></path><path d="M42.65 649.5h44.94v44.93h-44.94z m0-44.95h44.94v44.94h-44.94z"></path><path d="M42.65 559.61h44.94v44.94h-44.94z m0-44.93h44.94v44.93h-44.94z m0-44.94h44.94v44.94h-44.94z m0-44.95h44.94v44.94h-44.94z m0-44.94h44.94v44.94h-44.94z m0-44.94h44.94v44.94h-44.94z m0-44.94h44.94v44.94h-44.94z m0-44.94h44.94v44.94h-44.94z"></path></g></svg>