<svg xmlns="http://www.w3.org/2000/svg" width="64" height="64" viewBox="0 0 1024 1024"><g class="nc-icon-wrapper"><path d="M487.62 731.43h48.76v48.76h-48.76z m0 48.76h48.76v48.76h-48.76z m0 146.29h48.76v48.76h-48.76z m0-48.76h48.76v48.76h-48.76z" fill="#F7C54E"></path><path d="M487.62 828.95h48.76v48.76h-48.76z" fill="#FFF"></path><path d="M487.62 682.66h48.76v48.77h-48.76z" fill="#F7C54E"></path><path d="M438.86 731.43h48.76v48.76h-48.76z" fill="#FFF"></path><path d="M438.86 877.71h48.76v48.77h-48.76z m0-48.76h48.76v48.76h-48.76z m0-48.76h48.76v48.76h-48.76z m0-97.53h48.76v48.77h-48.76z m0 243.82h48.76v48.76h-48.76z" fill="#E76824"></path><path d="M536.38 926.48h48.76v48.76h-48.76z m0-243.81h48.76v48.76h-48.76z m0 97.52h48.76v48.76h-48.76z m0 48.76h48.76v48.76h-48.76z" fill="#F07324"></path><path d="M536.38 877.71h48.76v48.77h-48.76z" fill="#FFF"></path><path d="M536.38 731.43h48.76v48.76h-48.76z m-146.28 195.05h48.76v48.76h-48.76z m0-97.53h48.76v48.76h-48.76z m0 48.76h48.76v48.77h-48.76z m0-146.28h48.76v48.76h-48.76z" fill="#F07324"></path><path d="M390.1 682.66h48.76v48.77h-48.76z" fill="#FFF"></path><path d="M390.1 780.19h48.76v48.76h-48.76z" fill="#F07324"></path><path d="M780.19 438.86h48.76v48.76h-48.76z m0-48.76h48.76v48.76h-48.76z m0-48.77h48.76v48.77h-48.76z m0-48.76h48.76v48.76h-48.76z m0-48.76h48.76v48.76h-48.76z m0-48.76h48.76v48.76h-48.76z m-48.76 292.57h48.76v48.76h-48.76z" fill="#09111F"></path><path d="M731.43 438.86h48.76v48.76h-48.76z m0-48.76h48.76v48.76h-48.76z" fill="#8B9CB5"></path><path d="M731.43 341.33h48.76v48.77h-48.76z m0-48.76h48.76v48.76h-48.76z" fill="#F0F4F5"></path><path d="M731.43 243.81h48.76v48.76h-48.76z m0-48.76h48.76v48.76h-48.76z" fill="#8B9CB5"></path><path d="M731.43 146.29h48.76v48.76h-48.76z m-48.77 390.09h48.77v48.76h-48.77z" fill="#09111F"></path><path d="M682.66 487.62h48.77v48.76h-48.77z m0-48.76h48.77v48.76h-48.77z m0-48.76h48.77v48.76h-48.77z" fill="#8B9CB5"></path><path d="M682.66 341.33h48.77v48.77h-48.77z m0-48.76h48.77v48.76h-48.77z" fill="#F0F4F5"></path><path d="M682.66 243.81h48.77v48.76h-48.77z m0-48.76h48.77v48.76h-48.77z m0-48.76h48.77v48.76h-48.77z" fill="#8B9CB5"></path><path d="M682.66 97.53h48.77v48.76h-48.77z m-48.76 487.61h48.76v48.76h-48.76z" fill="#09111F"></path><path d="M633.9 536.38h48.76v48.76h-48.76z m0-48.76h48.76v48.76h-48.76z m0-48.76h48.76v48.76h-48.76z" fill="#8B9CB5"></path><path d="M633.9 390.1h48.76v48.76h-48.76z m0-48.77h48.76v48.77h-48.76z m0-48.76h48.76v48.76h-48.76z m0-48.76h48.76v48.76h-48.76z" fill="#384366"></path><path d="M633.9 195.05h48.76v48.76h-48.76z m0-48.76h48.76v48.76h-48.76z" fill="#8B9CB5"></path><path d="M633.9 97.53h48.76v48.76h-48.76z" fill="#F0F4F5"></path><path d="M633.9 48.76h48.76v48.77h-48.76z m-48.76 877.72h48.76v48.76h-48.76z m0-48.76h48.76v48.76h-48.76z m0-48.77h48.76v48.76h-48.76z m0-48.76h48.76v48.76h-48.76z m0-48.76h48.76v48.76h-48.76z m0-48.77h48.76v48.77h-48.76z m0-97.52h48.76v48.76h-48.76z" fill="#09111F"></path><path d="M585.14 536.38h48.76v48.76h-48.76z m0-48.76h48.76v48.76h-48.76z" fill="#8B9CB5"></path><path d="M585.14 438.86h48.76v48.76h-48.76z m0-48.76h48.76v48.76h-48.76z m0-48.77h48.76v48.77h-48.76z" fill="#384366"></path><path d="M585.14 292.57h48.76v48.76h-48.76z m0-48.76h48.76v48.76h-48.76z" fill="#FFF"></path><path d="M585.14 195.05h48.76v48.76h-48.76z" fill="#384366"></path><path d="M585.14 146.29h48.76v48.76h-48.76z" fill="#8B9CB5"></path><path d="M585.14 97.53h48.76v48.76h-48.76z" fill="#F0F4F5"></path><path d="M585.14 48.76h48.76v48.77h-48.76z m-48.76 926.48h48.76v48.76h-48.76z m0-341.34h48.76v48.76h-48.76z m0-48.76h48.76v48.76h-48.76z" fill="#09111F"></path><path d="M536.38 536.38h48.76v48.76h-48.76z m0-48.76h48.76v48.76h-48.76z" fill="#8B9CB5"></path><path d="M536.38 438.86h48.76v48.76h-48.76z m0-48.76h48.76v48.76h-48.76z m0-48.77h48.76v48.77h-48.76z m0-48.76h48.76v48.76h-48.76z" fill="#596988"></path><path d="M536.38 243.81h48.76v48.76h-48.76z" fill="#384366"></path><path d="M536.38 195.05h48.76v48.76h-48.76z" fill="#FFF"></path><path d="M536.38 146.29h48.76v48.76h-48.76z" fill="#8B9CB5"></path><path d="M536.38 97.53h48.76v48.76h-48.76z" fill="#F0F4F5"></path><path d="M536.38 48.76h48.76v48.77h-48.76z m-48.76 926.48h48.76v48.76h-48.76z" fill="#09111F"></path><path d="M487.62 633.9h48.76v48.76h-48.76z" fill="#F0F4F5"></path><path d="M487.62 585.14h48.76v48.76h-48.76z" fill="#596988"></path><path d="M487.62 536.38h48.76v48.76h-48.76z m0-48.76h48.76v48.76h-48.76z" fill="#8B9CB5"></path><path d="M487.62 438.86h48.76v48.76h-48.76z" fill="#596988"></path><path d="M487.62 390.1h48.76v48.76h-48.76z m0-48.77h48.76v48.77h-48.76z m0-48.76h48.76v48.76h-48.76z" fill="#596887"></path><path d="M487.62 243.81h48.76v48.76h-48.76z" fill="#384366"></path><path d="M487.62 195.05h48.76v48.76h-48.76z" fill="#FFF"></path><path d="M487.62 146.29h48.76v48.76h-48.76z" fill="#8B9CB5"></path><path d="M487.62 97.53h48.76v48.76h-48.76z" fill="#F0F4F5"></path><path d="M487.62 48.76h48.76v48.77h-48.76z m-48.76 926.48h48.76v48.76h-48.76z" fill="#09111F"></path><path d="M438.86 633.9h48.76v48.76h-48.76z" fill="#F0F4F5"></path><path d="M438.86 585.14h48.76v48.76h-48.76z" fill="#596988"></path><path d="M438.86 536.38h48.76v48.76h-48.76z m0-48.76h48.76v48.76h-48.76z" fill="#8B9CB5"></path><path d="M438.86 438.86h48.76v48.76h-48.76z" fill="#596988"></path><path d="M438.86 390.1h48.76v48.76h-48.76z" fill="#FFF"></path><path d="M438.86 341.33h48.76v48.77h-48.76z m0-48.76h48.76v48.76h-48.76z" fill="#596887"></path><path d="M438.86 243.81h48.76v48.76h-48.76z m0-48.76h48.76v48.76h-48.76z" fill="#384366"></path><path d="M438.86 146.29h48.76v48.76h-48.76z" fill="#8B9CB5"></path><path d="M438.86 97.53h48.76v48.76h-48.76z" fill="#F0F4F5"></path><path d="M438.86 48.76h48.76v48.77h-48.76z m-48.76 926.48h48.76v48.76h-48.76z m0-341.34h48.76v48.76h-48.76z m0-48.76h48.76v48.76h-48.76z" fill="#09111F"></path><path d="M390.1 536.38h48.76v48.76h-48.76z m0-48.76h48.76v48.76h-48.76z" fill="#8B9CB5"></path><path d="M390.1 438.86h48.76v48.76h-48.76z" fill="#596988"></path><path d="M390.1 390.1h48.76v48.76h-48.76z" fill="#596887"></path><path d="M390.1 341.33h48.76v48.77h-48.76z" fill="#FFF"></path><path d="M390.1 292.57h48.76v48.76h-48.76z" fill="#596887"></path><path d="M390.1 243.81h48.76v48.76h-48.76z m0-48.76h48.76v48.76h-48.76z" fill="#384366"></path><path d="M390.1 146.29h48.76v48.76h-48.76z" fill="#8B9CB5"></path><path d="M390.1 97.53h48.76v48.76h-48.76z" fill="#F0F4F5"></path><path d="M390.1 48.76h48.76v48.77h-48.76z m-48.77 877.72h48.77v48.76h-48.77z m0-48.76h48.77v48.76h-48.77z m0-48.77h48.77v48.76h-48.77z m0-48.76h48.77v48.76h-48.77z m0-48.76h48.77v48.76h-48.77z m0-48.77h48.77v48.77h-48.77z m0-97.52h48.77v48.76h-48.77z" fill="#09111F"></path><path d="M341.33 536.38h48.77v48.76h-48.77z m0-48.76h48.77v48.76h-48.77z m0-48.76h48.77v48.76h-48.77z" fill="#8B9CB5"></path><path d="M341.33 390.1h48.77v48.76h-48.77z m0-48.77h48.77v48.77h-48.77z m0-48.76h48.77v48.76h-48.77z" fill="#596887"></path><path d="M341.33 243.81h48.77v48.76h-48.77z" fill="#384366"></path><path d="M341.33 195.05h48.77v48.76h-48.77z m0-48.76h48.77v48.76h-48.77z" fill="#8B9CB5"></path><path d="M341.33 97.53h48.77v48.76h-48.77z" fill="#F0F4F5"></path><path d="M341.33 48.76h48.77v48.77h-48.77z m-48.76 536.38h48.76v48.76h-48.76z" fill="#09111F"></path><path d="M292.57 536.38h48.76v48.76h-48.76z" fill="#586887"></path><path d="M292.57 487.62h48.76v48.76h-48.76z" fill="#8B9CB5"></path><path d="M292.57 438.86h48.76v48.76h-48.76z m0-48.76h48.76v48.76h-48.76z m0-48.77h48.76v48.77h-48.76z m0-48.76h48.76v48.76h-48.76z" fill="#F0F4F5"></path><path d="M292.57 243.81h48.76v48.76h-48.76z m0-48.76h48.76v48.76h-48.76z m0-48.76h48.76v48.76h-48.76z" fill="#8B9CB5"></path><path d="M292.57 97.53h48.76v48.76h-48.76z" fill="#586887"></path><path d="M292.57 48.76h48.76v48.77h-48.76z m-48.76 487.62h48.76v48.76h-48.76z" fill="#09111F"></path><path d="M243.81 487.62h48.76v48.76h-48.76z m0-48.76h48.76v48.76h-48.76z m0-48.76h48.76v48.76h-48.76z m0-48.77h48.76v48.77h-48.76z m0-48.76h48.76v48.76h-48.76z m0-48.76h48.76v48.76h-48.76z m0-48.76h48.76v48.76h-48.76z m0-48.76h48.76v48.76h-48.76z" fill="#586887"></path><path d="M243.81 97.53h48.76v48.76h-48.76z m-48.76 390.09h48.76v48.76h-48.76z" fill="#09111F"></path><path d="M195.05 438.86h48.76v48.76h-48.76z m0-48.76h48.76v48.76h-48.76z m0-48.77h48.76v48.77h-48.76z m0-48.76h48.76v48.76h-48.76z m0-48.76h48.76v48.76h-48.76z m0-48.76h48.76v48.76h-48.76z" fill="#586887"></path><path d="M195.05 146.29h48.76v48.76h-48.76z m-48.76 292.57h48.76v48.76h-48.76z m0-48.76h48.76v48.76h-48.76z m0-48.77h48.76v48.77h-48.76z m0-48.76h48.76v48.76h-48.76z m0-48.76h48.76v48.76h-48.76z m0-48.76h48.76v48.76h-48.76z" fill="#09111F"></path></g></svg>