<svg xmlns="http://www.w3.org/2000/svg" width="64" height="64" viewBox="0 0 1024 1024"><g class="nc-icon-wrapper"><path d="M828.95 926.48h48.76v48.76h-48.76z m0-48.76h48.76v48.76h-48.76z m0-48.77h48.76v48.76h-48.76z m0-48.76h48.76v48.76h-48.76z m0-48.76h48.76v48.76h-48.76z m0-48.77h48.76v48.77h-48.76z m0-97.52h48.76v48.76h-48.76z m0-48.76h48.76v48.76h-48.76z m0-48.76h48.76v48.76h-48.76z m0-341.33h48.76v48.76h-48.76z" fill="#09111F"></path><path d="M828.95 97.53h48.76v48.76h-48.76z m-48.76 877.71h48.76v48.76h-48.76z m0-48.76h48.76v48.76h-48.76z" fill="#09111F"></path><path d="M780.19 877.71h48.76v48.77h-48.76z" fill="#FFF"></path><path d="M780.19 828.95h48.76v48.76h-48.76z m0-48.76h48.76v48.76h-48.76z m0-48.76h48.76v48.76h-48.76z m0-48.77h48.76v48.77h-48.76z" fill="#F7C54E"></path><path d="M780.19 633.9h48.76v48.76h-48.76z" fill="#09111F"></path><path d="M828.95 585.14v48.76h-48.76v-97.52h48.76v48.76z" fill="#FFF"></path><path d="M780.19 487.62h48.76v48.76h-48.76z" fill="#C2CDDE"></path><path d="M780.19 438.86h48.76v48.76h-48.76z m0-48.76h48.76v48.76h-48.76z m0-48.77h48.76v48.77h-48.76z m0-48.76h48.76v48.76h-48.76z m0-48.76h48.76v48.76h-48.76z m0-48.76h48.76v48.76h-48.76z" fill="#09111F"></path><path d="M780.19 146.29h48.76v48.76h-48.76z" fill="#8C9DB6"></path><path d="M780.19 97.53h48.76v48.76h-48.76z" fill="#8C9DB6"></path><path d="M780.19 48.76h48.76v48.77h-48.76z m-48.76 926.48h48.76v48.76h-48.76z" fill="#09111F"></path><path d="M731.43 926.48h48.76v48.76h-48.76z m0-48.76h48.76v48.76h-48.76z" fill="#F7C54E"></path><path d="M731.43 828.95h48.76v48.76h-48.76z" fill="#F07324"></path><path d="M731.43 780.19h48.76v48.76h-48.76z m0-48.76h48.76v48.76h-48.76z" fill="#E76824"></path><path d="M731.43 682.66h48.76v48.77h-48.76z" fill="#F7C54E"></path><path d="M731.43 633.9h48.76v48.76h-48.76z" fill="#E76824"></path><path d="M731.43 585.14h48.76v48.76h-48.76z m0-48.76h48.76v48.76h-48.76z m0-48.76h48.76v48.76h-48.76z m48.76-48.76v48.76h-48.76v-243.81h48.76v195.05z m-48.76-243.81h48.76v48.76h-48.76z m0-48.76h48.76v48.76h-48.76z" fill="#8C9DB6"></path><path d="M731.43 97.53h48.76v48.76h-48.76z m0-48.77h48.76v48.77h-48.76z" fill="#8C9DB6"></path><path d="M731.43 0h48.76v48.76h-48.76z m-48.77 975.24h48.77v48.76h-48.77z" fill="#09111F"></path><path d="M682.66 926.48h48.77v48.76h-48.77z m0-48.76h48.77v48.76h-48.77z m0-48.77h48.77v48.76h-48.77z m0-48.76h48.77v48.76h-48.77z" fill="#E76824"></path><path d="M682.66 731.43h48.77v48.76h-48.77z" fill="#FFF"></path><path d="M682.66 682.66h48.77v48.77h-48.77z m0-48.76h48.77v48.76h-48.77z" fill="#E76824"></path><path d="M682.66 585.14h48.77v48.76h-48.77z m0-48.76h48.77v48.76h-48.77z m0-48.76h48.77v48.76h-48.77z m48.77-243.81v243.81h-48.77v-243.81h48.77z" fill="#627190"></path><path d="M682.66 195.05h48.77v48.76h-48.77z m0-48.76h48.77v48.76h-48.77z" fill="#8C9DB6"></path><path d="M682.66 97.53h48.77v48.76h-48.77z" fill="#8C9DB6"></path><path d="M682.66 48.76h48.77v48.77h-48.77z" fill="#FFF"></path><path d="M682.66 0h48.77v48.76h-48.77z m-48.76 975.24h48.76v48.76h-48.76z m0-48.77h48.76v48.76h-48.76z" fill="#09111F"></path><path d="M633.9 877.71h48.76v48.77h-48.76z m0-48.76h48.76v48.76h-48.76z m0-48.76h48.76v48.76h-48.76z m0-48.76h48.76v48.76h-48.76z m0-48.77h48.76v48.77h-48.76z" fill="#FB7A1F"></path><path d="M633.9 633.9h48.76v48.76h-48.76z" fill="#09111F"></path><path d="M682.66 585.14v48.76h-48.76v-146.28h48.76v97.52z" fill="#8C9DB6"></path><path d="M633.9 438.86h48.76v48.76h-48.76z m0-48.76h48.76v48.76h-48.76z m0-48.77h48.76v48.77h-48.76z m0-48.76h48.76v48.76h-48.76z m0-48.76h48.76v48.76h-48.76z m0-48.76h48.76v48.76h-48.76z" fill="#09111F"></path><path d="M633.9 146.29h48.76v48.76h-48.76z" fill="#8C9DB6"></path><path d="M633.9 97.53h48.76v48.76h-48.76z" fill="#8C9DB6"></path><path d="M633.9 48.76h48.76v48.77h-48.76z m-48.76 877.72h48.76v48.76h-48.76z m0-48.76h48.76v48.76h-48.76z m0-48.77h48.76v48.76h-48.76z m0-48.76h48.76v48.76h-48.76z m0-48.76h48.76v48.76h-48.76z m0-48.77h48.76v48.77h-48.76z m0-97.52h48.76v48.76h-48.76z m0-48.76h48.76v48.76h-48.76z m0-48.76h48.76v48.76h-48.76z m0-341.33h48.76v48.76h-48.76z" fill="#09111F"></path><path d="M585.14 97.53h48.76v48.76h-48.76z m-97.52 780.19h48.76v48.76h-48.76z m0-48.77h48.76v48.76h-48.76z m0-48.76h48.76v48.76h-48.76z m0-585.14h48.76v48.76h-48.76z m0-48.76h48.76v48.76h-48.76z" fill="#09111F"></path><path d="M487.62 97.53h48.76v48.76h-48.76z m-48.76 828.95h48.76v48.76h-48.76z" fill="#09111F"></path><path d="M438.86 877.71h48.76v48.77h-48.76z m0-48.76h48.76v48.76h-48.76z m0-48.76h48.76v48.76h-48.76z" fill="#C2CDDE"></path><path d="M438.86 731.43h48.76v48.76h-48.76z m0-487.62h48.76v48.76h-48.76z" fill="#09111F"></path><path d="M438.86 195.05h48.76v48.76h-48.76z m0-48.76h48.76v48.76h-48.76z" fill="#C2CDDE"></path><path d="M438.86 97.53h48.76v48.76h-48.76z" fill="#C2CDDE"></path><path d="M438.86 48.76h48.76v48.77h-48.76z m-48.76 926.48h48.76v48.76h-48.76z" fill="#09111F"></path><path d="M390.1 926.48h48.76v48.76h-48.76z m0-48.76h48.76v48.76h-48.76z m0-48.77h48.76v48.76h-48.76z" fill="#C2CDDE"></path><path d="M390.1 780.19h48.76v48.76h-48.76z" fill="#FFF"></path><path d="M390.1 731.43h48.76v48.76h-48.76z" fill="#C2CDDE"></path><path d="M390.1 682.66h48.76v48.77h-48.76z m0-48.76h48.76v48.76h-48.76z m0-48.76h48.76v48.76h-48.76z m0-48.76h48.76v48.76h-48.76z m0-48.76h48.76v48.76h-48.76z m0-48.76h48.76v48.76h-48.76z m0-48.76h48.76v48.76h-48.76z m0-48.77h48.76v48.77h-48.76z m0-48.76h48.76v48.76h-48.76z" fill="#09111F"></path><path d="M390.1 243.81h48.76v48.76h-48.76z m0-48.76h48.76v48.76h-48.76z m0-48.76h48.76v48.76h-48.76z" fill="#C2CDDE"></path><path d="M390.1 97.53h48.76v48.76h-48.76z m0-48.77h48.76v48.77h-48.76z" fill="#C2CDDE"></path><path d="M390.1 0h48.76v48.76h-48.76z m-48.77 975.24h48.77v48.76h-48.77z m0-48.77h48.77v48.76h-48.77z m0-48.76h48.77v48.76h-48.77z" fill="#09111F"></path><path d="M341.33 828.95h48.77v48.76h-48.77z" fill="#C2CDDE"></path><path d="M341.33 780.19h48.77v48.76h-48.77z m0-48.76h48.77v48.76h-48.77z" fill="#FFF"></path><path d="M341.33 682.66h48.77v48.77h-48.77z" fill="#C2CDDE"></path><path d="M341.33 633.9h48.77v48.76h-48.77z" fill="#FFF"></path><path d="M341.33 585.14h48.77v48.76h-48.77z m0-48.76h48.77v48.76h-48.77z m0-48.76h48.77v48.76h-48.77z m0-48.76h48.77v48.76h-48.77z m0-48.76h48.77v48.76h-48.77z m0-48.77h48.77v48.77h-48.77z m0-48.76h48.77v48.76h-48.77z m0-48.76h48.77v48.76h-48.77z m0-48.76h48.77v48.76h-48.77z m0-48.76h48.77v48.76h-48.77z" fill="#C2CDDE"></path><path d="M341.33 97.53h48.77v48.76h-48.77z m0-48.77h48.77v48.77h-48.77z m-48.76 926.48h48.76v48.76h-48.76z" fill="#09111F"></path><path d="M292.57 926.48h48.76v48.76h-48.76z m0-48.76h48.76v48.76h-48.76z" fill="#1C1E32"></path><path d="M292.57 828.95h48.76v48.76h-48.76z" fill="#09111F"></path><path d="M292.57 780.19h48.76v48.76h-48.76z m0-48.76h48.76v48.76h-48.76z" fill="#C2CDDE"></path><path d="M292.57 682.66h48.76v48.77h-48.76z m0-48.76h48.76v48.76h-48.76z m0-48.76h48.76v48.76h-48.76z m0-48.76h48.76v48.76h-48.76z m0-48.76h48.76v48.76h-48.76z m0-48.76h48.76v48.76h-48.76z m0-48.76h48.76v48.76h-48.76z m0-48.77h48.76v48.77h-48.76z m0-48.76h48.76v48.76h-48.76z" fill="#384366"></path><path d="M292.57 243.81h48.76v48.76h-48.76z m0-48.76h48.76v48.76h-48.76z" fill="#C2CDDE"></path><path d="M292.57 146.29h48.76v48.76h-48.76z m-48.76 828.95h48.76v48.76h-48.76z m0-48.77h48.76v48.76h-48.76z m0-48.76h48.76v48.76h-48.76z" fill="#09111F"></path><path d="M243.81 828.95h48.76v48.76h-48.76z m0-48.76h48.76v48.76h-48.76z" fill="#627190"></path><path d="M243.81 731.43h48.76v48.76h-48.76z" fill="#C2CDDE"></path><path d="M243.81 682.66h48.76v48.77h-48.76z m0-48.76h48.76v48.76h-48.76z m0-48.76h48.76v48.76h-48.76z m0-48.76h48.76v48.76h-48.76z m0-48.76h48.76v48.76h-48.76z m0-48.76h48.76v48.76h-48.76z" fill="#627190"></path><path d="M243.81 390.1h48.76v48.76h-48.76z" fill="#FFF"></path><path d="M243.81 341.33h48.76v48.77h-48.76z m0-48.76h48.76v48.76h-48.76z m0-48.76h48.76v48.76h-48.76z" fill="#627190"></path><path d="M243.81 195.05h48.76v48.76h-48.76z" fill="#C2CDDE"></path><path d="M243.81 146.29h48.76v48.76h-48.76z" fill="#627190"></path><path d="M243.81 97.53h48.76v48.76h-48.76z m0-48.77h48.76v48.77h-48.76z m-48.76 926.48h48.76v48.76h-48.76z" fill="#09111F"></path><path d="M195.05 926.48h48.76v48.76h-48.76z m0-48.76h48.76v48.76h-48.76z m0-48.77h48.76v48.76h-48.76z m0-48.76h48.76v48.76h-48.76z m0-48.76h48.76v48.76h-48.76z" fill="#627190"></path><path d="M195.05 682.66h48.76v48.77h-48.76z m0-48.76h48.76v48.76h-48.76z m0-48.76h48.76v48.76h-48.76z m0-48.76h48.76v48.76h-48.76z m0-48.76h48.76v48.76h-48.76z m0-48.76h48.76v48.76h-48.76z m0-48.76h48.76v48.76h-48.76z m0-48.77h48.76v48.77h-48.76z m0-48.76h48.76v48.76h-48.76z" fill="#09111F"></path><path d="M195.05 243.81h48.76v48.76h-48.76z" fill="#627190"></path><path d="M195.05 195.05h48.76v48.76h-48.76z" fill="#FFF"></path><path d="M195.05 146.29h48.76v48.76h-48.76z" fill="#627190"></path><path d="M195.05 97.53h48.76v48.76h-48.76z m0-48.77h48.76v48.77h-48.76z" fill="#627190"></path><path d="M195.05 0h48.76v48.76h-48.76z m-48.76 926.48h48.76v48.76h-48.76z" fill="#09111F"></path><path d="M146.29 877.71h48.76v48.77h-48.76z m0-48.76h48.76v48.76h-48.76z m0-48.76h48.76v48.76h-48.76z" fill="#627190"></path><path d="M146.29 731.43h48.76v48.76h-48.76z m0-487.62h48.76v48.76h-48.76z" fill="#09111F"></path><path d="M146.29 195.05h48.76v48.76h-48.76z m0-48.76h48.76v48.76h-48.76z" fill="#627190"></path><path d="M146.29 97.53h48.76v48.76h-48.76z" fill="#627190"></path><path d="M146.29 48.76h48.76v48.77h-48.76z m-48.76 828.96h48.76v48.76h-48.76z m0-48.77h48.76v48.77h-48.76z m0-48.76h48.76v48.76h-48.76z m0-585.14h48.76v48.76h-48.76z m0-48.76h48.76v48.76h-48.76z" fill="#09111F"></path><path d="M97.53 97.53h48.76v48.76h-48.76z" fill="#09111F"></path></g></svg>