<svg xmlns="http://www.w3.org/2000/svg" width="64" height="64" viewBox="0 0 1024 1024"><g class="nc-icon-wrapper"><path d="M975.24 536.38h48.76v48.76h-48.76z m0-48.76h48.76v48.76h-48.76z m-48.77 97.52h48.76v48.76h-48.76z"></path><path d="M926.48 536.38h48.76v48.76h-48.76z" fill="#EC6941"></path><path d="M926.48 487.62h48.76v48.76h-48.76z m-48.76 48.76h48.76v48.76h-48.76z m0-292.57h48.76v48.76h-48.76z m-48.77 633.9h48.76v48.77h-48.76z m0-48.76h48.76v48.76h-48.76z m0-48.76h48.76v48.76h-48.76z m0-48.76h48.76v48.76h-48.76z m0-48.77h48.76v48.77h-48.76z m0-48.76h48.76v48.76h-48.76z m0-146.28h48.76v48.76h-48.76z m0-48.76h48.76v48.76h-48.76z m0-48.76h48.76v48.76h-48.76z m0-97.53h48.76v48.76h-48.76z"></path><path d="M828.95 243.81h48.76v48.76h-48.76z" fill="#EC6941"></path><path d="M828.95 195.05h48.76v48.76h-48.76z m-48.76 731.42h48.76v48.76h-48.76z"></path><path d="M780.19 877.71h48.76v48.77h-48.76z m0-48.76h48.76v48.76h-48.76z" fill="#E60012"></path><path d="M780.19 780.19h48.76v48.76h-48.76z m0-48.76h48.76v48.76h-48.76z" fill="#F39800"></path><path d="M780.19 682.66h48.76v48.77h-48.76z" fill="#FFF"></path><path d="M780.19 633.9h48.76v48.76h-48.76z" fill="#E60012"></path><path d="M780.19 585.14h48.76v48.76h-48.76z m0-48.76h48.76v48.76h-48.76z"></path><path d="M780.19 487.62h48.76v48.76h-48.76z" fill="#E60012"></path><path d="M780.19 438.86h48.76v48.76h-48.76z m0-97.53h48.76v48.77h-48.76z"></path><path d="M780.19 292.57h48.76v48.76h-48.76z m0-48.76h48.76v48.76h-48.76z m0-48.76h48.76v48.76h-48.76z" fill="#EC6941"></path><path d="M780.19 146.29h48.76v48.76h-48.76z m-48.76 828.95h48.76v48.76h-48.76z m0-48.77h48.76v48.76h-48.76z"></path><path d="M731.43 877.71h48.76v48.77h-48.76z m0-48.76h48.76v48.76h-48.76z m0-48.76h48.76v48.76h-48.76z" fill="#F39800"></path><path d="M731.43 731.43h48.76v48.76h-48.76z" fill="#FFF"></path><path d="M731.43 682.66h48.76v48.77h-48.76z m0-48.76h48.76v48.76h-48.76z m0-48.76h48.76v48.76h-48.76z m0-48.76h48.76v48.76h-48.76z" fill="#E60012"></path><path d="M731.43 487.62h48.76v48.76h-48.76z m0-146.29h48.76v48.77h-48.76z m0-48.76h48.76v48.76h-48.76z"></path><path d="M731.43 243.81h48.76v48.76h-48.76z" fill="#EC6941"></path><path d="M731.43 195.05h48.76v48.76h-48.76z m-48.77 780.19h48.77v48.76h-48.77z"></path><path d="M682.66 926.48h48.77v48.76h-48.77z" fill="#FFF100"></path><path d="M682.66 877.71h48.77v48.77h-48.77z m0-48.76h48.77v48.76h-48.77z m0-48.76h48.77v48.76h-48.77z m0-48.76h48.77v48.76h-48.77z" fill="#F39800"></path><path d="M682.66 682.66h48.77v48.77h-48.77z m0-48.76h48.77v48.76h-48.77z m0-48.76h48.77v48.76h-48.77z m0-48.76h48.77v48.76h-48.77z m0-48.76h48.77v48.76h-48.77z" fill="#E60012"></path><path d="M682.66 438.86h48.77v48.76h-48.77z m0-195.05h48.77v48.76h-48.77z m0-146.28h48.77v48.76h-48.77z m0-48.77h48.77v48.77h-48.77z m-48.76 926.48h48.76v48.76h-48.76z"></path><path d="M633.9 926.48h48.76v48.76h-48.76z m0-48.76h48.76v48.76h-48.76z m0-48.77h48.76v48.76h-48.76z" fill="#FFF100"></path><path d="M633.9 780.19h48.76v48.76h-48.76z" fill="#F39800"></path><path d="M633.9 731.43h48.76v48.76h-48.76z" fill="#E60012"></path><path d="M633.9 682.66h48.76v48.77h-48.76z m0-48.76h48.76v48.76h-48.76z m0-48.76h48.76v48.76h-48.76z" fill="#F39800"></path><path d="M633.9 536.38h48.76v48.76h-48.76z m0-48.76h48.76v48.76h-48.76z" fill="#E60012"></path><path d="M633.9 438.86h48.76v48.76h-48.76z m0-48.76h48.76v48.76h-48.76z m0-48.77h48.76v48.77h-48.76z m0-48.76h48.76v48.76h-48.76z m0-48.76h48.76v48.76h-48.76z m0-97.52h48.76v48.76h-48.76z"></path><path d="M633.9 97.53h48.76v48.76h-48.76z m0-48.77h48.76v48.77h-48.76z" fill="#EC6941"></path><path d="M633.9 0h48.76v48.76h-48.76z m-48.76 975.24h48.76v48.76h-48.76z"></path><path d="M585.14 926.48h48.76v48.76h-48.76z m0-48.76h48.76v48.76h-48.76z" fill="#FFF100"></path><path d="M585.14 828.95h48.76v48.76h-48.76z m0-48.76h48.76v48.76h-48.76z m0-48.76h48.76v48.76h-48.76z m0-48.77h48.76v48.77h-48.76z m0-48.76h48.76v48.76h-48.76z" fill="#F39800"></path><path d="M585.14 585.14h48.76v48.76h-48.76z m0-48.76h48.76v48.76h-48.76z m0-48.76h48.76v48.76h-48.76z m0-48.76h48.76v48.76h-48.76z m0-48.76h48.76v48.76h-48.76z m0-48.77h48.76v48.77h-48.76z m0-48.76h48.76v48.76h-48.76z m0-48.76h48.76v48.76h-48.76z" fill="#E60012"></path><path d="M585.14 195.05h48.76v48.76h-48.76z m0-97.53h48.76v48.76h-48.76z m0-48.76h48.76v48.76h-48.76z m-48.76 926.48h48.76v48.76h-48.76z"></path><path d="M536.38 926.48h48.76v48.76h-48.76z m0-48.76h48.76v48.76h-48.76z m0-48.77h48.76v48.76h-48.76z m0-48.76h48.76v48.76h-48.76z m0-48.76h48.76v48.76h-48.76z" fill="#FFF100"></path><path d="M536.38 682.66h48.76v48.77h-48.76z m0-48.76h48.76v48.76h-48.76z m0-48.76h48.76v48.76h-48.76z m0-48.76h48.76v48.76h-48.76z m0-48.76h48.76v48.76h-48.76z" fill="#F39800"></path><path d="M536.38 438.86h48.76v48.76h-48.76z m0-48.76h48.76v48.76h-48.76z m0-48.77h48.76v48.77h-48.76z m0-48.76h48.76v48.76h-48.76z m0-48.76h48.76v48.76h-48.76z m0-48.76h48.76v48.76h-48.76z" fill="#E60012"></path><path d="M536.38 146.29h48.76v48.76h-48.76z m-48.76 828.95h48.76v48.76h-48.76z"></path><path d="M487.62 926.48h48.76v48.76h-48.76z m0-48.76h48.76v48.76h-48.76z m0-48.77h48.76v48.76h-48.76z" fill="#FFF100"></path><path d="M487.62 780.19h48.76v48.76h-48.76z" fill="#FFF"></path><path d="M487.62 731.43h48.76v48.76h-48.76z m0-48.77h48.76v48.77h-48.76z m0-48.76h48.76v48.76h-48.76z" fill="#F39800"></path><path d="M487.62 585.14h48.76v48.76h-48.76z m0-48.76h48.76v48.76h-48.76z m0-48.76h48.76v48.76h-48.76z m0-48.76h48.76v48.76h-48.76z m0-48.76h48.76v48.76h-48.76z m0-48.77h48.76v48.77h-48.76z m0-48.76h48.76v48.76h-48.76z" fill="#E60012"></path><path d="M487.62 243.81h48.76v48.76h-48.76z m0-48.76h48.76v48.76h-48.76z m0-48.76h48.76v48.76h-48.76z"></path><path d="M487.62 97.53h48.76v48.76h-48.76z m-48.76 877.71h48.76v48.76h-48.76z"></path><path d="M438.86 926.48h48.76v48.76h-48.76z m0-48.76h48.76v48.76h-48.76z m0-48.77h48.76v48.76h-48.76z m0-48.76h48.76v48.76h-48.76z" fill="#FFF100"></path><path d="M438.86 731.43h48.76v48.76h-48.76z m0-48.77h48.76v48.77h-48.76z m0-48.76h48.76v48.76h-48.76z m0-48.76h48.76v48.76h-48.76z m0-48.76h48.76v48.76h-48.76z m0-48.76h48.76v48.76h-48.76z" fill="#F39800"></path><path d="M438.86 438.86h48.76v48.76h-48.76z m0-48.76h48.76v48.76h-48.76z m0-48.77h48.76v48.77h-48.76z m0-48.76h48.76v48.76h-48.76z m0-48.76h48.76v48.76h-48.76z" fill="#E60012"></path><path d="M438.86 195.05h48.76v48.76h-48.76z m-48.76 780.19h48.76v48.76h-48.76z"></path><path d="M390.1 926.48h48.76v48.76h-48.76z" fill="#FFF100"></path><path d="M390.1 877.71h48.76v48.77h-48.76z" fill="#F39800"></path><path d="M390.1 828.95h48.76v48.76h-48.76z" fill="#FFF100"></path><path d="M390.1 780.19h48.76v48.76h-48.76z" fill="#F39800"></path><path d="M390.1 731.43h48.76v48.76h-48.76z" fill="#FFF100"></path><path d="M390.1 682.66h48.76v48.77h-48.76z" fill="#F39800"></path><path d="M390.1 633.9h48.76v48.76h-48.76z m0-48.76h48.76v48.76h-48.76z m0-48.76h48.76v48.76h-48.76z m0-48.76h48.76v48.76h-48.76z m0-48.76h48.76v48.76h-48.76z m0-48.76h48.76v48.76h-48.76z" fill="#E60012"></path><path d="M390.1 341.33h48.76v48.77h-48.76z m0-48.76h48.76v48.76h-48.76z m0-48.76h48.76v48.76h-48.76z m0-48.76h48.76v48.76h-48.76z m-48.77 780.19h48.77v48.76h-48.77z"></path><path d="M341.33 926.48h48.77v48.76h-48.77z m0-48.76h48.77v48.76h-48.77z" fill="#FFF100"></path><path d="M341.33 828.95h48.77v48.76h-48.77z" fill="#F39800"></path><path d="M341.33 780.19h48.77v48.76h-48.77z" fill="#FFF100"></path><path d="M341.33 731.43h48.77v48.76h-48.77z m0-48.77h48.77v48.77h-48.77z" fill="#E60012"></path><path d="M341.33 633.9h48.77v48.76h-48.77z" fill="#F39800"></path><path d="M341.33 585.14h48.77v48.76h-48.77z m0-48.76h48.77v48.76h-48.77z m0-48.76h48.77v48.76h-48.77z m0-48.76h48.77v48.76h-48.77z m0-48.76h48.77v48.76h-48.77z m0-48.77h48.77v48.77h-48.77z" fill="#E60012"></path><path d="M341.33 292.57h48.77v48.76h-48.77z m-48.76 682.67h48.76v48.76h-48.76z"></path><path d="M292.57 926.48h48.76v48.76h-48.76z m0-48.76h48.76v48.76h-48.76z m0-48.77h48.76v48.76h-48.76z m0-48.76h48.76v48.76h-48.76z" fill="#F39800"></path><path d="M292.57 731.43h48.76v48.76h-48.76z m0-48.77h48.76v48.77h-48.76z m0-48.76h48.76v48.76h-48.76z m0-48.76h48.76v48.76h-48.76z" fill="#E60012"></path><path d="M292.57 536.38h48.76v48.76h-48.76z" fill="#FFF"></path><path d="M292.57 487.62h48.76v48.76h-48.76z" fill="#E60012"></path><path d="M292.57 438.86h48.76v48.76h-48.76z m0-48.76h48.76v48.76h-48.76z m0-48.77h48.76v48.77h-48.76z m0-97.52h48.76v48.76h-48.76z m0-48.76h48.76v48.76h-48.76z m-48.76 731.42h48.76v48.76h-48.76z"></path><path d="M243.81 877.71h48.76v48.77h-48.76z" fill="#F39800"></path><path d="M243.81 828.95h48.76v48.76h-48.76z" fill="#E60012"></path><path d="M243.81 780.19h48.76v48.76h-48.76z m0-48.76h48.76v48.76h-48.76z m0-48.77h48.76v48.77h-48.76z" fill="#F39800"></path><path d="M243.81 633.9h48.76v48.76h-48.76z m0-48.76h48.76v48.76h-48.76z m0-48.76h48.76v48.76h-48.76z" fill="#E60012"></path><path d="M243.81 487.62h48.76v48.76h-48.76z" fill="#FFF"></path><path d="M243.81 438.86h48.76v48.76h-48.76z m0-195.05h48.76v48.76h-48.76z"></path><path d="M243.81 195.05h48.76v48.76h-48.76z" fill="#EC6941"></path><path d="M243.81 146.29h48.76v48.76h-48.76z m-48.76 731.42h48.76v48.77h-48.76z"></path><path d="M195.05 828.95h48.76v48.76h-48.76z" fill="#F39800"></path><path d="M195.05 780.19h48.76v48.76h-48.76z m0-48.76h48.76v48.76h-48.76z m0-48.77h48.76v48.77h-48.76z m0-48.76h48.76v48.76h-48.76z m0-48.76h48.76v48.76h-48.76z" fill="#E60012"></path><path d="M195.05 536.38h48.76v48.76h-48.76z"></path><path d="M195.05 487.62h48.76v48.76h-48.76z m0-48.76h48.76v48.76h-48.76z" fill="#E60012"></path><path d="M195.05 390.1h48.76v48.76h-48.76z m0-195.05h48.76v48.76h-48.76z"></path><path d="M195.05 146.29h48.76v48.76h-48.76z" fill="#EC6941"></path><path d="M195.05 97.53h48.76v48.76h-48.76z m-48.76 731.42h48.76v48.76h-48.76z"></path><path d="M146.29 780.19h48.76v48.76h-48.76z m0-48.76h48.76v48.76h-48.76z m0-48.77h48.76v48.77h-48.76z" fill="#E60012"></path><path d="M146.29 633.9h48.76v48.76h-48.76z m0-48.76h48.76v48.76h-48.76z m0-97.52h48.76v48.76h-48.76z m0-48.76h48.76v48.76h-48.76z m0-48.76h48.76v48.76h-48.76z m0-243.81h48.76v48.76h-48.76z"></path><path d="M146.29 97.53h48.76v48.76h-48.76z m-48.76 682.66h48.76v48.76h-48.76z m0-48.76h48.76v48.76h-48.76z m0-48.77h48.76v48.77h-48.76z m0-243.8h48.76v48.76h-48.76z"></path><path d="M97.53 390.1h48.76v48.76h-48.76z" fill="#EC6941"></path><path d="M97.53 341.33h48.76v48.77h-48.76z m-48.77 97.53h48.77v48.76h-48.77z"></path><path d="M48.76 390.1h48.77v48.76h-48.77z m0-48.77h48.77v48.77h-48.77z" fill="#EC6941"></path><path d="M48.76 292.57h48.77v48.76h-48.77z m-48.76 97.53h48.76v48.76h-48.76z m0-48.77h48.76v48.77h-48.76z"></path></g></svg>