<svg xmlns="http://www.w3.org/2000/svg" width="64" height="64" viewBox="0 0 1024 1024"><g class="nc-icon-wrapper"><path d="M438.69 829.18h48.78v48.77h-48.78z m48.78 0h48.77v48.77h-48.77z m48.77 0h48.78v48.77h-48.78z m-48.77-48.78h48.77v48.78h-48.77z m-146.33-487.75h48.78v48.78h-48.78z m0 48.78h48.78v48.77h-48.78z m0 48.77h48.78v48.78h-48.78z m0-146.32h48.78v48.77h-48.78z m0-48.78h48.78v48.78h-48.78z" fill="#F3D52F"></path><path d="M438.69 390.2h48.78v48.78h-48.78z" fill="#FFF"></path><path d="M389.92 292.65h48.77v48.78h-48.77z" fill="#F3D52F"></path><path d="M389.92 243.88h48.77v48.77h-48.77z m0-48.78h48.77v48.78h-48.77z" fill="#FFF"></path><path d="M389.92 390.2h48.77v48.78h-48.77z m0-48.77h48.77v48.77h-48.77z m97.55-146.33h48.77v48.78h-48.77z" fill="#F3D52F"></path><path d="M438.69 195.1h48.78v48.78h-48.78z m0 146.33h48.78v48.77h-48.78z m0-48.78h48.78v48.78h-48.78z m0-48.77h48.78v48.77h-48.78z" fill="#FFF"></path><path d="M487.47 292.65h48.77v48.78h-48.77z m0 48.78h48.77v48.77h-48.77z" fill="#F3D52F"></path><path d="M487.47 390.2h48.77v48.78h-48.77z" fill="#FFF"></path><path d="M487.47 243.88h48.77v48.77h-48.77z m48.77 146.32h48.78v48.77h-48.78z m0-48.77h48.78v48.77h-48.78z m0-146.33h48.78v48.78h-48.78z m0 97.55h48.78v48.78h-48.78z m48.78 97.55h48.77v48.78h-48.77z m0-48.77h48.77v48.77h-48.77z m0-48.78h48.77v48.78h-48.77z m0-48.77h48.77v48.77h-48.77z m0-48.78h48.77v48.78h-48.77z m-48.78 48.78h48.78v48.77h-48.78z m-97.55 195.1h48.78v48.77h-48.78z m97.55 0h48.78v48.77h-48.78z" fill="#F3D52F"></path><path d="M487.47 438.98h48.77v48.77h-48.77z" fill="#FFF"></path><path d="M389.92 438.98h48.77v48.77h-48.77z m48.77 97.55h48.78v48.77h-48.78z m0-48.78h48.78v48.78h-48.78z m48.78 48.78h48.77v48.77h-48.77z m0-48.78h48.77v48.78h-48.77z m48.77 48.78h48.78v48.77h-48.78z" fill="#F3D52F"></path><path d="M536.25 487.75h48.77v48.78h-48.77z" fill="#FFF"></path><path d="M585.02 438.98h48.77v48.77h-48.77z m48.77-146.33h48.78v48.78h-48.78z m0-97.55h48.78v48.78h-48.78z m0 48.78h48.78v48.77h-48.78z m0 146.32h48.78v48.78h-48.78z m0-48.77h48.78v48.77h-48.78z" fill="#F3D52F"></path><path d="M389.92 877.95h48.77v48.78h-48.77z m195.1 0h48.77v48.78h-48.77z m-146.32 0h48.77v48.78h-48.77z m97.55 0h48.77v48.78h-48.77z m-48.78 0h48.78v48.78h-48.78z m146.32 0h48.78v48.78h-48.78z m0-48.77h48.78v48.77h-48.78z" fill="#D05417"></path><path d="M585.02 829.18h48.77v48.77h-48.77z" fill="#F3D52F"></path><path d="M585.02 780.4h48.77v48.78h-48.77z" fill="#D05417"></path><path d="M536.25 780.4h48.77v48.78h-48.77z" fill="#F3D52F"></path><path d="M536.25 731.63h48.77v48.77h-48.77z" fill="#D05417"></path><path d="M487.47 682.85h48.77v48.78h-48.77z" fill="#F4CC39"></path><path d="M487.47 634.08h48.77v48.77h-48.77z m146.32-195.1h48.78v48.77h-48.78z m-48.77 48.77h48.77v48.78h-48.77z m0 48.78h48.77v48.77h-48.77z m-48.77 48.77h48.77v48.78h-48.77z" fill="#D05417"></path><path d="M487.47 585.3h48.77v48.78h-48.77z" fill="#FFF"></path><path d="M438.69 585.3h48.78v48.78h-48.78z m-48.77-48.77h48.77v48.77h-48.77z m0-48.78h48.77v48.78h-48.77z m-48.78-48.77h48.78v48.77h-48.78z m292.66-292.65h48.77v48.77h-48.77z m-97.55 0h48.77v48.77h-48.77z m-48.78 0h48.78v48.77h-48.78z m97.55 0h48.78v48.77h-48.78z m-195.1 0h48.78v48.77h-48.78z m48.78 0h48.77v48.77h-48.77z m-97.55 0h48.77v48.77h-48.78z m341.42 146.32h48.77v48.77h-48.77z m0-48.77h48.77v48.77h-48.77z m0-48.78h48.77v48.78h-48.77z m0-48.78h48.77v48.78h-48.77z m-390.2 146.33h48.77v48.77h-48.77z m0-48.78h48.77v48.78h-48.77z m0-48.77h48.77v48.77h-48.77z m0-48.78h48.77v48.78h-48.77z m390.2 243.88h48.77v48.77h-48.77z m0-48.77h48.77v48.77h-48.77z" fill="#D05417"></path><path d="M243.59 243.88h48.78v48.77h-48.78z" fill="#FFF"></path><path d="M292.37 341.43h48.77v48.77h-48.77z m0 48.77h48.77v48.78h-48.77z" fill="#D05417"></path><path d="M243.59 341.43h48.78v48.77h-48.78z m0-48.78h48.78v48.78h-48.78z m-48.77 0h48.77v48.78h-48.77z m0-48.77h48.77v48.77h-48.77z m48.77-48.78h48.78v48.78h-48.78z m-48.77 0h48.77v48.78h-48.77z m536.52 146.33h48.78v48.77h-48.78z m48.78-48.78h48.78v48.78h-48.78z m-48.78 0h48.78v48.78h-48.78z m0-48.77h48.78v48.77h-48.78z m48.78 0h48.78v48.77h-48.78z m0-48.78h48.78v48.78h-48.78z m-48.78 0h48.78v48.78h-48.78z m-390.19 682.85h48.77v48.78h-48.78z m48.77-48.77h48.78v48.77h-48.78z m97.55-97.55h48.78v48.77h-48.78z m-48.77 48.77h48.77v48.78h-48.77z" fill="#FFF"></path><path d="M341.14 829.18h48.78v48.77h-48.78z m48.78-48.78h48.78v48.78h-48.78z m48.78-48.77h48.77v48.77h-48.77z m292.64-585.3h48.78v48.77h-48.78z m48.78-48.78h48.78v48.78h-48.78z" fill="#F4CC39"></path><path d="M731.35 97.55h48.77v48.77h-48.77z m48.77 48.77h48.78v48.78h-48.78z m48.78 0h48.77v48.78h-48.77z m0 146.33h48.77v48.78h-48.77z m0-48.77h48.77v48.77h-48.77z m0-48.78h48.77v48.78h-48.77z m-48.78 146.33h48.78v48.77h-48.78z m-48.78 48.77h48.78v48.78h-48.78z m-48.77 48.78h48.77v48.77h-48.77z m-48.78 48.77h48.78v48.78h-48.78z m0 48.78h48.78v48.77h-48.78z m-292.65 0h48.78v48.77h-48.78z m0-48.78h48.78v48.78h-48.78z m-48.77-48.77h48.77v48.77h-48.77z m-48.78-48.78h48.78v48.78h-48.78z m-48.77-48.77h48.77v48.77h-48.77z m-48.78-48.78h48.78v48.78h-48.78z m0-48.77h48.78v48.77h-48.78z m0-48.78h48.78v48.78h-48.78z m0-48.77h48.78v48.77h-48.78z m97.55-48.78h48.78v48.78h-48.78z m-48.77 0h48.77v48.78h-48.77z" fill="#F4CC39"></path><path d="M243.59 146.32h48.78v48.78h-48.78z m-48.77 0h48.77v48.78h-48.77z" fill="#F4CC39"></path><path d="M633.79 926.73h48.78v48.77h-48.78z m-48.77 0h48.77v48.77h-48.77z m-146.32 0h48.77v48.77h-48.77z m48.77 0h48.77v48.77h-48.77z m48.77 0h48.78v48.77h-48.78z m-195.09 0h48.77v48.77h-48.78z m48.77 0h48.78v48.77h-48.78z m-97.55-48.78h48.77v48.78h-48.77z m0-48.77h48.77v48.77h-48.77z m48.77-48.78h48.78v48.78h-48.78z m341.43 97.55h48.77v48.78h-48.77z m0-48.77h48.77v48.77h-48.77z m-48.77-48.78h48.77v48.78h-48.77z m-48.78-48.77h48.78v48.77h-48.78z m-195.1 0h48.77v48.77h-48.77z m146.32-48.78h48.78v48.78h-48.78z m-97.55 0h48.78v48.78h-48.78z m0-48.77h48.78v48.77h-48.78z m97.55 0h48.78v48.77h-48.78z m48.78-48.78h48.77v48.78h-48.77z m-195.1 0h48.77v48.78h-48.77z m-48.78 0h48.78v48.78h-48.78z m-48.77-48.77h48.77v48.77h-48.77z m0 48.77h48.77v48.78h-48.77z m0-97.55h48.77v48.78h-48.77z m-48.78-48.77h48.78v48.77h-48.78z m-48.77-48.78h48.77v48.78h-48.77z m-48.78-48.77h48.78v48.77h-48.78z m-48.77-97.55h48.77v48.77h-48.77z m0-48.78h48.77v48.78h-48.77z m0-97.55h48.77v48.77h-48.77z m0 195.1h48.77v48.78h-48.77z"></path><path d="M97.27 146.32h48.77v48.78h-48.77z m48.77-48.77h48.78v48.77h-48.78z m48.78-48.77h48.77v48.77h-48.77z m48.77 0h48.78v48.77h-48.78z m-97.55 0h48.78v48.77h-48.78z m487.75 536.52h48.78v48.78h-48.78z m48.78 0h48.77v48.78h-48.77z m0-48.77h48.77v48.77h-48.77z m0-48.78h48.77v48.78h-48.77z m48.77-48.77h48.78v48.77h-48.78z m48.78-48.78h48.78v48.78h-48.78z m48.78-48.77h48.77v48.77h-48.77z m48.77-48.78h48.78v48.78h-48.78z m0-48.77h48.78v48.77h-48.78z m0-48.78h48.78v48.78h-48.78z m0-48.77h48.78v48.77h-48.78z"></path><path d="M877.67 97.55h48.78v48.77h-48.78z m-48.77 0h48.77v48.77h-48.77z m0-48.77h48.77v48.77h-48.77z m-48.78 0h48.78v48.77h-48.78z m-48.77 0h48.77v48.77h-48.77z m-48.78 48.77h48.78v48.77h-48.78z m-48.77 0h48.77v48.77h-48.77z m-97.55 0h48.77v48.77h-48.77z m-48.78 0h48.78v48.77h-48.78z m97.55 0h48.78v48.77h-48.78z m-243.88 0h48.78v48.77h-48.78z m97.55 0h48.78v48.77h-48.77z m-48.77 0h48.78v48.77h-48.78z m-97.55 0h48.77v48.77h-48.77z"></path></g></svg>