<svg xmlns="http://www.w3.org/2000/svg" width="64" height="64" viewBox="0 0 1024 1024"><g class="nc-icon-wrapper"><path d="M924.99 292.57h48.53v48.76h-48.53z m0-48.76h48.53v48.76h-48.53z m0-48.76h48.53v48.76h-48.53z m-48.53 146.28h48.53v48.76h-48.53z"></path><path d="M876.46 292.57h48.53v48.76h-48.53z m0-48.76h48.53v48.76h-48.53z m0-48.76h48.53v48.76h-48.53z" fill="#5A6989"></path><path d="M876.46 146.28h48.53v48.77h-48.53z m-48.53 731.43h48.53v48.76h-48.53z"></path><path d="M827.93 828.95h48.53v48.76h-48.53z m0-48.76h48.53v48.76h-48.53z m0-48.76h48.53v48.76h-48.53z m0-48.77h48.53v48.77h-48.53z m0-48.76h48.53v48.76h-48.53z m0-48.76h48.53v48.76h-48.53z m0-48.76h48.53v48.76h-48.53z m0-48.76h48.53v48.76h-48.53z m0-48.77h48.53v48.77h-48.53z m0-48.76h48.53v48.76h-48.53z"></path><path d="M827.93 341.33h48.53v48.77h-48.53z m0-48.76h48.53v48.76h-48.53z m0-48.76h48.53v48.76h-48.53z" fill="#1D2033"></path><path d="M827.93 195.05h48.53v48.76h-48.53z" fill="#5A6989"></path><path d="M827.93 146.28h48.53v48.77h-48.53z m-48.52 780.2h48.52v48.76h-48.52z"></path><path d="M779.41 877.71h48.52v48.76h-48.52z" fill="#1D2033"></path><path d="M779.41 828.95h48.52v48.76h-48.52z" fill="#5A6989"></path><path d="M779.41 780.19h48.52v48.76h-48.52z" fill="#1D2033"></path><path d="M779.41 731.43h48.52v48.76h-48.52z" fill="#5A6989"></path><path d="M779.41 682.66h48.52v48.77h-48.52z" fill="#FFF"></path><path d="M779.41 633.9h48.52v48.76h-48.52z m0-48.76h48.52v48.76h-48.52z m0-48.76h48.52v48.76h-48.52z m0-48.76h48.52v48.76h-48.52z" fill="#5A6989"></path><path d="M779.41 438.85h48.52v48.77h-48.52z" fill="#1D2033"></path><path d="M779.41 390.1h48.52v48.76h-48.52z" fill="#5A6989"></path><path d="M779.41 341.33h48.52v48.77h-48.52z m0-48.76h48.52v48.76h-48.52z m0-48.76h48.52v48.76h-48.52z" fill="#1D2033"></path><path d="M779.41 195.05h48.52v48.76h-48.52z" fill="#5A6989"></path><path d="M779.41 146.28h48.52v48.77h-48.52z m-48.54 828.96h48.54v48.76h-48.54z"></path><path d="M730.87 926.47h48.54v48.77h-48.54z" fill="#C8D2DE"></path><path d="M730.87 877.71h48.54v48.76h-48.54z" fill="#1D2033"></path><path d="M730.87 828.95h48.54v48.76h-48.54z" fill="#C8D2DE"></path><path d="M730.87 780.19h48.54v48.76h-48.54z m0-48.76h48.54v48.76h-48.54z m0-48.77h48.54v48.77h-48.54z m0-48.76h48.54v48.76h-48.54z m0-48.76h48.54v48.76h-48.54z m0-48.76h48.54v48.76h-48.54z m0-48.76h48.54v48.76h-48.54z m0-48.77h48.54v48.77h-48.54z" fill="#1D2033"></path><path d="M730.87 390.1h48.54v48.76h-48.54z" fill="#5A6989"></path><path d="M730.87 341.33h48.54v48.77h-48.54z" fill="#1D2033"></path><path d="M730.87 292.57h48.54v48.76h-48.54z m0-48.76h48.54v48.76h-48.54z" fill="#5A6989"></path><path d="M730.87 195.05h48.54v48.76h-48.54z" fill="#FFF"></path><path d="M730.87 146.28h48.54v48.77h-48.54z m-48.52 828.96h48.52v48.76h-48.52z"></path><path d="M682.35 926.47h48.52v48.77h-48.52z m0-48.76h48.52v48.76h-48.52z" fill="#1D2033"></path><path d="M682.35 828.95h48.52v48.76h-48.52z" fill="#FFF"></path><path d="M682.35 780.19h48.52v48.76h-48.52z m0-48.76h48.52v48.76h-48.52z m0-48.77h48.52v48.77h-48.52z m0-48.76h48.52v48.76h-48.52z m0-48.76h48.52v48.76h-48.52z m0-48.76h48.52v48.76h-48.52z m0-48.76h48.52v48.76h-48.52z m0-48.77h48.52v48.77h-48.52z m0-48.76h48.52v48.76h-48.52z" fill="#5A6989"></path><path d="M682.35 341.33h48.52v48.77h-48.52z" fill="#1D2033"></path><path d="M682.35 292.57h48.52v48.76h-48.52z m0-48.76h48.52v48.76h-48.52z m0-48.76h48.52v48.76h-48.52z" fill="#FFF"></path><path d="M682.35 146.28h48.52v48.77h-48.52z m-48.53 828.96h48.53v48.76h-48.53z"></path><path d="M633.82 926.47h48.52v48.77h-48.52z" fill="#C8D2DE"></path><path d="M633.82 877.71h48.52v48.76h-48.52z" fill="#1D2033"></path><path d="M633.82 828.95h48.52v48.76h-48.52z" fill="#FFF"></path><path d="M633.82 780.19h48.52v48.76h-48.52z m0-48.76h48.52v48.76h-48.52z m0-48.77h48.52v48.77h-48.52z m0-48.76h48.52v48.76h-48.52z m0-48.76h48.52v48.76h-48.52z m0-48.76h48.52v48.76h-48.52z m0-48.76h48.52v48.76h-48.52z m0-48.77h48.52v48.77h-48.52z" fill="#1D2033"></path><path d="M633.82 390.1h48.52v48.76h-48.52z" fill="#5A6989"></path><path d="M633.82 341.33h48.52v48.77h-48.52z" fill="#1D2033"></path><path d="M633.82 292.57h48.52v48.76h-48.52z m0-48.76h48.52v48.76h-48.52z" fill="#C8D2DE"></path><path d="M633.82 195.05h48.52v48.76h-48.52z" fill="#FFF"></path><path d="M633.82 146.28h48.52v48.77h-48.52z m0-48.76h48.52v48.76h-48.52z m0-48.76h48.52v48.76h-48.52z m-48.53 926.48h48.53v48.76h-48.53z"></path><path d="M585.29 926.47h48.53v48.77h-48.53z" fill="#5A6989"></path><path d="M585.29 877.71h48.53v48.76h-48.53z" fill="#1D2033"></path><path d="M585.29 828.95h48.53v48.76h-48.53z" fill="#C8D2DE"></path><path d="M585.29 780.19h48.53v48.76h-48.53z" fill="#1D2033"></path><path d="M585.29 731.43h48.53v48.76h-48.53z" fill="#5A6989"></path><path d="M585.29 682.66h48.53v48.77h-48.53z m0-48.76h48.53v48.76h-48.53z" fill="#FFF"></path><path d="M585.29 585.14h48.53v48.76h-48.53z m0-48.76h48.53v48.76h-48.53z m0-48.76h48.53v48.76h-48.53z" fill="#5A6989"></path><path d="M585.29 438.85h48.53v48.77h-48.53z" fill="#1D2033"></path><path d="M585.29 390.1h48.53v48.76h-48.53z" fill="#5A6989"></path><path d="M585.29 341.33h48.53v48.77h-48.53z" fill="#1D2033"></path><path d="M585.29 292.57h48.53v48.76h-48.53z m0-48.76h48.53v48.76h-48.53z" fill="#5A6989"></path><path d="M585.29 195.05h48.53v48.76h-48.53z" fill="#C8D2DE"></path><path d="M585.29 146.28h48.53v48.77h-48.53z m0-48.76h48.53v48.76h-48.53z m0-48.76h48.53v48.76h-48.53z" fill="#3A4266"></path><path d="M585.29 0h48.53v48.76h-48.53z m-48.53 975.24h48.53v48.76h-48.53z"></path><path d="M536.76 926.47h48.53v48.77h-48.53z" fill="#5A6989"></path><path d="M536.76 877.71h48.53v48.76h-48.53z" fill="#1D2033"></path><path d="M536.76 828.95h48.53v48.76h-48.53z" fill="#5A6989"></path><path d="M536.76 780.19h48.53v48.76h-48.53z" fill="#1D2033"></path><path d="M536.76 731.43h48.53v48.76h-48.53z m0-48.77h48.53v48.77h-48.53z m0-48.76h48.53v48.76h-48.53z m0-48.76h48.53v48.76h-48.53z m0-48.76h48.53v48.76h-48.53z m0-48.76h48.53v48.76h-48.53z" fill="#5A6989"></path><path d="M536.76 438.85h48.53v48.77h-48.53z" fill="#1D2033"></path><path d="M536.76 390.1h48.53v48.76h-48.53z" fill="#5A6989"></path><path d="M536.76 341.33h48.53v48.77h-48.53z" fill="#1D2033"></path><path d="M536.76 292.57h48.53v48.76h-48.53z m0-48.76h48.53v48.76h-48.53z" fill="#3A4266"></path><path d="M536.76 195.05h48.53v48.76h-48.53z" fill="#5A6989"></path><path d="M536.76 146.28h48.53v48.77h-48.53z"></path><path d="M536.76 97.52h48.53v48.77h-48.53z" fill="#1D2033"></path><path d="M536.76 48.76h48.53v48.76h-48.53z" fill="#3A4266"></path><path d="M536.76 0h48.53v48.76h-48.53z m-48.53 975.24h48.53v48.76h-48.53z"></path><path d="M488.23 926.47h48.53v48.77h-48.53z m0-48.76h48.53v48.76h-48.53z" fill="#1D2033"></path><path d="M488.23 828.95h48.53v48.76h-48.53z" fill="#5A6989"></path><path d="M488.23 780.19h48.53v48.76h-48.53z m0-48.76h48.53v48.76h-48.53z m0-48.77h48.53v48.77h-48.53z m0-48.76h48.53v48.76h-48.53z m0-48.76h48.53v48.76h-48.53z m0-48.76h48.53v48.76h-48.53z m0-48.76h48.53v48.76h-48.53z m0-48.77h48.53v48.77h-48.53z" fill="#1D2033"></path><path d="M488.23 390.1h48.53v48.76h-48.53z" fill="#5A6989"></path><path d="M488.23 341.33h48.53v48.77h-48.53z" fill="#1D2033"></path><path d="M488.23 292.57h48.53v48.76h-48.53z m0-48.76h48.53v48.76h-48.53z" fill="#3A4266"></path><path d="M488.23 195.05h48.53v48.76h-48.53z" fill="#5A6989"></path><path d="M488.23 146.28h48.53v48.77h-48.53z"></path><path d="M488.23 97.52h48.53v48.77h-48.53z" fill="#1D2033"></path><path d="M488.23 48.76h48.53v48.76h-48.53z" fill="#3A4266"></path><path d="M488.23 0h48.53v48.76h-48.53z m-48.53 975.24h48.53v48.76h-48.53z"></path><path d="M439.7 926.47h48.53v48.77h-48.53z m0-48.76h48.53v48.76h-48.53z" fill="#1D2033"></path><path d="M439.7 828.95h48.53v48.76h-48.53z m0-48.76h48.53v48.76h-48.53z m0-48.76h48.53v48.76h-48.53z m0-48.77h48.53v48.77h-48.53z m0-48.76h48.53v48.76h-48.53z m0-48.76h48.53v48.76h-48.53z m0-48.76h48.53v48.76h-48.53z m0-48.76h48.53v48.76h-48.53z m0-48.77h48.53v48.77h-48.53z" fill="#5A6989"></path><path d="M439.7 390.1h48.53v48.76h-48.53z" fill="#3A4266"></path><path d="M439.7 341.33h48.53v48.77h-48.53z" fill="#1D2033"></path><path d="M439.7 292.57h48.53v48.76h-48.53z m0-48.76h48.53v48.76h-48.53z m0-48.76h48.53v48.76h-48.53z" fill="#3A4266"></path><path d="M439.7 146.28h48.53v48.77h-48.53z" fill="#1D2033"></path><path d="M439.7 97.52h48.53v48.77h-48.53z m0-48.76h48.53v48.76h-48.53z" fill="#FFF"></path><path d="M439.7 0h48.53v48.76h-48.53z m-48.53 975.24h48.53v48.76h-48.53z"></path><path d="M391.17 926.47h48.53v48.77h-48.53z m0-48.76h48.53v48.76h-48.53z" fill="#1D2033"></path><path d="M391.17 828.95h48.53v48.76h-48.53z" fill="#5A6989"></path><path d="M391.17 780.19h48.53v48.76h-48.53z m0-48.76h48.53v48.76h-48.53z" fill="#1D2033"></path><path d="M391.17 682.66h48.53v48.77h-48.53z" fill="#C8D2DE"></path><path d="M391.17 633.9h48.53v48.76h-48.53z m0-48.76h48.53v48.76h-48.53z m0-48.76h48.53v48.76h-48.53z m0-48.76h48.53v48.76h-48.53z m0-48.77h48.53v48.77h-48.53z" fill="#1D2033"></path><path d="M391.17 390.1h48.53v48.76h-48.53z" fill="#3A4266"></path><path d="M391.17 341.33h48.53v48.77h-48.53z" fill="#1D2033"></path><path d="M391.17 292.57h48.53v48.76h-48.53z m0-48.76h48.53v48.76h-48.53z m0-48.76h48.53v48.76h-48.53z" fill="#3A4266"></path><path d="M391.17 146.28h48.53v48.77h-48.53z m0-48.76h48.53v48.76h-48.53z" fill="#3A4266"></path><path d="M391.17 48.76h48.53v48.76h-48.53z" fill="#FFF"></path><path d="M391.17 0h48.53v48.76h-48.53z m-48.53 975.24h48.53v48.76h-48.53z"></path><path d="M342.64 926.47h48.53v48.77h-48.53z m0-48.76h48.53v48.76h-48.53z" fill="#1D2033"></path><path d="M342.64 828.95h48.53v48.76h-48.53z" fill="#5A6989"></path><path d="M342.64 780.19h48.53v48.76h-48.53z m0-48.76h48.53v48.76h-48.53z m0-48.77h48.53v48.77h-48.53z m0-48.76h48.53v48.76h-48.53z m0-48.76h48.53v48.76h-48.53z m0-48.76h48.53v48.76h-48.53z m0-48.76h48.53v48.76h-48.53z m0-48.77h48.53v48.77h-48.53z" fill="#1D2033"></path><path d="M342.64 390.1h48.53v48.76h-48.53z" fill="#3A4266"></path><path d="M342.64 341.33h48.53v48.77h-48.53z m0-48.76h48.53v48.76h-48.53z m0-48.76h48.53v48.76h-48.53z" fill="#1D2033"></path><path d="M342.64 146.28h48.53v48.77h-48.53z m0-48.76h48.53v48.76h-48.53z m0-48.76h48.53v48.76h-48.53z m-48.53 926.48h48.53v48.76h-48.53z"></path><path d="M294.11 926.47h48.53v48.77h-48.53z" fill="#5A6989"></path><path d="M294.11 877.71h48.53v48.76h-48.53z" fill="#1D2033"></path><path d="M294.11 828.95h48.53v48.76h-48.53z m0-48.76h48.53v48.76h-48.53z m0-48.76h48.53v48.76h-48.53z m0-48.77h48.53v48.77h-48.53z m0-48.76h48.53v48.76h-48.53z m0-48.76h48.53v48.76h-48.53z m0-48.76h48.53v48.76h-48.53z m0-48.76h48.53v48.76h-48.53z m0-48.77h48.53v48.77h-48.53z" fill="#5A6989"></path><path d="M294.11 390.1h48.53v48.76h-48.53z" fill="#3A4266"></path><path d="M294.11 341.33h48.53v48.77h-48.53z m0-48.76h48.53v48.76h-48.53z m0-48.76h48.53v48.76h-48.53z m0-48.76h48.53v48.76h-48.53z" fill="#1D2033"></path><path d="M294.11 146.28h48.53v48.77h-48.53z m-48.53 828.96h48.53v48.76h-48.53z"></path><path d="M245.58 926.47h48.53v48.77h-48.53z" fill="#5A6989"></path><path d="M245.58 877.71h48.53v48.76h-48.53z" fill="#1D2033"></path><path d="M245.58 828.95h48.53v48.76h-48.53z" fill="#5A6989"></path><path d="M245.58 780.19h48.53v48.76h-48.53z m0-48.76h48.53v48.76h-48.53z m0-48.77h48.53v48.77h-48.53z m0-48.76h48.53v48.76h-48.53z m0-48.76h48.53v48.76h-48.53z m0-48.76h48.53v48.76h-48.53z m0-48.76h48.53v48.76h-48.53z m0-48.77h48.53v48.77h-48.53z" fill="#1D2033"></path><path d="M245.58 390.1h48.53v48.76h-48.53z" fill="#3A4266"></path><path d="M245.58 341.33h48.53v48.77h-48.53z m0-48.76h48.53v48.76h-48.53z m0-48.76h48.53v48.76h-48.53z m0-48.76h48.53v48.76h-48.53z" fill="#1D2033"></path><path d="M245.58 146.28h48.53v48.77h-48.53z m-48.53 780.2h48.53v48.76h-48.53z"></path><path d="M197.05 877.71h48.53v48.76h-48.53z" fill="#1D2033"></path><path d="M197.05 828.95h48.53v48.76h-48.53z" fill="#1D2033"></path><path d="M197.05 780.19h48.53v48.76h-48.53z m0-48.76h48.53v48.76h-48.53z m0-48.77h48.53v48.77h-48.53z m0-48.76h48.53v48.76h-48.53z m0-48.76h48.53v48.76h-48.53z m0-48.76h48.53v48.76h-48.53z m0-48.76h48.53v48.76h-48.53z" fill="#C8D2DE"></path><path d="M197.05 438.85h48.53v48.77h-48.53z m0-48.76h48.53v48.76h-48.53z m0-48.76h48.53v48.76h-48.53z m0-48.76h48.53v48.76h-48.53z m0-48.76h48.53v48.76h-48.53z" fill="#1D2033"></path><path d="M197.05 195.05h48.53v48.76h-48.53z" fill="#525F7F"></path><path d="M197.05 146.28h48.53v48.77h-48.53z m-48.53 731.43h48.53v48.76h-48.53z"></path><path d="M148.52 828.95h48.53v48.76h-48.53z m0-48.76h48.53v48.76h-48.53z m0-48.76h48.53v48.76h-48.53z m0-48.77h48.53v48.77h-48.53z m0-48.76h48.53v48.76h-48.53z m0-48.76h48.53v48.76h-48.53z m0-48.76h48.53v48.76h-48.53z m0-48.76h48.53v48.76h-48.53z m0-48.77h48.53v48.77h-48.53z m0-48.76h48.53v48.76h-48.53z"></path><path d="M148.52 341.33h48.53v48.77h-48.53z" fill="#1D2033"></path><path d="M148.52 292.57h48.53v48.76h-48.53z m0-48.76h48.53v48.76h-48.53z m0-48.76h48.53v48.76h-48.53z" fill="#5A6989"></path><path d="M148.52 146.28h48.53v48.77h-48.53z m-48.52 195.05h48.52v48.76h-48.52z m0-48.76h48.52v48.76h-48.52z"></path><path d="M100 243.81h48.52v48.76h-48.52z" fill="#5A6989"></path><path d="M100 195.05h48.52v48.76h-48.52z m-48.54 97.52h48.54v48.76h-48.54z m0-48.76h48.54v48.76h-48.54z m0-48.76h48.54v48.76h-48.54z"></path></g></svg>