<svg xmlns="http://www.w3.org/2000/svg" width="64" height="64" viewBox="0 0 1024 1024"><g class="nc-icon-wrapper"><path d="M146.29 633.9h48.76v48.76h-48.76z m0 97.53h48.76v48.76h-48.76z m48.76 48.76h48.76v48.76h-48.76z m146.28 0h48.77v48.76h-48.77z m-48.76-48.76h48.76v48.76h-48.76z m48.76 0h48.77v48.76h-48.77z m243.81 48.76h48.76v48.76h-48.76z m0-97.53h48.76v48.77h-48.76z m48.76 48.77h48.76v48.76h-48.76z m97.53 0h48.76v48.76h-48.76z m48.76-97.53h48.76v48.76h-48.76z m-48.76-48.76h48.76v48.76h-48.76z m0 48.76h48.76v48.76h-48.76z m-146.29-97.52h48.76v48.76h-48.76z m97.52-48.76h48.77v48.76h-48.77z m0 48.76h48.77v48.76h-48.77z m-97.52-146.28h48.76v48.76h-48.76z m97.52-97.53h48.77v48.76h-48.77z" fill="#F2D23E"></path><path d="M633.9 292.57h48.76v48.76h-48.76z" fill="#D4851F"></path><path d="M292.57 292.57h48.76v48.76h-48.76z m48.76-97.52h48.77v48.76h-48.77z" fill="#F2D23E"></path><path d="M438.86 536.38h48.76v48.76h-48.76z" fill="#D4851F"></path><path d="M390.1 633.9h48.76v48.76h-48.76z m48.76 0h48.76v48.76h-48.76z" fill="#F2D23E"></path><path d="M341.33 633.9h48.77v48.76h-48.77z" fill="#D4851F"></path><path d="M536.38 633.9h48.76v48.76h-48.76z" fill="#F2D23E"></path><path d="M487.62 585.14h48.76v48.76h-48.76z" fill="#D4851F"></path><path d="M487.62 633.9h48.76v48.76h-48.76z m243.81 146.29h48.76v48.76h-48.76z m-48.77 0h48.77v48.76h-48.77z m-48.76 0h48.76v48.76h-48.76z m-97.52-48.76h48.76v48.76h-48.76z m48.76 0h48.76v48.76h-48.76z m-195.04 0h48.76v48.76h-48.76z m97.52 0h48.76v48.76h-48.76z m-48.76 0h48.76v48.76h-48.76z m-243.82-146.29h48.77v48.76h-48.77z m-48.76 97.52h48.76v48.77h-48.76z" fill="#F2D23E"></path><path d="M195.05 731.43h48.76v48.76h-48.76z" fill="#D4851F"></path><path d="M292.57 780.19h48.76v48.76h-48.76z m-48.76 0h48.76v48.76h-48.76z" fill="#F2D23E"></path><path d="M195.05 682.66h48.76v48.77h-48.76z" fill="#D4851F"></path><path d="M195.05 633.9h48.76v48.76h-48.76z m341.33 48.76h48.76v48.77h-48.76z" fill="#F2D23E"></path><path d="M487.62 682.66h48.76v48.77h-48.76z m-97.52 0h48.76v48.77h-48.76z" fill="#D4851F"></path><path d="M438.86 682.66h48.76v48.77h-48.76z" fill="#F2D23E"></path><path d="M341.33 682.66h48.77v48.77h-48.77z" fill="#D4851F"></path><path d="M780.19 731.43h48.76v48.76h-48.76z m0-48.77h48.76v48.77h-48.76z m-97.53-97.52h48.77v48.76h-48.77z m0 48.76h48.77v48.76h-48.77z" fill="#F2D23E"></path><path d="M731.43 682.66h48.76v48.77h-48.76z" fill="#D4851F"></path><path d="M633.9 536.38h48.76v48.76h-48.76z" fill="#F2D23E"></path><path d="M633.9 585.14h48.76v48.76h-48.76z" fill="#D4851F"></path><path d="M682.66 341.33h48.77v48.77h-48.77z m-48.76-97.52h48.76v48.76h-48.76z m0-48.76h48.76v48.76h-48.76z m-48.76 0h48.76v48.76h-48.76z m-48.76 0h48.76v48.76h-48.76z m-48.76 0h48.76v48.76h-48.76z m-48.76 0h48.76v48.76h-48.76z m-48.76 0h48.76v48.76h-48.76z" fill="#F2D23E"></path><path d="M585.14 243.81h48.76v48.76h-48.76z m-48.76 0h48.76v48.76h-48.76z m-48.76 0h48.76v48.76h-48.76z" fill="#D4851F"></path><path d="M438.86 243.81h48.76v48.76h-48.76z m-48.76 0h48.76v48.76h-48.76z m0 195.05h48.76v48.76h-48.76z m-97.53-48.76h48.76v48.76h-48.76z m0 292.56h48.76v48.77h-48.76z m-48.76 0h48.76v48.77h-48.76z m0-146.28h48.76v48.76h-48.76z" fill="#F2D23E"></path><path d="M243.81 731.43h48.76v48.76h-48.76z" fill="#D4851F"></path><path d="M341.33 585.14h48.77v48.76h-48.77z m-48.76-243.81h48.76v48.77h-48.76z" fill="#F2D23E"></path><path d="M292.57 438.86h48.76v48.76h-48.76z" fill="#D4851F"></path><path d="M341.33 536.38h48.77v48.76h-48.77z" fill="#F2D23E"></path><path d="M292.57 585.14h48.76v48.76h-48.76z" fill="#D4851F"></path><path d="M292.57 536.38h48.76v48.76h-48.76z" fill="#FFF"></path><path d="M243.81 585.14h48.76v48.76h-48.76z m0 48.76h48.76v48.76h-48.76z" fill="#F2D23E"></path><path d="M292.57 633.9h48.76v48.76h-48.76z" fill="#D4851F"></path><path d="M438.86 585.14h48.76v48.76h-48.76z m-48.76 0h48.76v48.76h-48.76z" fill="#F2D23E"></path><path d="M390.1 536.38h48.76v48.76h-48.76z" fill="#D4851F"></path><path d="M341.33 390.1h48.77v48.76h-48.77z m0-48.77h48.77v48.77h-48.77z m0 97.53h48.77v48.76h-48.77z" fill="#F2D23E"></path><path d="M682.66 682.66h48.77v48.77h-48.77z" fill="#D4851F"></path><path d="M682.66 731.43h48.77v48.76h-48.77z" fill="#FFF"></path><path d="M536.38 585.14h48.76v48.76h-48.76z" fill="#D4851F"></path><path d="M585.14 585.14h48.76v48.76h-48.76z m0 48.76h48.76v48.76h-48.76z m48.76 0h48.76v48.76h-48.76z m-97.52-97.52h48.76v48.76h-48.76z" fill="#F2D23E"></path><path d="M633.9 682.66h48.76v48.77h-48.76z" fill="#D4851F"></path><path d="M438.86 438.86h48.76v48.76h-48.76z m-48.76-48.76h48.76v48.76h-48.76z m97.52 48.76h48.76v48.76h-48.76z" fill="#F2D23E"></path><path d="M487.62 536.38h48.76v48.76h-48.76z" fill="#D4851F"></path><path d="M292.57 243.81h48.76v48.76h-48.76z" fill="#F2D23E"></path><path d="M341.33 243.81h48.77v48.76h-48.77z" fill="#FFF"></path><path d="M292.57 195.05h48.76v48.76h-48.76z m97.53 146.28h48.76v48.77h-48.76z m292.56 97.53h48.77v48.76h-48.77z m0-48.76h48.77v48.76h-48.77z m-97.52 97.52h48.76v48.76h-48.76z" fill="#F2D23E"></path><path d="M633.9 341.33h48.76v48.77h-48.76z" fill="#D4851F"></path><path d="M536.38 438.86h48.76v48.76h-48.76z m97.52 0h48.76v48.76h-48.76z" fill="#F2D23E"></path><path d="M633.9 390.1h48.76v48.76h-48.76z" fill="#D4851F"></path><path d="M585.14 438.86h48.76v48.76h-48.76z m48.76 48.76h48.76v48.76h-48.76z m-97.52 0h48.76v48.76h-48.76z m48.76-146.29h48.76v48.77h-48.76z" fill="#F2D23E"></path><path d="M585.14 292.57h48.76v48.76h-48.76z" fill="#D4851F"></path><path d="M536.38 292.57h48.76v48.76h-48.76z m-97.52 48.76h48.76v48.77h-48.76z m48.76-48.76h48.76v48.76h-48.76z m-48.76 195.05h48.76v48.76h-48.76z m97.52-97.52h48.76v48.76h-48.76z m-48.76 97.52h48.76v48.76h-48.76z m0-97.52h48.76v48.76h-48.76z m0-48.77h48.76v48.77h-48.76z" fill="#F2D23E"></path><path d="M390.1 487.62h48.76v48.76h-48.76z" fill="#D4851F"></path><path d="M438.86 292.57h48.76v48.76h-48.76z m0 97.53h48.76v48.76h-48.76z m97.52-48.77h48.76v48.77h-48.76z m-146.28-48.76h48.76v48.76h-48.76z m-48.77 0h48.77v48.76h-48.77z m-48.76 195.05h48.76v48.76h-48.76z m-48.76-97.52h48.76v48.76h-48.76z" fill="#F2D23E"></path><path d="M243.81 487.62h48.76v48.76h-48.76z" fill="#FFF"></path><path d="M243.81 438.86h48.76v48.76h-48.76z m0-97.53h48.76v48.77h-48.76z" fill="#F2D23E"></path><path d="M341.33 487.62h48.77v48.76h-48.77z" fill="#D4851F"></path><path d="M243.81 292.57h48.76v48.76h-48.76z" fill="#F2D23E"></path><path d="M438.86 877.71h48.76v48.77h-48.76z m48.76 0h48.76v48.77h-48.76z m48.76-48.76h48.76v48.76h-48.76z m-97.52 0h48.76v48.76h-48.76z m-48.76 0h48.76v48.76h-48.76z m97.52 0h48.76v48.76h-48.76z" fill="#D4851F"></path><path d="M536.38 780.19h48.76v48.76h-48.76z m-48.76 0h48.76v48.76h-48.76z m-97.52 0h48.76v48.76h-48.76z m48.76 0h48.76v48.76h-48.76z m97.52 97.52h48.76v48.77h-48.76z m292.57-97.52h48.76v48.76h-48.76z m0-48.76h48.76v48.76h-48.76z m0-48.77h48.76v48.77h-48.76z m0-48.75h48.76v48.76h-48.76z m-48.76 146.28h48.76v48.76h-48.76z m0-195.05h48.76v48.76h-48.76z m-48.76 243.81h48.76v48.76h-48.76z m0-292.57h48.76v48.76h-48.76z m0-48.76h48.76v48.76h-48.76z m0-48.76h48.76v48.76h-48.76z m0-48.76h48.76v48.76h-48.76z m0-48.77h48.76v48.77h-48.76z m0-48.76h48.76v48.76h-48.76z m0-48.76h48.76v48.76h-48.76z m-48.77 585.14h48.77v48.76h-48.77z m0-585.14h48.77v48.76h-48.77z m0-48.76h48.77v48.76h-48.77z m-48.76 633.9h48.76v48.76h-48.76z m0-682.66h48.76v48.76h-48.76z m-48.76 682.66h48.76v48.76h-48.76z m0-682.66h48.76v48.76h-48.76z m-48.76 0h48.76v48.76h-48.76z"></path><path d="M536.38 97.53h48.76v48.76h-48.76z m-48.76 828.95h48.76v48.76h-48.76z m0-780.2h48.76v48.77h-48.76z"></path><path d="M487.62 97.53h48.76v48.76h-48.76z" fill="#EAB45F"></path><path d="M487.62 48.76h48.76v48.77h-48.76z m-48.76 877.72h48.76v48.76h-48.76z m0-780.2h48.76v48.77h-48.76z"></path><path d="M438.86 97.53h48.76v48.76h-48.76z" fill="#EAB45F"></path><path d="M438.86 48.76h48.76v48.77h-48.76z m-48.76 828.95h48.76v48.76h-48.76z m0-731.42h48.76v48.76h-48.76z"></path><path d="M390.1 97.53h48.76v48.76h-48.76z m-48.77 731.42h48.77v48.76h-48.77z m0-682.66h48.77v48.76h-48.77z m-48.76 682.66h48.76v48.76h-48.76z m0-682.66h48.76v48.76h-48.76z m-48.76 682.66h48.76v48.76h-48.76z m0-585.14h48.76v48.76h-48.76z m0-48.76h48.76v48.76h-48.76z m-48.76 633.9h48.76v48.76h-48.76z m0-292.57h48.76v48.76h-48.76z m0-48.76h48.76v48.76h-48.76z m0-48.76h48.76v48.76h-48.76z m0-48.76h48.76v48.76h-48.76z m0-48.77h48.76v48.77h-48.76z m0-48.76h48.76v48.76h-48.76z m0-48.76h48.76v48.76h-48.76z m-48.76 536.38h48.76v48.76h-48.76z m0-195.05h48.76v48.76h-48.76z m-48.77 146.29h48.76v48.76h-48.76z m0-48.77h48.76v48.77h-48.76z m0-48.76h48.76v48.76h-48.76z"></path></g></svg>