<svg xmlns="http://www.w3.org/2000/svg" width="64" height="64" viewBox="0 0 1024 1024"><g class="nc-icon-wrapper"><path d="M828.95 487.62h48.76v48.76h-48.76z m0-390.1h48.76v48.76h-48.76z m-48.76 438.86h48.76v48.76h-48.76z" fill="#09111F"></path><path d="M780.19 487.62h48.76v48.76h-48.76z" fill="#FEAE32"></path><path d="M780.19 438.86h48.76v48.76h-48.76z m0-292.57h48.76v48.76h-48.76z" fill="#09111F"></path><path d="M780.19 97.53h48.76v48.76h-48.76z" fill="#FEAE32"></path><path d="M780.19 48.76h48.76v48.77h-48.76z m-48.76 536.38h48.76v48.76h-48.76z" fill="#09111F"></path><path d="M731.43 536.38h48.76v48.76h-48.76z m0-48.76h48.76v48.76h-48.76z" fill="#FEAE32"></path><path d="M731.43 438.86h48.76v48.76h-48.76z m0-243.81h48.76v48.76h-48.76z" fill="#09111F"></path><path d="M731.43 146.29h48.76v48.76h-48.76z" fill="#FEAE32"></path><path d="M731.43 97.53h48.76v48.76h-48.76z" fill="#FEAE32"></path><path d="M731.43 48.76h48.76v48.77h-48.76z m-48.77 585.14h48.77v48.76h-48.77z" fill="#09111F"></path><path d="M682.66 585.14h48.77v48.76h-48.77z m0-48.76h48.77v48.76h-48.77z m0-48.76h48.77v48.76h-48.77z" fill="#FEAE32"></path><path d="M682.66 438.86h48.77v48.76h-48.77z m0-195.05h48.77v48.76h-48.77z" fill="#09111F"></path><path d="M682.66 195.05h48.77v48.76h-48.77z m0-48.76h48.77v48.76h-48.77z" fill="#FEAE32"></path><path d="M682.66 97.53h48.77v48.76h-48.77z" fill="#FEAE32"></path><path d="M682.66 48.76h48.77v48.77h-48.77z m-48.76 585.14h48.76v48.76h-48.76z" fill="#09111F"></path><path d="M633.9 585.14h48.76v48.76h-48.76z m0-48.76h48.76v48.76h-48.76z m0-48.76h48.76v48.76h-48.76z" fill="#FEAE32"></path><path d="M633.9 438.86h48.76v48.76h-48.76z m0-146.29h48.76v48.76h-48.76z" fill="#09111F"></path><path d="M633.9 243.81h48.76v48.76h-48.76z m0-48.76h48.76v48.76h-48.76z m0-48.76h48.76v48.76h-48.76z" fill="#FEAE32"></path><path d="M633.9 97.53h48.76v48.76h-48.76z" fill="#FEAE32"></path><path d="M633.9 48.76h48.76v48.77h-48.76z m-48.76 633.9h48.76v48.77h-48.76z" fill="#09111F"></path><path d="M585.14 633.9h48.76v48.76h-48.76z m0-48.76h48.76v48.76h-48.76z" fill="#FEAE32"></path><path d="M585.14 536.38h48.76v48.76h-48.76z" fill="#FFF"></path><path d="M585.14 487.62h48.76v48.76h-48.76z" fill="#FEAE32"></path><path d="M585.14 438.86h48.76v48.76h-48.76z m0-97.53h48.76v48.77h-48.76z" fill="#09111F"></path><path d="M585.14 292.57h48.76v48.76h-48.76z m0-48.76h48.76v48.76h-48.76z m0-48.76h48.76v48.76h-48.76z m0-48.76h48.76v48.76h-48.76z" fill="#FEAE32"></path><path d="M585.14 97.53h48.76v48.76h-48.76z" fill="#FEAE32"></path><path d="M585.14 48.76h48.76v48.77h-48.76z m-48.76 682.67h48.76v48.76h-48.76z" fill="#09111F"></path><path d="M536.38 682.66h48.76v48.77h-48.76z m0-48.76h48.76v48.76h-48.76z m0-48.76h48.76v48.76h-48.76z m0-48.76h48.76v48.76h-48.76z m0-48.76h48.76v48.76h-48.76z m0-48.76h48.76v48.76h-48.76z" fill="#FEAE32"></path><path d="M536.38 390.1h48.76v48.76h-48.76z" fill="#09111F"></path><path d="M536.38 341.33h48.76v48.77h-48.76z m0-48.76h48.76v48.76h-48.76z m0-48.76h48.76v48.76h-48.76z m0-48.76h48.76v48.76h-48.76z" fill="#FEAE32"></path><path d="M536.38 146.29h48.76v48.76h-48.76z" fill="#FCDE56"></path><path d="M536.38 97.53h48.76v48.76h-48.76z" fill="#FCDE56"></path><path d="M536.38 48.76h48.76v48.77h-48.76z m-48.76 731.43h48.76v48.76h-48.76z" fill="#09111F"></path><path d="M487.62 731.43h48.76v48.76h-48.76z" fill="#FFF"></path><path d="M487.62 682.66h48.76v48.77h-48.76z" fill="#FCDE56"></path><path d="M487.62 633.9h48.76v48.76h-48.76z m0-48.76h48.76v48.76h-48.76z m0-48.76h48.76v48.76h-48.76z" fill="#FEAE32"></path><path d="M487.62 487.62h48.76v48.76h-48.76z" fill="#FFF"></path><path d="M487.62 438.86h48.76v48.76h-48.76z m0-48.76h48.76v48.76h-48.76z m0-48.77h48.76v48.77h-48.76z m0-48.76h48.76v48.76h-48.76z" fill="#FEAE32"></path><path d="M487.62 243.81h48.76v48.76h-48.76z m0-48.76h48.76v48.76h-48.76z m0-48.76h48.76v48.76h-48.76z" fill="#FCDE56"></path><path d="M487.62 97.53h48.76v48.76h-48.76z" fill="#C24831"></path><path d="M487.62 48.76h48.76v48.77h-48.76z m-48.76 780.19h48.76v48.76h-48.76z" fill="#09111F"></path><path d="M438.86 780.19h48.76v48.76h-48.76z" fill="#FEAE32"></path><path d="M438.86 731.43h48.76v48.76h-48.76z" fill="#FCDE56"></path><path d="M438.86 682.66h48.76v48.77h-48.76z" fill="#C24831"></path><path d="M438.86 633.9h48.76v48.76h-48.76z" fill="#09111F"></path><path d="M438.86 585.14h48.76v48.76h-48.76z m0-48.76h48.76v48.76h-48.76z m0-48.76h48.76v48.76h-48.76z m0-48.76h48.76v48.76h-48.76z m0-48.76h48.76v48.76h-48.76z m0-48.77h48.76v48.77h-48.76z" fill="#FEAE32"></path><path d="M438.86 292.57h48.76v48.76h-48.76z m0-48.76h48.76v48.76h-48.76z" fill="#FCDE56"></path><path d="M438.86 195.05h48.76v48.76h-48.76z m0-48.76h48.76v48.76h-48.76z" fill="#C24831"></path><path d="M438.86 97.53h48.76v48.76h-48.76z" fill="#C24831"></path><path d="M438.86 48.76h48.76v48.77h-48.76z m-48.76 828.95h48.76v48.76h-48.76z" fill="#09111F"></path><path d="M390.1 828.95h48.76v48.76h-48.76z" fill="#FEAE32"></path><path d="M390.1 780.19h48.76v48.76h-48.76z" fill="#FCDE56"></path><path d="M390.1 731.43h48.76v48.76h-48.76z" fill="#C24831"></path><path d="M390.1 682.66h48.76v48.77h-48.76z m48.76-97.52v48.76h-97.53v-48.76h97.53z" fill="#09111F"></path><path d="M390.1 536.38h48.76v48.76h-48.76z m0-48.76h48.76v48.76h-48.76z m0-48.76h48.76v48.76h-48.76z m0-48.76h48.76v48.76h-48.76z" fill="#FEAE32"></path><path d="M390.1 341.33h48.76v48.77h-48.76z m0-48.76h48.76v48.76h-48.76z" fill="#FCDE56"></path><path d="M390.1 243.81h48.76v48.76h-48.76z" fill="#C24831"></path><path d="M390.1 195.05h48.76v48.76h-48.76z m0-48.76h48.76v48.76h-48.76z" fill="#FFF"></path><path d="M390.1 97.53h48.76v48.76h-48.76z" fill="#C24831"></path><path d="M390.1 48.76h48.76v48.77h-48.76z m-48.77 877.72h48.77v48.76h-48.77z" fill="#09111F"></path><path d="M341.33 877.71h48.77v48.77h-48.77z" fill="#FEAE32"></path><path d="M341.33 828.95h48.77v48.76h-48.77z" fill="#FCDE56"></path><path d="M341.33 780.19h48.77v48.76h-48.77z" fill="#C24831"></path><path d="M341.33 731.43h48.77v48.76h-48.77z" fill="#09111F"></path><path d="M341.33 536.38h48.77v48.76h-48.77z m0-48.76h48.77v48.76h-48.77z" fill="#FEAE32"></path><path d="M341.33 438.86h48.77v48.76h-48.77z m0-48.76h48.77v48.76h-48.77z m0-48.77h48.77v48.77h-48.77z" fill="#FCDE56"></path><path d="M341.33 292.57h48.77v48.76h-48.77z m0-48.76h48.77v48.76h-48.77z" fill="#C24831"></path><path d="M341.33 195.05h48.77v48.76h-48.77z" fill="#FFF"></path><path d="M341.33 146.29h48.77v48.76h-48.77z" fill="#C24831"></path><path d="M341.33 97.53h48.77v48.76h-48.77z m-48.76 828.95h48.76v48.76h-48.76z" fill="#09111F"></path><path d="M292.57 877.71h48.76v48.77h-48.76z" fill="#C24831"></path><path d="M292.57 828.95h48.76v48.76h-48.76z m0-48.76h48.76v48.76h-48.76z m0-195.05h48.76v48.76h-48.76z" fill="#09111F"></path><path d="M292.57 536.38h48.76v48.76h-48.76z" fill="#FEAE32"></path><path d="M292.57 487.62h48.76v48.76h-48.76z m0-48.76h48.76v48.76h-48.76z" fill="#FCDE56"></path><path d="M292.57 390.1h48.76v48.76h-48.76z m0-48.77h48.76v48.77h-48.76z m0-48.76h48.76v48.76h-48.76z m0-48.76h48.76v48.76h-48.76z m0-48.76h48.76v48.76h-48.76z" fill="#C24831"></path><path d="M292.57 146.29h48.76v48.76h-48.76z m-48.76 731.42h48.76v48.77h-48.76z m0-292.57h48.76v48.76h-48.76z" fill="#09111F"></path><path d="M243.81 536.38h48.76v48.76h-48.76z m0-48.76h48.76v48.76h-48.76z" fill="#FCDE56"></path><path d="M243.81 438.86h48.76v48.76h-48.76z m0-48.76h48.76v48.76h-48.76z" fill="#C24831"></path><path d="M243.81 341.33h48.76v48.77h-48.76z" fill="#FCDE56"></path><path d="M243.81 292.57h48.76v48.76h-48.76z m0-48.76h48.76v48.76h-48.76z" fill="#C24831"></path><path d="M243.81 195.05h48.76v48.76h-48.76z m-48.76 390.09h48.76v48.76h-48.76z" fill="#09111F"></path><path d="M195.05 536.38h48.76v48.76h-48.76z m0-48.76h48.76v48.76h-48.76z" fill="#C24831"></path><path d="M195.05 438.86h48.76v48.76h-48.76z" fill="#FCDE56"></path><path d="M195.05 390.1h48.76v48.76h-48.76z m0-48.77h48.76v48.77h-48.76z" fill="#C24831"></path><path d="M195.05 292.57h48.76v48.76h-48.76z m0-48.76h48.76v48.76h-48.76z m-48.76 341.33h48.76v48.76h-48.76z" fill="#09111F"></path><path d="M146.29 536.38h48.76v48.76h-48.76z m0-48.76h48.76v48.76h-48.76z m0-48.76h48.76v48.76h-48.76z" fill="#C24831"></path><path d="M146.29 390.1h48.76v48.76h-48.76z m0-48.77h48.76v48.77h-48.76z m-48.76 243.81h48.76v48.76h-48.76z" fill="#09111F"></path><path d="M97.53 536.38h48.76v48.76h-48.76z m0-48.76h48.76v48.76h-48.76z" fill="#C24831"></path><path d="M97.53 438.86h48.76v48.76h-48.76z m-48.77 97.52h48.77v48.76h-48.77z m0-48.76h48.77v48.76h-48.77z" fill="#09111F"></path></g></svg>