<svg xmlns="http://www.w3.org/2000/svg" width="64" height="64" viewBox="0 0 1024 1024"><g class="nc-icon-wrapper"><path d="M780.19 975.24h48.76v48.76h-48.76z m195.05-536.38h48.76v48.76h-48.76z m0-48.76h48.76v48.76h-48.76z m0-48.77h48.76v48.77h-48.76z m-48.77 195.05h48.76v48.76h-48.76z m0-48.76h48.76v48.76h-48.76z m0-48.76h48.76v48.76h-48.76z"></path><path d="M926.48 390.1h48.76v48.76h-48.76z" fill="#FFB62D"></path><path d="M926.48 341.33h48.76v48.77h-48.76z m-48.76 487.62h48.76v48.76h-48.76z m0-48.76h48.76v48.76h-48.76z m0-195.05h48.76v48.76h-48.76z m0-48.76h48.76v48.76h-48.76z"></path><path d="M877.71 487.62h48.77v48.76h-48.76z m0-48.76h48.77v48.76h-48.76z m0-48.76h48.77v48.76h-48.76z m0-48.77h48.77v48.77h-48.76z" fill="#FFB62D"></path><path d="M877.71 292.57h48.77v48.76h-48.76z m-48.76 585.14h48.76v48.77h-48.76z"></path><path d="M828.95 828.95h48.76v48.76h-48.76z m0-48.76h48.76v48.76h-48.76z" fill="#FFB62D"></path><path d="M828.95 731.43h48.76v48.76h-48.76z m0-97.53h48.76v48.76h-48.76z m0-48.76h48.76v48.76h-48.76z"></path><path d="M828.95 536.38h48.76v48.76h-48.76z m0-48.76h48.76v48.76h-48.76z" fill="#FFB62D"></path><path d="M828.95 438.86h48.76v48.76h-48.76z" fill="#FECF48"></path><path d="M828.95 390.1h48.76v48.76h-48.76z m0-48.77h48.76v48.77h-48.76z" fill="#FFB62D"></path><path d="M828.95 292.57h48.76v48.76h-48.76z m-48.76 633.9h48.76v48.76h-48.76z"></path><path d="M780.19 877.71h48.76v48.77h-48.76z m0-48.76h48.76v48.76h-48.76z m0-48.76h48.76v48.76h-48.76z m0-48.76h48.76v48.76h-48.76z" fill="#FFB62D"></path><path d="M780.19 682.66h48.76v48.77h-48.76z m0-48.76h48.76v48.76h-48.76z"></path><path d="M780.19 585.14h48.76v48.76h-48.76z m0-48.76h48.76v48.76h-48.76z m0-48.76h48.76v48.76h-48.76z" fill="#FFB62D"></path><path d="M780.19 438.86h48.76v48.76h-48.76z" fill="#FECF48"></path><path d="M780.19 390.1h48.76v48.76h-48.76z m0-48.77h48.76v48.77h-48.76z" fill="#FFB62D"></path><path d="M780.19 292.57h48.76v48.76h-48.76z m-48.76 682.67h48.76v48.76h-48.76z"></path><path d="M731.43 926.48h48.76v48.76h-48.76z m0-48.76h48.76v48.76h-48.76z" fill="#FFB62D"></path><path d="M731.43 828.95h48.76v48.76h-48.76z" fill="#FECF48"></path><path d="M731.43 780.19h48.76v48.76h-48.76z m0-48.76h48.76v48.76h-48.76z m0-48.77h48.76v48.77h-48.76z m0-48.76h48.76v48.76h-48.76z m0-48.76h48.76v48.76h-48.76z m0-48.76h48.76v48.76h-48.76z" fill="#FFB62D"></path><path d="M731.43 487.62h48.76v48.76h-48.76z m0-48.76h48.76v48.76h-48.76z m0-48.76h48.76v48.76h-48.76z" fill="#FECF48"></path><path d="M731.43 341.33h48.76v48.77h-48.76z m0-48.76h48.76v48.76h-48.76z" fill="#FFB62D"></path><path d="M731.43 243.81h48.76v48.76h-48.76z m-48.77 731.43h48.77v48.76h-48.77z"></path><path d="M682.66 926.48h48.77v48.76h-48.77z m0-48.76h48.77v48.76h-48.77z m0-48.77h48.77v48.76h-48.77z" fill="#FFB62D"></path><path d="M682.66 780.19h48.77v48.76h-48.77z m0-48.76h48.77v48.76h-48.77z m0-48.77h48.77v48.77h-48.77z m0-48.76h48.77v48.76h-48.77z" fill="#FECF48"></path><path d="M682.66 585.14h48.77v48.76h-48.77z" fill="#FFB62D"></path><path d="M682.66 536.38h48.77v48.76h-48.77z m0-48.76h48.77v48.76h-48.77z m0-48.76h48.77v48.76h-48.77z m0-48.76h48.77v48.76h-48.77z" fill="#FECF48"></path><path d="M682.66 341.33h48.77v48.77h-48.77z m0-48.76h48.77v48.76h-48.77z" fill="#FFB62D"></path><path d="M682.66 243.81h48.77v48.76h-48.77z m-48.76 682.66h48.76v48.76h-48.76z"></path><path d="M633.9 877.71h48.76v48.77h-48.76z m0-48.76h48.76v48.76h-48.76z m0-48.76h48.76v48.76h-48.76z" fill="#FFB62D"></path><path d="M633.9 731.43h48.76v48.76h-48.76z m0-48.77h48.76v48.77h-48.76z m0-48.76h48.76v48.76h-48.76z m0-48.76h48.76v48.76h-48.76z m0-48.76h48.76v48.76h-48.76z m0-48.76h48.76v48.76h-48.76z m0-48.76h48.76v48.76h-48.76z m0-48.76h48.76v48.76h-48.76z m0-48.77h48.76v48.77h-48.76z" fill="#FECF48"></path><path d="M633.9 292.57h48.76v48.76h-48.76z m0-48.76h48.76v48.76h-48.76z" fill="#FFB62D"></path><path d="M633.9 195.05h48.76v48.76h-48.76z m0-48.76h48.76v48.76h-48.76z m-48.76 780.18h48.76v48.76h-48.76z"></path><path d="M585.14 877.71h48.76v48.77h-48.76z m0-48.76h48.76v48.76h-48.76z m0-48.76h48.76v48.76h-48.76z" fill="#FFB62D"></path><path d="M585.14 731.43h48.76v48.76h-48.76z m0-48.77h48.76v48.77h-48.76z m0-48.76h48.76v48.76h-48.76z m0-48.76h48.76v48.76h-48.76z m0-48.76h48.76v48.76h-48.76z m0-48.76h48.76v48.76h-48.76z m0-48.76h48.76v48.76h-48.76z" fill="#FECF48"></path><path d="M585.14 390.1h48.76v48.76h-48.76z" fill="#FFF"></path><path d="M585.14 341.33h48.76v48.77h-48.76z m0-48.76h48.76v48.76h-48.76z" fill="#FECF48"></path><path d="M585.14 243.81h48.76v48.76h-48.76z m0-48.76h48.76v48.76h-48.76z m0-48.76h48.76v48.76h-48.76z" fill="#FFB62D"></path><path d="M585.14 97.53h48.76v48.76h-48.76z m0-48.77h48.76v48.77h-48.76z m-48.76 877.72h48.76v48.76h-48.76z m0-48.76h48.76v48.76h-48.76z"></path><path d="M536.38 828.95h48.76v48.76h-48.76z m0-48.76h48.76v48.76h-48.76z m0-48.76h48.76v48.76h-48.76z" fill="#FFB62D"></path><path d="M536.38 682.66h48.76v48.77h-48.76z m0-48.76h48.76v48.76h-48.76z m0-48.76h48.76v48.76h-48.76z m0-48.76h48.76v48.76h-48.76z m0-48.76h48.76v48.76h-48.76z m0-48.76h48.76v48.76h-48.76z m0-48.76h48.76v48.76h-48.76z" fill="#FECF48"></path><path d="M536.38 341.33h48.76v48.77h-48.76z" fill="#FFF"></path><path d="M536.38 292.57h48.76v48.76h-48.76z m0-48.76h48.76v48.76h-48.76z" fill="#FECF48"></path><path d="M536.38 195.05h48.76v48.76h-48.76z m0-48.76h48.76v48.76h-48.76z" fill="#FFB62D"></path><path d="M536.38 97.53h48.76v48.76h-48.76z" fill="#FFB62D"></path><path d="M536.38 48.76h48.76v48.77h-48.76z m0-48.76h48.76v48.76h-48.76z m-48.76 877.71h48.76v48.77h-48.76z"></path><path d="M487.62 828.95h48.76v48.76h-48.76z m0-48.76h48.76v48.76h-48.76z m0-48.76h48.76v48.76h-48.76z m0-48.77h48.76v48.77h-48.76z" fill="#FFB62D"></path><path d="M487.62 633.9h48.76v48.76h-48.76z m0-48.76h48.76v48.76h-48.76z m0-48.76h48.76v48.76h-48.76z m0-48.76h48.76v48.76h-48.76z m0-48.76h48.76v48.76h-48.76z m0-48.76h48.76v48.76h-48.76z m0-48.77h48.76v48.77h-48.76z m0-48.76h48.76v48.76h-48.76z m0-48.76h48.76v48.76h-48.76z m0-48.76h48.76v48.76h-48.76z" fill="#FECF48"></path><path d="M487.62 146.29h48.76v48.76h-48.76z" fill="#FFB62D"></path><path d="M487.62 97.53h48.76v48.76h-48.76z m0-48.77h48.76v48.77h-48.76z" fill="#FFB62D"></path><path d="M487.62 0h48.76v48.76h-48.76z m-48.76 877.71h48.76v48.77h-48.76z"></path><path d="M438.86 828.95h48.76v48.76h-48.76z m0-48.76h48.76v48.76h-48.76z m0-48.76h48.76v48.76h-48.76z" fill="#FFB62D"></path><path d="M438.86 682.66h48.76v48.77h-48.76z m0-48.76h48.76v48.76h-48.76z m0-48.76h48.76v48.76h-48.76z m0-48.76h48.76v48.76h-48.76z m0-48.76h48.76v48.76h-48.76z m0-48.76h48.76v48.76h-48.76z m0-48.76h48.76v48.76h-48.76z m0-48.77h48.76v48.77h-48.76z m0-48.76h48.76v48.76h-48.76z m0-48.76h48.76v48.76h-48.76z" fill="#FECF48"></path><path d="M438.86 195.05h48.76v48.76h-48.76z m0-48.76h48.76v48.76h-48.76z" fill="#FFB62D"></path><path d="M438.86 97.53h48.76v48.76h-48.76z" fill="#FFB62D"></path><path d="M438.86 48.76h48.76v48.77h-48.76z m0-48.76h48.76v48.76h-48.76z m-48.76 926.48h48.76v48.76h-48.76z m0-48.76h48.76v48.76h-48.76z"></path><path d="M390.1 828.95h48.76v48.76h-48.76z m0-48.76h48.76v48.76h-48.76z m0-48.76h48.76v48.76h-48.76z" fill="#FFB62D"></path><path d="M390.1 682.66h48.76v48.77h-48.76z m0-48.76h48.76v48.76h-48.76z m0-48.76h48.76v48.76h-48.76z m0-48.76h48.76v48.76h-48.76z m0-48.76h48.76v48.76h-48.76z m0-48.76h48.76v48.76h-48.76z m0-48.76h48.76v48.76h-48.76z m0-48.77h48.76v48.77h-48.76z m0-48.76h48.76v48.76h-48.76z" fill="#FECF48"></path><path d="M390.1 243.81h48.76v48.76h-48.76z m0-48.76h48.76v48.76h-48.76z m0-48.76h48.76v48.76h-48.76z" fill="#FFB62D"></path><path d="M390.1 97.53h48.76v48.76h-48.76z m0-48.77h48.76v48.77h-48.76z m-48.77 877.72h48.77v48.76h-48.77z"></path><path d="M341.33 877.71h48.77v48.77h-48.77z m0-48.76h48.77v48.76h-48.77z m0-48.76h48.77v48.76h-48.77z" fill="#FFB62D"></path><path d="M341.33 731.43h48.77v48.76h-48.77z" fill="#FECF48"></path><path d="M341.33 682.66h48.77v48.77h-48.77z" fill="#FFF"></path><path d="M341.33 633.9h48.77v48.76h-48.77z m0-48.76h48.77v48.76h-48.77z m0-48.76h48.77v48.76h-48.77z m0-48.76h48.77v48.76h-48.77z m0-48.76h48.77v48.76h-48.77z m0-48.76h48.77v48.76h-48.77z m0-48.77h48.77v48.77h-48.77z" fill="#FECF48"></path><path d="M341.33 292.57h48.77v48.76h-48.77z m0-48.76h48.77v48.76h-48.77z" fill="#FFB62D"></path><path d="M341.33 195.05h48.77v48.76h-48.77z m0-48.76h48.77v48.76h-48.77z m-48.76 780.18h48.76v48.76h-48.76z"></path><path d="M292.57 877.71h48.76v48.77h-48.76z m0-48.76h48.76v48.76h-48.76z" fill="#FFB62D"></path><path d="M292.57 780.19h48.76v48.76h-48.76z" fill="#FECF48"></path><path d="M292.57 731.43h48.76v48.76h-48.76z" fill="#FFF"></path><path d="M292.57 682.66h48.76v48.77h-48.76z m0-48.76h48.76v48.76h-48.76z" fill="#FECF48"></path><path d="M292.57 585.14h48.76v48.76h-48.76z" fill="#FFB62D"></path><path d="M292.57 536.38h48.76v48.76h-48.76z m0-48.76h48.76v48.76h-48.76z m0-48.76h48.76v48.76h-48.76z m0-48.76h48.76v48.76h-48.76z m0-48.77h48.76v48.77h-48.76z" fill="#FECF48"></path><path d="M292.57 292.57h48.76v48.76h-48.76z" fill="#FFB62D"></path><path d="M292.57 243.81h48.76v48.76h-48.76z m-48.76 731.43h48.76v48.76h-48.76z"></path><path d="M243.81 926.48h48.76v48.76h-48.76z m0-48.76h48.76v48.76h-48.76z" fill="#FFB62D"></path><path d="M243.81 828.95h48.76v48.76h-48.76z" fill="#FECF48"></path><path d="M243.81 780.19h48.76v48.76h-48.76z m0-48.76h48.76v48.76h-48.76z m0-48.77h48.76v48.77h-48.76z m0-48.76h48.76v48.76h-48.76z m0-48.76h48.76v48.76h-48.76z m0-48.76h48.76v48.76h-48.76z" fill="#FFB62D"></path><path d="M243.81 487.62h48.76v48.76h-48.76z m0-48.76h48.76v48.76h-48.76z m0-48.76h48.76v48.76h-48.76z" fill="#FECF48"></path><path d="M243.81 341.33h48.76v48.77h-48.76z m0-48.76h48.76v48.76h-48.76z" fill="#FFB62D"></path><path d="M243.81 243.81h48.76v48.76h-48.76z m-48.76 731.43h48.76v48.76h-48.76z m0-48.76h48.76v48.76h-48.76z"></path><path d="M195.05 877.71h48.76v48.77h-48.76z m0-48.76h48.76v48.76h-48.76z m0-48.76h48.76v48.76h-48.76z m0-48.76h48.76v48.76h-48.76z m0-48.77h48.76v48.77h-48.76z" fill="#FFB62D"></path><path d="M195.05 633.9h48.76v48.76h-48.76z m0-48.76h48.76v48.76h-48.76z"></path><path d="M195.05 536.38h48.76v48.76h-48.76z m0-48.76h48.76v48.76h-48.76z" fill="#FFB62D"></path><path d="M195.05 438.86h48.76v48.76h-48.76z" fill="#FECF48"></path><path d="M195.05 390.1h48.76v48.76h-48.76z m0-48.77h48.76v48.77h-48.76z" fill="#FFB62D"></path><path d="M195.05 292.57h48.76v48.76h-48.76z m-48.76 585.14h48.76v48.77h-48.76z"></path><path d="M146.29 828.95h48.76v48.76h-48.76z m0-48.76h48.76v48.76h-48.76z" fill="#FFB62D"></path><path d="M146.29 731.43h48.76v48.76h-48.76z m0-48.77h48.76v48.77h-48.76z m0-97.52h48.76v48.76h-48.76z m0-48.76h48.76v48.76h-48.76z"></path><path d="M146.29 487.62h48.76v48.76h-48.76z" fill="#FFB62D"></path><path d="M146.29 438.86h48.76v48.76h-48.76z" fill="#FECF48"></path><path d="M146.29 390.1h48.76v48.76h-48.76z m0-48.77h48.76v48.77h-48.76z" fill="#FFB62D"></path><path d="M146.29 292.57h48.76v48.76h-48.76z m-48.76 536.38h48.76v48.76h-48.76z m0-48.76h48.76v48.76h-48.76z m0-243.81h48.76v48.76h-48.76z"></path><path d="M97.53 487.62h48.76v48.76h-48.76z m0-48.76h48.76v48.76h-48.76z m0-48.76h48.76v48.76h-48.76z m0-48.77h48.76v48.77h-48.76z" fill="#FFB62D"></path><path d="M97.53 292.57h48.76v48.76h-48.76z m-48.77 195.05h48.77v48.76h-48.77z m0-48.76h48.77v48.76h-48.77z"></path><path d="M48.76 390.1h48.77v48.76h-48.77z m0-48.77h48.77v48.77h-48.77z" fill="#FFB62D"></path><path d="M48.76 292.57h48.77v48.76h-48.77z m-48.76 146.29h48.76v48.76h-48.76z m0-48.76h48.76v48.76h-48.76z m0-48.77h48.76v48.77h-48.76z"></path></g></svg>