<svg xmlns="http://www.w3.org/2000/svg" width="64" height="64" viewBox="0 0 1024 1024"><g class="nc-icon-wrapper"><path d="M975.24 731.43h48.76v48.76h-48.76z m0-48.77h48.76v48.77h-48.76z m0-48.76h48.76v48.76h-48.76z m0-48.76h48.76v48.76h-48.76z m0-48.76h48.76v48.76h-48.76z m0-48.76h48.76v48.76h-48.76z m0-48.76h48.76v48.76h-48.76z m0-48.76h48.76v48.76h-48.76z m-48.76 390.09h48.76v48.76h-48.76z" fill="#09111F"></path><path d="M926.48 731.43h48.76v48.76h-48.76z m0-48.77h48.76v48.77h-48.76z m0-48.76h48.76v48.76h-48.76z m0-48.76h48.76v48.76h-48.76z m0-48.76h48.76v48.76h-48.76z m0-48.76h48.76v48.76h-48.76z m0-48.76h48.76v48.76h-48.76z" fill="#5C7EBF"></path><path d="M926.48 390.1h48.76v48.76h-48.76z" fill="#FFF"></path><path d="M926.48 341.33h48.76v48.77h-48.76z m0-48.76h48.76v48.76h-48.76z m-48.76 536.38h48.76v48.76h-48.76z" fill="#09111F"></path><path d="M877.71 780.19h48.77v48.76h-48.76z m0-48.76h48.77v48.76h-48.76z" fill="#454853"></path><path d="M877.71 682.66h48.77v48.77h-48.76z m0-48.76h48.77v48.76h-48.76z" fill="#5C7EBF"></path><path d="M877.71 585.14h48.77v48.76h-48.76z m0-48.76h48.77v48.76h-48.76z m0-48.76h48.77v48.76h-48.76z" fill="#BFC4D9"></path><path d="M877.71 438.86h48.77v48.76h-48.76z" fill="#939299"></path><path d="M877.71 390.1h48.77v48.76h-48.76z" fill="#BFC4D9"></path><path d="M877.71 341.33h48.77v48.77h-48.76z m0-48.76h48.77v48.76h-48.76z" fill="#454853"></path><path d="M877.71 243.81h48.77v48.76h-48.76z m0-48.76h48.77v48.76h-48.76z m-48.76 585.14h48.76v48.76h-48.76z" fill="#09111F"></path><path d="M828.95 731.43h48.76v48.76h-48.76z" fill="#454853"></path><path d="M828.95 682.66h48.76v48.77h-48.76z m0-48.76h48.76v48.76h-48.76z m0-48.76h48.76v48.76h-48.76z m0-48.76h48.76v48.76h-48.76z" fill="#BFC4D9"></path><path d="M828.95 487.62h48.76v48.76h-48.76z" fill="#939299"></path><path d="M828.95 438.86h48.76v48.76h-48.76z" fill="#0974EB"></path><path d="M828.95 390.1h48.76v48.76h-48.76z" fill="#939299"></path><path d="M828.95 341.33h48.76v48.77h-48.76z" fill="#BFC4D9"></path><path d="M828.95 292.57h48.76v48.76h-48.76z" fill="#454853"></path><path d="M828.95 243.81h48.76v48.76h-48.76z m0-48.76h48.76v48.76h-48.76z m-48.76 585.14h48.76v48.76h-48.76z" fill="#09111F"></path><path d="M780.19 731.43h48.76v48.76h-48.76z" fill="#454853"></path><path d="M780.19 682.66h48.76v48.77h-48.76z" fill="#BFC4D9"></path><path d="M780.19 633.9h48.76v48.76h-48.76z" fill="#FFF"></path><path d="M780.19 585.14h48.76v48.76h-48.76z" fill="#BFC4D9"></path><path d="M780.19 536.38h48.76v48.76h-48.76z" fill="#939299"></path><path d="M780.19 487.62h48.76v48.76h-48.76z" fill="#D81515"></path><path d="M780.19 438.86h48.76v48.76h-48.76z" fill="#0974EB"></path><path d="M780.19 390.1h48.76v48.76h-48.76z" fill="#EAB603"></path><path d="M780.19 341.33h48.76v48.77h-48.76z" fill="#939299"></path><path d="M780.19 292.57h48.76v48.76h-48.76z m0-48.76h48.76v48.76h-48.76z" fill="#454853"></path><path d="M780.19 195.05h48.76v48.76h-48.76z m-48.76 536.38h48.76v48.76h-48.76z" fill="#09111F"></path><path d="M731.43 682.66h48.76v48.77h-48.76z" fill="#454853"></path><path d="M731.43 633.9h48.76v48.76h-48.76z" fill="#BFC4D9"></path><path d="M731.43 585.14h48.76v48.76h-48.76z" fill="#FFF"></path><path d="M731.43 536.38h48.76v48.76h-48.76z" fill="#939299"></path><path d="M731.43 487.62h48.76v48.76h-48.76z" fill="#D81515"></path><path d="M731.43 438.86h48.76v48.76h-48.76z" fill="#24BF1D"></path><path d="M731.43 390.1h48.76v48.76h-48.76z" fill="#EAB603"></path><path d="M731.43 341.33h48.76v48.77h-48.76z" fill="#939299"></path><path d="M731.43 292.57h48.76v48.76h-48.76z m0-48.76h48.76v48.76h-48.76z" fill="#454853"></path><path d="M731.43 195.05h48.76v48.76h-48.76z m-48.77 536.38h48.77v48.76h-48.77z m0-48.77h48.77v48.77h-48.77z" fill="#09111F"></path><path d="M682.66 633.9h48.77v48.76h-48.77z m0-48.76h48.77v48.76h-48.77z m0-48.76h48.77v48.76h-48.77z" fill="#BFC4D9"></path><path d="M682.66 487.62h48.77v48.76h-48.77z" fill="#939299"></path><path d="M682.66 438.86h48.77v48.76h-48.77z" fill="#24BF1D"></path><path d="M682.66 390.1h48.77v48.76h-48.77z" fill="#939299"></path><path d="M682.66 341.33h48.77v48.77h-48.77z" fill="#BFC4D9"></path><path d="M682.66 292.57h48.77v48.76h-48.77z m0-48.76h48.77v48.76h-48.77z" fill="#454853"></path><path d="M682.66 195.05h48.77v48.76h-48.77z m-48.76 585.14h48.76v48.76h-48.76z m0-48.76h48.76v48.76h-48.76z" fill="#09111F"></path><path d="M633.9 682.66h48.76v48.77h-48.76z" fill="#BFC4D9"></path><path d="M633.9 633.9h48.76v48.76h-48.76z m0-48.76h48.76v48.76h-48.76z" fill="#567097"></path><path d="M633.9 536.38h48.76v48.76h-48.76z m0-48.76h48.76v48.76h-48.76z" fill="#BFC4D9"></path><path d="M633.9 438.86h48.76v48.76h-48.76z" fill="#939299"></path><path d="M633.9 390.1h48.76v48.76h-48.76z m0-48.77h48.76v48.77h-48.76z" fill="#BFC4D9"></path><path d="M633.9 292.57h48.76v48.76h-48.76z" fill="#454853"></path><path d="M633.9 243.81h48.76v48.76h-48.76z m-48.76 487.62h48.76v48.76h-48.76z m0-48.77h48.76v48.77h-48.76z" fill="#09111F"></path><path d="M585.14 633.9h48.76v48.76h-48.76z m0-48.76h48.76v48.76h-48.76z" fill="#567097"></path><path d="M585.14 536.38h48.76v48.76h-48.76z" fill="#BFC4D9"></path><path d="M585.14 487.62h48.76v48.76h-48.76z" fill="#232B38"></path><path d="M585.14 438.86h48.76v48.76h-48.76z" fill="#BFC4D9"></path><path d="M585.14 390.1h48.76v48.76h-48.76z" fill="#567097"></path><path d="M585.14 341.33h48.76v48.77h-48.76z" fill="#BFC4D9"></path><path d="M585.14 292.57h48.76v48.76h-48.76z m-48.76 390.09h48.76v48.77h-48.76z" fill="#09111F"></path><path d="M536.38 633.9h48.76v48.76h-48.76z m0-48.76h48.76v48.76h-48.76z m0-48.76h48.76v48.76h-48.76z" fill="#BFC4D9"></path><path d="M536.38 487.62h48.76v48.76h-48.76z" fill="#232B38"></path><path d="M536.38 438.86h48.76v48.76h-48.76z" fill="#BFC4D9"></path><path d="M536.38 390.1h48.76v48.76h-48.76z" fill="#567097"></path><path d="M536.38 341.33h48.76v48.77h-48.76z" fill="#BFC4D9"></path><path d="M536.38 292.57h48.76v48.76h-48.76z m-48.76 390.09h48.76v48.77h-48.76z" fill="#09111F"></path><path d="M487.62 633.9h48.76v48.76h-48.76z" fill="#BFC4D9"></path><path d="M487.62 585.14h48.76v48.76h-48.76z" fill="#939299"></path><path d="M487.62 536.38h48.76v48.76h-48.76z m0-48.76h48.76v48.76h-48.76z m0-48.76h48.76v48.76h-48.76z m0-48.76h48.76v48.76h-48.76z m0-48.77h48.76v48.77h-48.76z" fill="#BFC4D9"></path><path d="M487.62 292.57h48.76v48.76h-48.76z m-48.76 390.09h48.76v48.77h-48.76z" fill="#09111F"></path><path d="M438.86 633.9h48.76v48.76h-48.76z m0-48.76h48.76v48.76h-48.76z m0-48.76h48.76v48.76h-48.76z" fill="#BFC4D9"></path><path d="M438.86 487.62h48.76v48.76h-48.76z" fill="#232B38"></path><path d="M438.86 438.86h48.76v48.76h-48.76z" fill="#BFC4D9"></path><path d="M438.86 390.1h48.76v48.76h-48.76z" fill="#567097"></path><path d="M438.86 341.33h48.76v48.77h-48.76z" fill="#BFC4D9"></path><path d="M438.86 292.57h48.76v48.76h-48.76z m-48.76 438.86h48.76v48.76h-48.76z m0-48.77h48.76v48.77h-48.76z" fill="#09111F"></path><path d="M390.1 633.9h48.76v48.76h-48.76z m0-48.76h48.76v48.76h-48.76z m0-48.76h48.76v48.76h-48.76z" fill="#BFC4D9"></path><path d="M390.1 487.62h48.76v48.76h-48.76z" fill="#232B38"></path><path d="M390.1 438.86h48.76v48.76h-48.76z" fill="#BFC4D9"></path><path d="M390.1 390.1h48.76v48.76h-48.76z" fill="#567097"></path><path d="M390.1 341.33h48.76v48.77h-48.76z" fill="#BFC4D9"></path><path d="M390.1 292.57h48.76v48.76h-48.76z m-48.77 487.62h48.77v48.76h-48.77z m0-48.76h48.77v48.76h-48.77z" fill="#09111F"></path><path d="M341.33 682.66h48.77v48.77h-48.77z" fill="#BFC4D9"></path><path d="M341.33 633.9h48.77v48.76h-48.77z m0-48.76h48.77v48.76h-48.77z" fill="#567097"></path><path d="M341.33 536.38h48.77v48.76h-48.77z m0-48.76h48.77v48.76h-48.77z" fill="#BFC4D9"></path><path d="M341.33 438.86h48.77v48.76h-48.77z" fill="#939299"></path><path d="M341.33 390.1h48.77v48.76h-48.77z m0-48.77h48.77v48.77h-48.77z" fill="#BFC4D9"></path><path d="M341.33 292.57h48.77v48.76h-48.77z" fill="#454853"></path><path d="M341.33 243.81h48.77v48.76h-48.77z m-48.76 487.62h48.76v48.76h-48.76z m0-48.77h48.76v48.77h-48.76z" fill="#09111F"></path><path d="M292.57 633.9h48.76v48.76h-48.76z m0-48.76h48.76v48.76h-48.76z" fill="#567097"></path><path d="M292.57 536.38h48.76v48.76h-48.76z" fill="#BFC4D9"></path><path d="M292.57 487.62h48.76v48.76h-48.76z" fill="#939299"></path><path d="M292.57 438.86h48.76v48.76h-48.76z" fill="#232B38"></path><path d="M292.57 390.1h48.76v48.76h-48.76z" fill="#939299"></path><path d="M292.57 341.33h48.76v48.77h-48.76z" fill="#BFC4D9"></path><path d="M292.57 292.57h48.76v48.76h-48.76z m0-48.76h48.76v48.76h-48.76z" fill="#454853"></path><path d="M292.57 195.05h48.76v48.76h-48.76z m-48.76 536.38h48.76v48.76h-48.76z" fill="#09111F"></path><path d="M243.81 682.66h48.76v48.77h-48.76z" fill="#454853"></path><path d="M243.81 633.9h48.76v48.76h-48.76z m0-48.76h48.76v48.76h-48.76z" fill="#BFC4D9"></path><path d="M243.81 536.38h48.76v48.76h-48.76z" fill="#939299"></path><path d="M243.81 487.62h48.76v48.76h-48.76z m0-48.76h48.76v48.76h-48.76z m0-48.76h48.76v48.76h-48.76z" fill="#232B38"></path><path d="M243.81 341.33h48.76v48.77h-48.76z" fill="#939299"></path><path d="M243.81 292.57h48.76v48.76h-48.76z m0-48.76h48.76v48.76h-48.76z" fill="#454853"></path><path d="M243.81 195.05h48.76v48.76h-48.76z m-48.76 585.14h48.76v48.76h-48.76z" fill="#09111F"></path><path d="M195.05 731.43h48.76v48.76h-48.76z" fill="#454853"></path><path d="M195.05 682.66h48.76v48.77h-48.76z" fill="#BFC4D9"></path><path d="M195.05 633.9h48.76v48.76h-48.76z" fill="#FFF"></path><path d="M195.05 585.14h48.76v48.76h-48.76z" fill="#BFC4D9"></path><path d="M195.05 536.38h48.76v48.76h-48.76z" fill="#939299"></path><path d="M195.05 487.62h48.76v48.76h-48.76z m0-48.76h48.76v48.76h-48.76z m0-48.76h48.76v48.76h-48.76z" fill="#232B38"></path><path d="M195.05 341.33h48.76v48.77h-48.76z" fill="#939299"></path><path d="M195.05 292.57h48.76v48.76h-48.76z m0-48.76h48.76v48.76h-48.76z" fill="#454853"></path><path d="M195.05 195.05h48.76v48.76h-48.76z m-48.76 633.9h48.76v48.76h-48.76z" fill="#09111F"></path><path d="M146.29 780.19h48.76v48.76h-48.76z m0-48.76h48.76v48.76h-48.76z" fill="#454853"></path><path d="M146.29 682.66h48.76v48.77h-48.76z m0-48.76h48.76v48.76h-48.76z" fill="#BFC4D9"></path><path d="M146.29 585.14h48.76v48.76h-48.76z" fill="#FFF"></path><path d="M146.29 536.38h48.76v48.76h-48.76z" fill="#BFC4D9"></path><path d="M146.29 487.62h48.76v48.76h-48.76z" fill="#939299"></path><path d="M146.29 438.86h48.76v48.76h-48.76z" fill="#232B38"></path><path d="M146.29 390.1h48.76v48.76h-48.76z" fill="#939299"></path><path d="M146.29 341.33h48.76v48.77h-48.76z m0-48.76h48.76v48.76h-48.76z" fill="#454853"></path><path d="M146.29 243.81h48.76v48.76h-48.76z m0-48.76h48.76v48.76h-48.76z m-48.76 585.14h48.76v48.76h-48.76z" fill="#09111F"></path><path d="M97.53 731.43h48.76v48.76h-48.76z" fill="#454853"></path><path d="M97.53 682.66h48.76v48.77h-48.76z m0-48.76h48.76v48.76h-48.76z" fill="#5C7EBF"></path><path d="M97.53 585.14h48.76v48.76h-48.76z" fill="#454853"></path><path d="M97.53 536.38h48.76v48.76h-48.76z" fill="#FFF"></path><path d="M97.53 487.62h48.76v48.76h-48.76z" fill="#BFC4D9"></path><path d="M97.53 438.86h48.76v48.76h-48.76z" fill="#939299"></path><path d="M97.53 390.1h48.76v48.76h-48.76z m0-48.77h48.76v48.77h-48.76z m0-48.76h48.76v48.76h-48.76z" fill="#454853"></path><path d="M97.53 243.81h48.76v48.76h-48.76z m-48.77 536.38h48.77v48.76h-48.77z" fill="#09111F"></path><path d="M48.76 731.43h48.77v48.76h-48.77z m0-48.77h48.77v48.77h-48.77z m0-48.76h48.77v48.76h-48.77z m0-48.76h48.77v48.76h-48.77z m0-48.76h48.77v48.76h-48.77z m0-48.76h48.77v48.76h-48.77z m0-48.76h48.77v48.76h-48.77z" fill="#5C7EBF"></path><path d="M48.76 390.1h48.77v48.76h-48.77z" fill="#FFF"></path><path d="M48.76 341.33h48.77v48.77h-48.77z m0-48.76h48.77v48.76h-48.77z m-48.76 438.86h48.76v48.76h-48.76z m0-48.77h48.76v48.77h-48.76z m0-48.76h48.76v48.76h-48.76z m0-48.76h48.76v48.76h-48.76z m0-48.76h48.76v48.76h-48.76z m0-48.76h48.76v48.76h-48.76z m0-48.76h48.76v48.76h-48.76z m0-48.77h48.76v48.77h-48.76z" fill="#09111F"></path></g></svg>