<svg xmlns="http://www.w3.org/2000/svg" width="64" height="64" viewBox="0 0 1024 1024"><g class="nc-icon-wrapper"><path d="M975.25 438.53h48.75v48.75h-48.75z" fill="#F7F6F5"></path><path d="M975.25 633.54h48.75v48.76h-48.75z m0-48.75h48.75v48.75h-48.75z m0-48.75h48.75v48.75h-48.75z"></path><path d="M975.25 487.28h48.75v48.76h-48.75z m-48.76 195.02h48.76v48.75h-48.76z"></path><path d="M926.49 633.54h48.76v48.76h-48.76z m0-48.75h48.76v48.75h-48.76z" fill="#833D03"></path><path d="M926.49 536.03h48.76v48.76h-48.76z" fill="#F0C775"></path><path d="M926.49 487.28h48.76v48.76h-48.76z" fill="#815513"></path><path d="M926.49 438.53h48.76v48.75h-48.76z m-48.75 243.77h48.75v48.75h-48.75z m0-48.76h48.75v48.76h-48.75z m0-48.75h48.75v48.75h-48.75z"></path><path d="M877.74 536.03h48.75v48.76h-48.75z" fill="#5A3309"></path><path d="M877.74 487.28h48.75v48.76h-48.75z" fill="#5A3309"></path><path d="M877.74 438.53h48.75v48.75h-48.75z m-48.75 243.77h48.75v48.75h-48.75z"></path><path d="M828.99 633.54h48.75v48.76h-48.75z m0-48.75h48.75v48.75h-48.75z" fill="#833D03"></path><path d="M828.99 536.03h48.75v48.76h-48.75z" fill="#F0C775"></path><path d="M828.99 487.28h48.75v48.76h-48.75z" fill="#815513"></path><path d="M828.99 438.53h48.75v48.75h-48.75z m-48.76 243.77h48.76v48.75h-48.76z m0-48.76h48.76v48.76h-48.76z m0-48.75h48.76v48.75h-48.76z m0-48.75h48.76v48.75h-48.76z"></path><path d="M780.23 487.28h48.76v48.76h-48.76z" fill="#F7F6F5"></path><path d="M780.23 438.53h48.76v48.75h-48.76z m-48.75 97.51h48.75v48.75h-48.75z"></path><path d="M731.48 487.28h48.75v48.76h-48.75z" fill="#815513"></path><path d="M731.48 438.53h48.75v48.75h-48.75z m-48.75 97.51h48.75v48.75h-48.75z"></path><path d="M682.73 487.28h48.75v48.76h-48.75z" fill="#F7F6F5"></path><path d="M682.73 438.53h48.75v48.75h-48.75z m-48.76 97.51h48.76v48.75h-48.76z"></path><path d="M633.97 487.28h48.76v48.76h-48.76z" fill="#815513"></path><path d="M633.97 438.53h48.76v48.75h-48.76z m-48.75 97.51h48.75v48.75h-48.75z"></path><path d="M585.22 487.28h48.75v48.76h-48.75z" fill="#5A3309"></path><path d="M585.22 438.53h48.75v48.75h-48.75z m-48.75 97.51h48.75v48.75h-48.75z"></path><path d="M536.47 487.28h48.75v48.76h-48.75z" fill="#815513"></path><path d="M536.47 438.53h48.75v48.75h-48.75z m-48.76 97.51h48.76v48.75h-48.76z"></path><path d="M487.71 487.28h48.76v48.76h-48.76z" fill="#5A3309"></path><path d="M487.71 438.53h48.76v48.75h-48.76z m-48.75 97.51h48.75v48.75h-48.75z"></path><path d="M438.96 487.28h48.75v48.76h-48.75z" fill="#815513"></path><path d="M438.96 438.53h48.75v48.75h-48.75z m-48.75 97.51h48.75v48.75h-48.75z"></path><path d="M390.2 487.28h48.76v48.76h-48.76z" fill="#5A3309"></path><path d="M390.2 438.53h48.76v48.75h-48.76z m-48.75 97.51h48.75v48.75h-48.75z"></path><path d="M341.45 487.28h48.76v48.76h-48.76z" fill="#815513"></path><path d="M341.45 438.53h48.76v48.75h-48.76z m-48.75 97.51h48.75v48.75h-48.75z"></path><path d="M292.7 487.28h48.75v48.76h-48.75z" fill="#5A3309"></path><path d="M292.7 438.53h48.75v48.75h-48.75z m-48.76 195.01h48.76v48.76h-48.76z m0-48.75h48.76v48.75h-48.76z"></path><path d="M243.94 536.03h48.76v48.76h-48.76z" fill="#5A3309"></path><path d="M243.94 487.28h48.76v48.76h-48.76z" fill="#5A3309"></path><path d="M243.94 438.53h48.76v48.75h-48.76z m0-48.75h48.76v48.75h-48.76z m-48.75 292.52h48.75v48.75h-48.75z"></path><path d="M195.19 633.54h48.75v48.76h-48.75z m0-48.75h48.75v48.75h-48.75z" fill="#5A3309"></path><path d="M195.19 536.03h48.75v48.76h-48.75z" fill="#F0C775"></path><path d="M195.19 487.28h48.75v48.76h-48.75z m0-48.75h48.75v48.75h-48.75z" fill="#F0C775"></path><path d="M195.19 389.77h48.75v48.76h-48.75z" fill="#5A3309"></path><path d="M195.19 341.02h48.75v48.76h-48.75z m-48.75 341.28h48.75v48.75h-48.75z"></path><path d="M146.44 633.54h48.75v48.76h-48.75z" fill="#5A3309"></path><path d="M146.44 584.79h48.75v48.75h-48.75z" fill="#F0C775"></path><path d="M146.44 536.03h48.75v48.76h-48.75z" fill="#FFF"></path><path d="M146.44 487.28h48.75v48.76h-48.75z m0-48.75h48.75v48.75h-48.75z" fill="#FFF"></path><path d="M146.44 389.77h48.75v48.76h-48.75z" fill="#F0C775"></path><path d="M146.44 341.02h48.75v48.76h-48.75z" fill="#5A3309"></path><path d="M146.44 292.27h48.75v48.75h-48.75z m-48.76 390.03h48.76v48.75h-48.76z m0-48.76h48.76v48.76h-48.76z"></path><path d="M97.68 584.79h48.76v48.75h-48.76z" fill="#5A3309"></path><path d="M97.68 536.03h48.76v48.76h-48.76z" fill="#F0C775"></path><path d="M97.68 487.28h48.76v48.76h-48.76z m0-48.75h48.76v48.75h-48.76z" fill="#F0C775"></path><path d="M97.68 389.77h48.76v48.76h-48.76z m0-48.75h48.76v48.75h-48.76z" fill="#5A3309"></path><path d="M97.68 292.27h48.76v48.75h-48.76z m-48.75 292.52h48.75v48.75h-48.75z"></path><path d="M48.93 536.03h48.75v48.76h-48.75z" fill="#5A3309"></path><path d="M48.93 487.28h48.75v48.76h-48.75z m0-48.75h48.75v48.75h-48.75z m0-48.75h48.75v48.75h-48.75z" fill="#5A3309"></path><path d="M48.93 341.02h48.75v48.76h-48.75z m-48.75 195.01h48.75v48.76h-48.75z"></path><path d="M0.18 487.28h48.75v48.76h-48.75z m0-48.75h48.75v48.75h-48.75z m0-48.75h48.75v48.75h-48.75z"></path></g></svg>