<svg width="18" height="19" viewBox="0 0 18 19" fill="none" xmlns="http://www.w3.org/2000/svg">
<path d="M16.9 17.52H1.5V18.64H16.9V17.52Z" fill="#F7FEFF"/>
<path d="M16.9 1.84H1.5V17.52H16.9L16.9 1.84ZM2.6 16.4V2.96H15.8V16.4H2.6Z" fill="#231E2B"/>
<path d="M14.7 15.28V13.04H15.8V11.92H13.6V9.68001H15.8V8.56001H11.4V6.32001H15.8V5.20001H12.5V2.96001H11.4V5.20001H7.00001V2.96001H5.90001V5.20001H2.60001V6.32001H4.80001V8.56001H2.60001V9.68001H7.00001V11.92H2.60001V13.04H3.70001V15.28H2.60001L2.6 16.4H15.8L15.8 15.28H14.7ZM5.90001 8.56001V6.32001H10.3V8.56001H5.90001ZM8.10001 9.68001H12.5V11.92H8.10001V9.68001ZM4.80001 15.28V13.04H9.20001V15.28H4.80001ZM10.3 15.28V13.04H13.6V15.28H10.3Z" fill="#66151B"/>
<path d="M1.5 1.84H0.399994V17.52L1.5 17.52V1.84Z" fill="#F7FEFF"/>
<path d="M15.8 14.16H14.7L14.7 15.28H15.8L15.8 14.16Z" fill="#892727"/>
<path d="M11.4 14.16V13.04L10.3 13.04V15.28H13.6L13.6 14.16H11.4Z" fill="#892727"/>
<path d="M5.89999 14.16V13.04L4.80001 13.04V15.28H9.20001L9.19999 14.16H5.89999Z" fill="#892727"/>
<path d="M3.70001 14.16H2.60001V15.28H3.70001V14.16Z" fill="#892727"/>
<path d="M15.8 13.04H14.7L14.7 14.16H15.8L15.8 13.04Z" fill="#B0392E"/>
<path d="M13.6 13.04L11.4 13.04V14.16H13.6L13.6 13.04Z" fill="#B0392E"/>
<path d="M9.20001 13.04L5.89999 13.04V14.16H9.19999L9.20001 13.04Z" fill="#B0392E"/>
<path d="M3.70001 13.04H2.60001V14.16H3.70001V13.04Z" fill="#B0392E"/>
<path d="M12.5 11.92L12.5 10.8H9.20001V9.67999L8.10001 9.68001V11.92H12.5Z" fill="#892727"/>
<path d="M7.00001 11.92V10.8H3.70001V9.67999L2.60001 9.68001V11.92H7.00001Z" fill="#892727"/>
<path d="M15.8 9.68001L14.7 9.67999V10.8H15.8L15.8 9.68001Z" fill="#B0392E"/>
<path d="M14.7 9.67999L13.6 9.68001V11.92H15.8L15.8 10.8H14.7V9.67999Z" fill="#892727"/>
<path d="M12.5 9.68001L9.20001 9.67999V10.8H12.5L12.5 9.68001Z" fill="#B0392E"/>
<path d="M7.00001 9.68001L3.70001 9.67999V10.8H7.00001V9.68001Z" fill="#B0392E"/>
<path d="M12.5 7.44001V6.32001L11.4 6.32001V8.56001H15.8L15.8 7.44001H12.5Z" fill="#892727"/>
<path d="M10.3 8.56001L10.3 7.44001H6.99999V6.32001L5.90001 6.32001V8.56001H10.3Z" fill="#892727"/>
<path d="M4.80001 7.44H2.60001V8.56001H4.80001V7.44Z" fill="#892727"/>
<path d="M15.8 6.32001L12.5 6.32001V7.44001H15.8L15.8 6.32001Z" fill="#B0392E"/>
<path d="M10.3 6.32001L6.99999 6.32001V7.44001H10.3L10.3 6.32001Z" fill="#B0392E"/>
<path d="M4.80001 6.32001H2.60001V7.44H4.80001V6.32001Z" fill="#B0392E"/>
<path d="M12.5 5.20001H15.8L15.8 4.08001H13.6V2.96001H12.5V5.20001Z" fill="#892727"/>
<path d="M7.00001 5.20001H11.4L11.4 4.08001H8.1V2.96001H7.00001V5.20001Z" fill="#892727"/>
<path d="M5.90001 5.20001V4.08001H3.70001V2.96001L2.6 2.96L2.60001 5.20001H5.90001Z" fill="#892727"/>
<path d="M15.8 2.96L13.6 2.96001V4.08001H15.8V2.96Z" fill="#B0392E"/>
<path d="M11.4 2.96001H8.1V4.08001H11.4L11.4 2.96001Z" fill="#B0392E"/>
<path d="M5.90001 2.96001H3.70001V4.08001H5.90001V2.96001Z" fill="#B0392E"/>
<path d="M18 1.84H16.9L16.9 17.52L18 17.52V1.84Z" fill="#F7FEFF"/>
<path d="M16.9 0.720001H1.5V1.84H16.9L16.9 0.720001Z" fill="#F7FEFF"/>
</svg>
