<svg width="18" height="19" viewBox="0 0 18 19" fill="none" xmlns="http://www.w3.org/2000/svg">
<path d="M14.5 17.16H12.3V18.28H14.5V17.16Z" fill="#F7FEFF" style="fill:#F7FEFF;fill:color(display-p3 0.9686 0.9961 1.0000);fill-opacity:1;"/>
<path d="M5.7 17.16H3.5V18.28H5.7V17.16Z" fill="#F7FEFF" style="fill:#F7FEFF;fill:color(display-p3 0.9686 0.9961 1.0000);fill-opacity:1;"/>
<path d="M15.6 16.04H14.5L14.5 17.16L15.6 17.16V16.04Z" fill="#F7FEFF" style="fill:#F7FEFF;fill:color(display-p3 0.9686 0.9961 1.0000);fill-opacity:1;"/>
<path d="M14.5 16.04H12.3V17.16H14.5L14.5 16.04Z" fill="#231E2B" style="fill:#231E2B;fill:color(display-p3 0.1373 0.1176 0.1686);fill-opacity:1;"/>
<path d="M12.3 16.04H11.2V17.16L12.3 17.16V16.04Z" fill="#F7FEFF" style="fill:#F7FEFF;fill:color(display-p3 0.9686 0.9961 1.0000);fill-opacity:1;"/>
<path d="M6.8 16.04H5.7L5.7 17.16L6.8 17.16V16.04Z" fill="#F7FEFF" style="fill:#F7FEFF;fill:color(display-p3 0.9686 0.9961 1.0000);fill-opacity:1;"/>
<path d="M5.7 16.04H3.5V17.16H5.7L5.7 16.04Z" fill="#231E2B" style="fill:#231E2B;fill:color(display-p3 0.1373 0.1176 0.1686);fill-opacity:1;"/>
<path d="M3.5 16.04H2.39999V17.16L3.5 17.16V16.04Z" fill="#F7FEFF" style="fill:#F7FEFF;fill:color(display-p3 0.9686 0.9961 1.0000);fill-opacity:1;"/>
<path d="M16.7 14.92H15.6L15.6 16.04L16.7 16.04V14.92Z" fill="#F7FEFF" style="fill:#F7FEFF;fill:color(display-p3 0.9686 0.9961 1.0000);fill-opacity:1;"/>
<path d="M15.6 14.92H14.5V16.04H15.6L15.6 14.92Z" fill="#231E2B" style="fill:#231E2B;fill:color(display-p3 0.1373 0.1176 0.1686);fill-opacity:1;"/>
<path d="M14.5 14.92H12.3V16.04H14.5V14.92Z" fill="#892727" style="fill:#892727;fill:color(display-p3 0.5373 0.1529 0.1529);fill-opacity:1;"/>
<path d="M12.3 14.92H11.2V16.04H12.3V14.92Z" fill="#231E2B" style="fill:#231E2B;fill:color(display-p3 0.1373 0.1176 0.1686);fill-opacity:1;"/>
<path d="M11.2 14.92H10.1V16.04L11.2 16.04V14.92Z" fill="#F7FEFF" style="fill:#F7FEFF;fill:color(display-p3 0.9686 0.9961 1.0000);fill-opacity:1;"/>
<path d="M7.9 14.92H6.8L6.8 16.04L7.9 16.04V14.92Z" fill="#F7FEFF" style="fill:#F7FEFF;fill:color(display-p3 0.9686 0.9961 1.0000);fill-opacity:1;"/>
<path d="M6.8 14.92H5.7V16.04H6.8L6.8 14.92Z" fill="#231E2B" style="fill:#231E2B;fill:color(display-p3 0.1373 0.1176 0.1686);fill-opacity:1;"/>
<path d="M5.7 14.92H3.5V16.04H5.7V14.92Z" fill="#892727" style="fill:#892727;fill:color(display-p3 0.5373 0.1529 0.1529);fill-opacity:1;"/>
<path d="M3.5 14.92H2.39999V16.04H3.5V14.92Z" fill="#231E2B" style="fill:#231E2B;fill:color(display-p3 0.1373 0.1176 0.1686);fill-opacity:1;"/>
<path d="M2.39999 14.92H1.3V16.04L2.39999 16.04V14.92Z" fill="#F7FEFF" style="fill:#F7FEFF;fill:color(display-p3 0.9686 0.9961 1.0000);fill-opacity:1;"/>
<path d="M17.8 12.68H16.7L16.7 14.92L17.8 14.92V12.68Z" fill="#F7FEFF" style="fill:#F7FEFF;fill:color(display-p3 0.9686 0.9961 1.0000);fill-opacity:1;"/>
<path d="M15.6 13.8H14.5V14.92H15.6L15.6 13.8Z" fill="#892727" style="fill:#892727;fill:color(display-p3 0.5373 0.1529 0.1529);fill-opacity:1;"/>
<path d="M12.3 13.8H11.2V14.92H12.3L12.3 13.8Z" fill="#892727" style="fill:#892727;fill:color(display-p3 0.5373 0.1529 0.1529);fill-opacity:1;"/>
<path d="M11.2 13.8H10.1V14.92H11.2V13.8Z" fill="#231E2B" style="fill:#231E2B;fill:color(display-p3 0.1373 0.1176 0.1686);fill-opacity:1;"/>
<path d="M10.1 13.8H7.89999L7.9 14.92H10.1V13.8Z" fill="#F7FEFF" style="fill:#F7FEFF;fill:color(display-p3 0.9686 0.9961 1.0000);fill-opacity:1;"/>
<path d="M7.89999 13.8H6.8V14.92H7.9L7.89999 13.8Z" fill="#231E2B" style="fill:#231E2B;fill:color(display-p3 0.1373 0.1176 0.1686);fill-opacity:1;"/>
<path d="M6.8 13.8H5.7V14.92H6.8V13.8Z" fill="#892727" style="fill:#892727;fill:color(display-p3 0.5373 0.1529 0.1529);fill-opacity:1;"/>
<path d="M3.49999 13.8H2.39999V14.92H3.5L3.49999 13.8Z" fill="#892727" style="fill:#892727;fill:color(display-p3 0.5373 0.1529 0.1529);fill-opacity:1;"/>
<path d="M2.4 12.68H1.3V14.92H2.39999L2.4 12.68Z" fill="#231E2B" style="fill:#231E2B;fill:color(display-p3 0.1373 0.1176 0.1686);fill-opacity:1;"/>
<path d="M16.7 12.68H15.6V14.92H16.7L16.7 12.68Z" fill="#231E2B" style="fill:#231E2B;fill:color(display-p3 0.1373 0.1176 0.1686);fill-opacity:1;"/>
<path d="M15.6 12.68H14.5V13.8H15.6L15.6 12.68Z" fill="#CF6B55" style="fill:#CF6B55;fill:color(display-p3 0.8118 0.4196 0.3333);fill-opacity:1;"/>
<path d="M11.2 12.68H10.1V13.8H11.2L11.2 12.68Z" fill="#892727" style="fill:#892727;fill:color(display-p3 0.5373 0.1529 0.1529);fill-opacity:1;"/>
<path d="M10.1 12.68H7.89999V13.8H10.1V12.68Z" fill="#231E2B" style="fill:#231E2B;fill:color(display-p3 0.1373 0.1176 0.1686);fill-opacity:1;"/>
<path d="M7.89999 12.68H6.8V13.8H7.89999V12.68Z" fill="#892727" style="fill:#892727;fill:color(display-p3 0.5373 0.1529 0.1529);fill-opacity:1;"/>
<path d="M3.49999 12.68H2.4L2.39999 13.8H3.49999V12.68Z" fill="#CF6B55" style="fill:#CF6B55;fill:color(display-p3 0.8118 0.4196 0.3333);fill-opacity:1;"/>
<path d="M1.3 12.68H0.199997V14.92L1.3 14.92V12.68Z" fill="#F7FEFF" style="fill:#F7FEFF;fill:color(display-p3 0.9686 0.9961 1.0000);fill-opacity:1;"/>
<path d="M16.7 11.56H15.6V12.68H16.7L16.7 11.56Z" fill="#F7FEFF" style="fill:#F7FEFF;fill:color(display-p3 0.9686 0.9961 1.0000);fill-opacity:1;"/>
<path d="M15.6 11.56H14.5V12.68H15.6V11.56Z" fill="#231E2B" style="fill:#231E2B;fill:color(display-p3 0.1373 0.1176 0.1686);fill-opacity:1;"/>
<path d="M14.5 11.56H13.4V12.68L14.5 12.68V11.56Z" fill="#CF6B55" style="fill:#CF6B55;fill:color(display-p3 0.8118 0.4196 0.3333);fill-opacity:1;"/>
<path d="M10.1 11.56H7.89999V12.68H10.1L10.1 11.56Z" fill="#892727" style="fill:#892727;fill:color(display-p3 0.5373 0.1529 0.1529);fill-opacity:1;"/>
<path d="M4.6 11.56H3.5L3.49999 12.68L4.6 12.68V11.56Z" fill="#CF6B55" style="fill:#CF6B55;fill:color(display-p3 0.8118 0.4196 0.3333);fill-opacity:1;"/>
<path d="M3.5 11.56H2.39999L2.4 12.68H3.49999L3.5 11.56Z" fill="#231E2B" style="fill:#231E2B;fill:color(display-p3 0.1373 0.1176 0.1686);fill-opacity:1;"/>
<path d="M2.39999 11.56H1.3V12.68H2.4L2.39999 11.56Z" fill="#F7FEFF" style="fill:#F7FEFF;fill:color(display-p3 0.9686 0.9961 1.0000);fill-opacity:1;"/>
<path d="M15.6 10.44H14.5V11.56H15.6L15.6 10.44Z" fill="#F7FEFF" style="fill:#F7FEFF;fill:color(display-p3 0.9686 0.9961 1.0000);fill-opacity:1;"/>
<path d="M14.5 10.44H13.4V11.56H14.5V10.44Z" fill="#231E2B" style="fill:#231E2B;fill:color(display-p3 0.1373 0.1176 0.1686);fill-opacity:1;"/>
<path d="M13.4 10.44H12.3V11.56L13.4 11.56V10.44Z" fill="#CF6B55" style="fill:#CF6B55;fill:color(display-p3 0.8118 0.4196 0.3333);fill-opacity:1;"/>
<path d="M5.70001 10.44H4.60001L4.6 11.56L5.70001 11.56V10.44Z" fill="#CF6B55" style="fill:#CF6B55;fill:color(display-p3 0.8118 0.4196 0.3333);fill-opacity:1;"/>
<path d="M4.60001 10.44H3.5V11.56H4.6L4.60001 10.44Z" fill="#231E2B" style="fill:#231E2B;fill:color(display-p3 0.1373 0.1176 0.1686);fill-opacity:1;"/>
<path d="M3.5 10.44H2.39999V11.56H3.5V10.44Z" fill="#F7FEFF" style="fill:#F7FEFF;fill:color(display-p3 0.9686 0.9961 1.0000);fill-opacity:1;"/>
<path d="M5.70001 8.2H4.60001V10.44H5.70001V8.2Z" fill="#231E2B" style="fill:#231E2B;fill:color(display-p3 0.1373 0.1176 0.1686);fill-opacity:1;"/>
<path d="M4.60001 8.2H3.5V10.44H4.60001V8.2Z" fill="#F7FEFF" style="fill:#F7FEFF;fill:color(display-p3 0.9686 0.9961 1.0000);fill-opacity:1;"/>
<path d="M14.5 8.2H13.4V10.44H14.5L14.5 8.2Z" fill="#F7FEFF" style="fill:#F7FEFF;fill:color(display-p3 0.9686 0.9961 1.0000);fill-opacity:1;"/>
<path d="M13.4 8.2H12.3V10.44H13.4V8.2Z" fill="#231E2B" style="fill:#231E2B;fill:color(display-p3 0.1373 0.1176 0.1686);fill-opacity:1;"/>
<path d="M12.3 8.2H11.2V9.32H12.3L12.3 8.2Z" fill="#892727" style="fill:#892727;fill:color(display-p3 0.5373 0.1529 0.1529);fill-opacity:1;"/>
<path d="M6.8 8.2H5.70001L5.7 9.32H6.8V8.2Z" fill="#892727" style="fill:#892727;fill:color(display-p3 0.5373 0.1529 0.1529);fill-opacity:1;"/>
<path d="M15.6 7.08H14.5L14.5 8.2L15.6 8.2V7.08Z" fill="#F7FEFF" style="fill:#F7FEFF;fill:color(display-p3 0.9686 0.9961 1.0000);fill-opacity:1;"/>
<path d="M14.5 7.08H13.4V8.2H14.5L14.5 7.08Z" fill="#231E2B" style="fill:#231E2B;fill:color(display-p3 0.1373 0.1176 0.1686);fill-opacity:1;"/>
<path d="M13.4 7.08H12.3V8.2H13.4V7.08Z" fill="#892727" style="fill:#892727;fill:color(display-p3 0.5373 0.1529 0.1529);fill-opacity:1;"/>
<path d="M5.70001 7.08H4.60001V8.2H5.70001V7.08Z" fill="#892727" style="fill:#892727;fill:color(display-p3 0.5373 0.1529 0.1529);fill-opacity:1;"/>
<path d="M4.60001 7.08H3.5V8.2H4.60001V7.08Z" fill="#231E2B" style="fill:#231E2B;fill:color(display-p3 0.1373 0.1176 0.1686);fill-opacity:1;"/>
<path d="M3.5 7.08H2.39999V8.2L3.5 8.2V7.08Z" fill="#F7FEFF" style="fill:#F7FEFF;fill:color(display-p3 0.9686 0.9961 1.0000);fill-opacity:1;"/>
<path d="M16.7 5.96H15.6L15.6 7.08L16.7 7.08V5.96Z" fill="#F7FEFF" style="fill:#F7FEFF;fill:color(display-p3 0.9686 0.9961 1.0000);fill-opacity:1;"/>
<path d="M15.6 5.96H14.5V7.08H15.6L15.6 5.96Z" fill="#231E2B" style="fill:#231E2B;fill:color(display-p3 0.1373 0.1176 0.1686);fill-opacity:1;"/>
<path d="M14.5 5.96H13.4V7.08H14.5V5.96Z" fill="#892727" style="fill:#892727;fill:color(display-p3 0.5373 0.1529 0.1529);fill-opacity:1;"/>
<path d="M10.1 5.96H7.89999V7.08H10.1V5.96Z" fill="#CF6B55" style="fill:#CF6B55;fill:color(display-p3 0.8118 0.4196 0.3333);fill-opacity:1;"/>
<path d="M4.6 5.96H3.5V7.08H4.60001L4.6 5.96Z" fill="#892727" style="fill:#892727;fill:color(display-p3 0.5373 0.1529 0.1529);fill-opacity:1;"/>
<path d="M3.5 5.96H2.39999V7.08H3.5V5.96Z" fill="#231E2B" style="fill:#231E2B;fill:color(display-p3 0.1373 0.1176 0.1686);fill-opacity:1;"/>
<path d="M2.39999 5.96H1.3V7.08L2.39999 7.08V5.96Z" fill="#F7FEFF" style="fill:#F7FEFF;fill:color(display-p3 0.9686 0.9961 1.0000);fill-opacity:1;"/>
<path d="M15.6 4.84H14.5V5.96H15.6L15.6 4.84Z" fill="#892727" style="fill:#892727;fill:color(display-p3 0.5373 0.1529 0.1529);fill-opacity:1;"/>
<path d="M11.2 4.84H10.1L10.1 5.96L11.2 5.96V4.84Z" fill="#CF6B55" style="fill:#CF6B55;fill:color(display-p3 0.8118 0.4196 0.3333);fill-opacity:1;"/>
<path d="M10.1 4.84H7.89999V5.96H10.1L10.1 4.84Z" fill="#231E2B" style="fill:#231E2B;fill:color(display-p3 0.1373 0.1176 0.1686);fill-opacity:1;"/>
<path d="M7.89999 4.84H6.8V5.96L7.89999 5.96V4.84Z" fill="#CF6B55" style="fill:#CF6B55;fill:color(display-p3 0.8118 0.4196 0.3333);fill-opacity:1;"/>
<path d="M3.49999 4.84H2.39999V5.96H3.5L3.49999 4.84Z" fill="#892727" style="fill:#892727;fill:color(display-p3 0.5373 0.1529 0.1529);fill-opacity:1;"/>
<path d="M2.4 3.72H1.3V5.96H2.39999L2.4 3.72Z" fill="#231E2B" style="fill:#231E2B;fill:color(display-p3 0.1373 0.1176 0.1686);fill-opacity:1;"/>
<path d="M17.8 3.72H16.7L16.7 5.96L17.8 5.96V3.72Z" fill="#F7FEFF" style="fill:#F7FEFF;fill:color(display-p3 0.9686 0.9961 1.0000);fill-opacity:1;"/>
<path d="M16.7 3.72H15.6V5.96H16.7L16.7 3.72Z" fill="#231E2B" style="fill:#231E2B;fill:color(display-p3 0.1373 0.1176 0.1686);fill-opacity:1;"/>
<path d="M15.6 3.72H14.5V4.84H15.6L15.6 3.72Z" fill="#CF6B55" style="fill:#CF6B55;fill:color(display-p3 0.8118 0.4196 0.3333);fill-opacity:1;"/>
<path d="M14.5 3.72H12.3V4.84L11.2 4.84V5.96L10.1 5.96V7.08H7.89999V5.96L6.8 5.96V4.84L5.69999 4.84V3.72H2.4L2.39999 4.84H3.49999L3.5 5.96H4.6L4.60001 7.08H5.70001V8.2H6.8V9.32H5.7L5.70001 11.56L4.6 11.56V12.68L3.49999 12.68L3.5 14.92H5.7V13.8H6.8V12.68H7.89999V11.56H10.1L10.1 12.68H11.2L11.2 13.8H12.3L12.3 14.92H14.5V12.68L13.4 12.68V11.56L12.3 11.56L12.3 9.32H11.2V8.2H12.3V7.08H13.4V5.96H14.5V3.72Z" fill="#B0392E" style="fill:#B0392E;fill:color(display-p3 0.6902 0.2235 0.1804);fill-opacity:1;"/>
<path d="M12.3 3.72H11.2L11.2 4.84L12.3 4.84V3.72Z" fill="#CF6B55" style="fill:#CF6B55;fill:color(display-p3 0.8118 0.4196 0.3333);fill-opacity:1;"/>
<path d="M11.2 3.72H10.1V4.84H11.2L11.2 3.72Z" fill="#231E2B" style="fill:#231E2B;fill:color(display-p3 0.1373 0.1176 0.1686);fill-opacity:1;"/>
<path d="M10.1 3.72H7.89999V4.84H10.1V3.72Z" fill="#F7FEFF" style="fill:#F7FEFF;fill:color(display-p3 0.9686 0.9961 1.0000);fill-opacity:1;"/>
<path d="M7.89999 3.72H6.8V4.84H7.89999V3.72Z" fill="#231E2B" style="fill:#231E2B;fill:color(display-p3 0.1373 0.1176 0.1686);fill-opacity:1;"/>
<path d="M6.8 3.72H5.69999V4.84L6.8 4.84V3.72Z" fill="#CF6B55" style="fill:#CF6B55;fill:color(display-p3 0.8118 0.4196 0.3333);fill-opacity:1;"/>
<path d="M1.3 3.72H0.199997V5.96L1.3 5.96V3.72Z" fill="#F7FEFF" style="fill:#F7FEFF;fill:color(display-p3 0.9686 0.9961 1.0000);fill-opacity:1;"/>
<path d="M16.7 2.6H15.6V3.72H16.7L16.7 2.6Z" fill="#F7FEFF" style="fill:#F7FEFF;fill:color(display-p3 0.9686 0.9961 1.0000);fill-opacity:1;"/>
<path d="M15.6 2.6H14.5V3.72H15.6V2.6Z" fill="#231E2B" style="fill:#231E2B;fill:color(display-p3 0.1373 0.1176 0.1686);fill-opacity:1;"/>
<path d="M14.5 2.6H12.3L12.3 3.72H14.5V2.6Z" fill="#CF6B55" style="fill:#CF6B55;fill:color(display-p3 0.8118 0.4196 0.3333);fill-opacity:1;"/>
<path d="M12.3 2.6H11.2V3.72H12.3L12.3 2.6Z" fill="#231E2B" style="fill:#231E2B;fill:color(display-p3 0.1373 0.1176 0.1686);fill-opacity:1;"/>
<path d="M11.2 2.6H10.1V3.72H11.2V2.6Z" fill="#F7FEFF" style="fill:#F7FEFF;fill:color(display-p3 0.9686 0.9961 1.0000);fill-opacity:1;"/>
<path d="M7.9 2.6H6.8V3.72H7.89999L7.9 2.6Z" fill="#F7FEFF" style="fill:#F7FEFF;fill:color(display-p3 0.9686 0.9961 1.0000);fill-opacity:1;"/>
<path d="M6.8 2.6H5.7L5.69999 3.72H6.8V2.6Z" fill="#231E2B" style="fill:#231E2B;fill:color(display-p3 0.1373 0.1176 0.1686);fill-opacity:1;"/>
<path d="M5.7 2.6H3.5V3.72L5.69999 3.72L5.7 2.6Z" fill="#CF6B55" style="fill:#CF6B55;fill:color(display-p3 0.8118 0.4196 0.3333);fill-opacity:1;"/>
<path d="M3.5 2.6H2.39999L2.4 3.72L3.5 3.72V2.6Z" fill="#231E2B" style="fill:#231E2B;fill:color(display-p3 0.1373 0.1176 0.1686);fill-opacity:1;"/>
<path d="M2.39999 2.6H1.3V3.72H2.4L2.39999 2.6Z" fill="#F7FEFF" style="fill:#F7FEFF;fill:color(display-p3 0.9686 0.9961 1.0000);fill-opacity:1;"/>
<path d="M15.6 1.48H14.5V2.6H15.6L15.6 1.48Z" fill="#F7FEFF" style="fill:#F7FEFF;fill:color(display-p3 0.9686 0.9961 1.0000);fill-opacity:1;"/>
<path d="M14.5 1.48H12.3V2.6H14.5V1.48Z" fill="#231E2B" style="fill:#231E2B;fill:color(display-p3 0.1373 0.1176 0.1686);fill-opacity:1;"/>
<path d="M12.3 1.48H11.2V2.6H12.3V1.48Z" fill="#F7FEFF" style="fill:#F7FEFF;fill:color(display-p3 0.9686 0.9961 1.0000);fill-opacity:1;"/>
<path d="M6.8 1.48H5.7V2.6H6.8L6.8 1.48Z" fill="#F7FEFF" style="fill:#F7FEFF;fill:color(display-p3 0.9686 0.9961 1.0000);fill-opacity:1;"/>
<path d="M5.7 1.48H3.5V2.6H5.7V1.48Z" fill="#231E2B" style="fill:#231E2B;fill:color(display-p3 0.1373 0.1176 0.1686);fill-opacity:1;"/>
<path d="M3.5 1.48H2.39999V2.6H3.5V1.48Z" fill="#F7FEFF" style="fill:#F7FEFF;fill:color(display-p3 0.9686 0.9961 1.0000);fill-opacity:1;"/>
<path d="M14.5 0.360001H12.3V1.48H14.5L14.5 0.360001Z" fill="#F7FEFF" style="fill:#F7FEFF;fill:color(display-p3 0.9686 0.9961 1.0000);fill-opacity:1;"/>
<path d="M5.7 0.360001H3.5V1.48H5.7L5.7 0.360001Z" fill="#F7FEFF" style="fill:#F7FEFF;fill:color(display-p3 0.9686 0.9961 1.0000);fill-opacity:1;"/>
</svg>
