<svg width="19" height="16" viewBox="0 0 19 16" fill="none" xmlns="http://www.w3.org/2000/svg">
<path d="M9.4 14.04H7.2V15.16H9.4V14.04Z" fill="#F7FEFF" style="fill:#F7FEFF;fill:color(display-p3 0.9686 0.9961 1.0000);fill-opacity:1;"/>
<path d="M10.5 12.92H9.39999L9.4 14.04L10.5 14.04V12.92Z" fill="#F7FEFF" style="fill:#F7FEFF;fill:color(display-p3 0.9686 0.9961 1.0000);fill-opacity:1;"/>
<path d="M9.39999 12.92H7.2V14.04H9.4L9.39999 12.92Z" fill="#231E2B" style="fill:#231E2B;fill:color(display-p3 0.1373 0.1176 0.1686);fill-opacity:1;"/>
<path d="M7.2 12.92H6.10001V14.04L7.2 14.04V12.92Z" fill="#F7FEFF" style="fill:#F7FEFF;fill:color(display-p3 0.9686 0.9961 1.0000);fill-opacity:1;"/>
<path d="M11.6 11.8H10.5L10.5 12.92L11.6 12.92V11.8Z" fill="#F7FEFF" style="fill:#F7FEFF;fill:color(display-p3 0.9686 0.9961 1.0000);fill-opacity:1;"/>
<path d="M10.5 11.8H9.39999V12.92H10.5L10.5 11.8Z" fill="#231E2B" style="fill:#231E2B;fill:color(display-p3 0.1373 0.1176 0.1686);fill-opacity:1;"/>
<path d="M9.39999 11.8H7.2V12.92H9.39999V11.8Z" fill="#356E69" style="fill:#356E69;fill:color(display-p3 0.2078 0.4314 0.4118);fill-opacity:1;"/>
<path d="M7.2 11.8H6.10001V12.92H7.2V11.8Z" fill="#231E2B" style="fill:#231E2B;fill:color(display-p3 0.1373 0.1176 0.1686);fill-opacity:1;"/>
<path d="M6.10001 11.8H5V12.92L6.10001 12.92V11.8Z" fill="#F7FEFF" style="fill:#F7FEFF;fill:color(display-p3 0.9686 0.9961 1.0000);fill-opacity:1;"/>
<path d="M12.7 10.68H11.6L11.6 11.8L12.7 11.8V10.68Z" fill="#F7FEFF" style="fill:#F7FEFF;fill:color(display-p3 0.9686 0.9961 1.0000);fill-opacity:1;"/>
<path d="M11.6 10.68H10.5V11.8H11.6L11.6 10.68Z" fill="#231E2B" style="fill:#231E2B;fill:color(display-p3 0.1373 0.1176 0.1686);fill-opacity:1;"/>
<path d="M10.5 10.68H9.39999V11.8H10.5V10.68Z" fill="#356E69" style="fill:#356E69;fill:color(display-p3 0.2078 0.4314 0.4118);fill-opacity:1;"/>
<path d="M7.20001 10.68H6.10001V11.8H7.2L7.20001 10.68Z" fill="#356E69" style="fill:#356E69;fill:color(display-p3 0.2078 0.4314 0.4118);fill-opacity:1;"/>
<path d="M6.10001 10.68H5V11.8H6.10001V10.68Z" fill="#231E2B" style="fill:#231E2B;fill:color(display-p3 0.1373 0.1176 0.1686);fill-opacity:1;"/>
<path d="M5 10.68H3.89999V11.8L5 11.8V10.68Z" fill="#F7FEFF" style="fill:#F7FEFF;fill:color(display-p3 0.9686 0.9961 1.0000);fill-opacity:1;"/>
<path d="M13.8 9.56H12.7L12.7 10.68L13.8 10.68V9.56Z" fill="#F7FEFF" style="fill:#F7FEFF;fill:color(display-p3 0.9686 0.9961 1.0000);fill-opacity:1;"/>
<path d="M12.7 9.56H11.6V10.68H12.7L12.7 9.56Z" fill="#231E2B" style="fill:#231E2B;fill:color(display-p3 0.1373 0.1176 0.1686);fill-opacity:1;"/>
<path d="M11.6 9.56H10.5V10.68H11.6V9.56Z" fill="#356E69" style="fill:#356E69;fill:color(display-p3 0.2078 0.4314 0.4118);fill-opacity:1;"/>
<path d="M6.1 9.56H5V10.68H6.10001L6.1 9.56Z" fill="#356E69" style="fill:#356E69;fill:color(display-p3 0.2078 0.4314 0.4118);fill-opacity:1;"/>
<path d="M5 9.56H3.89999V10.68H5V9.56Z" fill="#231E2B" style="fill:#231E2B;fill:color(display-p3 0.1373 0.1176 0.1686);fill-opacity:1;"/>
<path d="M3.89999 9.56H2.8V10.68L3.89999 10.68V9.56Z" fill="#F7FEFF" style="fill:#F7FEFF;fill:color(display-p3 0.9686 0.9961 1.0000);fill-opacity:1;"/>
<path d="M14.9 8.44H13.8L13.8 9.56L14.9 9.56V8.44Z" fill="#F7FEFF" style="fill:#F7FEFF;fill:color(display-p3 0.9686 0.9961 1.0000);fill-opacity:1;"/>
<path d="M13.8 8.44H12.7V9.56H13.8L13.8 8.44Z" fill="#231E2B" style="fill:#231E2B;fill:color(display-p3 0.1373 0.1176 0.1686);fill-opacity:1;"/>
<path d="M12.7 8.44H11.6V9.56H12.7V8.44Z" fill="#356E69" style="fill:#356E69;fill:color(display-p3 0.2078 0.4314 0.4118);fill-opacity:1;"/>
<path d="M4.99999 8.44H3.89999V9.56H5L4.99999 8.44Z" fill="#356E69" style="fill:#356E69;fill:color(display-p3 0.2078 0.4314 0.4118);fill-opacity:1;"/>
<path d="M3.89999 8.44H2.8V9.56H3.89999V8.44Z" fill="#231E2B" style="fill:#231E2B;fill:color(display-p3 0.1373 0.1176 0.1686);fill-opacity:1;"/>
<path d="M2.8 8.44H1.7V9.56L2.8 9.56V8.44Z" fill="#F7FEFF" style="fill:#F7FEFF;fill:color(display-p3 0.9686 0.9961 1.0000);fill-opacity:1;"/>
<path d="M16 7.32H14.9L14.9 8.44L16 8.44V7.32Z" fill="#F7FEFF" style="fill:#F7FEFF;fill:color(display-p3 0.9686 0.9961 1.0000);fill-opacity:1;"/>
<path d="M14.9 7.32H13.8V8.44H14.9L14.9 7.32Z" fill="#231E2B" style="fill:#231E2B;fill:color(display-p3 0.1373 0.1176 0.1686);fill-opacity:1;"/>
<path d="M13.8 7.32H12.7V8.44H13.8V7.32Z" fill="#356E69" style="fill:#356E69;fill:color(display-p3 0.2078 0.4314 0.4118);fill-opacity:1;"/>
<path d="M9.4 7.32H7.2V8.44H9.4V7.32Z" fill="#ACC756" style="fill:#ACC756;fill:color(display-p3 0.6745 0.7804 0.3373);fill-opacity:1;"/>
<path d="M3.9 7.32H2.8V8.44H3.89999L3.9 7.32Z" fill="#356E69" style="fill:#356E69;fill:color(display-p3 0.2078 0.4314 0.4118);fill-opacity:1;"/>
<path d="M2.8 6.2H1.7V8.44H2.8L2.8 6.2Z" fill="#231E2B" style="fill:#231E2B;fill:color(display-p3 0.1373 0.1176 0.1686);fill-opacity:1;"/>
<path d="M17.1 6.2H16L16 7.32L17.1 7.32V6.2Z" fill="#F7FEFF" style="fill:#F7FEFF;fill:color(display-p3 0.9686 0.9961 1.0000);fill-opacity:1;"/>
<path d="M16 6.2H14.9V7.32H16L16 6.2Z" fill="#231E2B" style="fill:#231E2B;fill:color(display-p3 0.1373 0.1176 0.1686);fill-opacity:1;"/>
<path d="M14.9 6.2H13.8V7.32H14.9V6.2Z" fill="#356E69" style="fill:#356E69;fill:color(display-p3 0.2078 0.4314 0.4118);fill-opacity:1;"/>
<path d="M10.5 6.2H9.39999L9.4 7.32L10.5 7.32V6.2Z" fill="#ACC756" style="fill:#ACC756;fill:color(display-p3 0.6745 0.7804 0.3373);fill-opacity:1;"/>
<path d="M9.39999 6.2H7.2V7.32H9.4L9.39999 6.2Z" fill="#231E2B" style="fill:#231E2B;fill:color(display-p3 0.1373 0.1176 0.1686);fill-opacity:1;"/>
<path d="M7.2 6.2H6.10001V7.32L7.2 7.32V6.2Z" fill="#ACC756" style="fill:#ACC756;fill:color(display-p3 0.6745 0.7804 0.3373);fill-opacity:1;"/>
<path d="M1.7 6.2H0.600006V8.44L1.7 8.44V6.2Z" fill="#F7FEFF" style="fill:#F7FEFF;fill:color(display-p3 0.9686 0.9961 1.0000);fill-opacity:1;"/>
<path d="M16 5.08H14.9V6.2H16L16 5.08Z" fill="#356E69" style="fill:#356E69;fill:color(display-p3 0.2078 0.4314 0.4118);fill-opacity:1;"/>
<path d="M11.6 5.08H10.5L10.5 6.2L11.6 6.2V5.08Z" fill="#ACC756" style="fill:#ACC756;fill:color(display-p3 0.6745 0.7804 0.3373);fill-opacity:1;"/>
<path d="M10.5 5.08H9.39999V6.2H10.5L10.5 5.08Z" fill="#231E2B" style="fill:#231E2B;fill:color(display-p3 0.1373 0.1176 0.1686);fill-opacity:1;"/>
<path d="M9.39999 5.08H7.2V6.2H9.39999V5.08Z" fill="#F7FEFF" style="fill:#F7FEFF;fill:color(display-p3 0.9686 0.9961 1.0000);fill-opacity:1;"/>
<path d="M7.2 5.08H6.10001V6.2H7.2V5.08Z" fill="#231E2B" style="fill:#231E2B;fill:color(display-p3 0.1373 0.1176 0.1686);fill-opacity:1;"/>
<path d="M6.10001 5.08H3.89999V6.2L6.10001 6.2V5.08Z" fill="#ACC756" style="fill:#ACC756;fill:color(display-p3 0.6745 0.7804 0.3373);fill-opacity:1;"/>
<path d="M3.89999 5.08H2.8L2.8 6.2L3.89999 6.2V5.08Z" fill="#231E2B" style="fill:#231E2B;fill:color(display-p3 0.1373 0.1176 0.1686);fill-opacity:1;"/>
<path d="M2.8 5.08H1.7V6.2H2.8L2.8 5.08Z" fill="#F7FEFF" style="fill:#F7FEFF;fill:color(display-p3 0.9686 0.9961 1.0000);fill-opacity:1;"/>
<path d="M18.2 3.96H17.1L17.1 6.2L18.2 6.2V3.96Z" fill="#F7FEFF" style="fill:#F7FEFF;fill:color(display-p3 0.9686 0.9961 1.0000);fill-opacity:1;"/>
<path d="M17.1 3.96H16V6.2H17.1L17.1 3.96Z" fill="#231E2B" style="fill:#231E2B;fill:color(display-p3 0.1373 0.1176 0.1686);fill-opacity:1;"/>
<path d="M16 3.96H14.9V5.08H16L16 3.96Z" fill="#ACC756" style="fill:#ACC756;fill:color(display-p3 0.6745 0.7804 0.3373);fill-opacity:1;"/>
<path d="M14.9 3.96H12.7V5.08L11.6 5.08V6.2L10.5 6.2V7.32L9.4 7.32V8.44H7.2V7.32L6.10001 7.32V6.2H2.8L2.8 7.32H3.9L3.89999 8.44H4.99999L5 9.56H6.1L6.10001 10.68H7.20001L7.2 11.8H9.39999V10.68H10.5V9.56H11.6V8.44H12.7V7.32H13.8V6.2H14.9V3.96Z" fill="#4FAB59" style="fill:#4FAB59;fill:color(display-p3 0.3098 0.6706 0.3490);fill-opacity:1;"/>
<path d="M12.7 3.96H11.6L11.6 5.08L12.7 5.08V3.96Z" fill="#ACC756" style="fill:#ACC756;fill:color(display-p3 0.6745 0.7804 0.3373);fill-opacity:1;"/>
<path d="M11.6 3.96H10.5V5.08H11.6L11.6 3.96Z" fill="#231E2B" style="fill:#231E2B;fill:color(display-p3 0.1373 0.1176 0.1686);fill-opacity:1;"/>
<path d="M10.5 3.96H9.39999V5.08H10.5V3.96Z" fill="#F7FEFF" style="fill:#F7FEFF;fill:color(display-p3 0.9686 0.9961 1.0000);fill-opacity:1;"/>
<path d="M7.20001 3.96H6.10001V5.08H7.2L7.20001 3.96Z" fill="#F7FEFF" style="fill:#F7FEFF;fill:color(display-p3 0.9686 0.9961 1.0000);fill-opacity:1;"/>
<path d="M6.10001 3.96H3.89999V5.08H6.10001V3.96Z" fill="#231E2B" style="fill:#231E2B;fill:color(display-p3 0.1373 0.1176 0.1686);fill-opacity:1;"/>
<path d="M3.89999 3.96H2.8V5.08H3.89999V3.96Z" fill="#F7FEFF" style="fill:#F7FEFF;fill:color(display-p3 0.9686 0.9961 1.0000);fill-opacity:1;"/>
<path d="M17.1 2.84H16V3.96H17.1L17.1 2.84Z" fill="#F7FEFF" style="fill:#F7FEFF;fill:color(display-p3 0.9686 0.9961 1.0000);fill-opacity:1;"/>
<path d="M16 2.84H14.9V3.96H16V2.84Z" fill="#231E2B" style="fill:#231E2B;fill:color(display-p3 0.1373 0.1176 0.1686);fill-opacity:1;"/>
<path d="M14.9 2.84H12.7L12.7 3.96H14.9V2.84Z" fill="#ACC756" style="fill:#ACC756;fill:color(display-p3 0.6745 0.7804 0.3373);fill-opacity:1;"/>
<path d="M12.7 2.84H11.6V3.96H12.7L12.7 2.84Z" fill="#231E2B" style="fill:#231E2B;fill:color(display-p3 0.1373 0.1176 0.1686);fill-opacity:1;"/>
<path d="M11.6 2.84H10.5V3.96H11.6V2.84Z" fill="#F7FEFF" style="fill:#F7FEFF;fill:color(display-p3 0.9686 0.9961 1.0000);fill-opacity:1;"/>
<path d="M6.09999 2.84H3.89999V3.96H6.10001L6.09999 2.84Z" fill="#F7FEFF" style="fill:#F7FEFF;fill:color(display-p3 0.9686 0.9961 1.0000);fill-opacity:1;"/>
<path d="M16 1.72H14.9V2.84H16L16 1.72Z" fill="#F7FEFF" style="fill:#F7FEFF;fill:color(display-p3 0.9686 0.9961 1.0000);fill-opacity:1;"/>
<path d="M14.9 1.72H12.7V2.84H14.9V1.72Z" fill="#231E2B" style="fill:#231E2B;fill:color(display-p3 0.1373 0.1176 0.1686);fill-opacity:1;"/>
<path d="M12.7 1.72H11.6V2.84H12.7V1.72Z" fill="#F7FEFF" style="fill:#F7FEFF;fill:color(display-p3 0.9686 0.9961 1.0000);fill-opacity:1;"/>
<path d="M14.9 0.599998H12.7V1.72H14.9L14.9 0.599998Z" fill="#F7FEFF" style="fill:#F7FEFF;fill:color(display-p3 0.9686 0.9961 1.0000);fill-opacity:1;"/>
</svg>
