<svg xmlns="http://www.w3.org/2000/svg" width="393" height="200" fill="none" viewBox="0 0 393 200">
  <path fill="#754C24" d="M77.519 189.333H67v10.519h10.519v-10.519Zm0-10.518H67v10.518h10.519v-10.518Zm0-10.519H67v10.519h10.519v-10.519Zm0-10.518H67v10.518h10.519v-10.518Zm0-10.519H67v10.519h10.519v-10.519Z"/>
  <path fill="#754C24" d="M77.519 136.741H67v10.518h10.519v-10.518Zm0-10.519H67v10.519h10.519v-10.519Zm0-10.518H67v10.518h10.519v-10.518Z"/>
  <path fill="#8F6436" d="M77.519 105.185H67v10.519h10.519v-10.519Zm0-10.518H67v10.518h10.519V94.667Z"/>
  <path fill="#754C24" d="M77.519 84.148H67v10.519h10.519V84.148Zm0-10.518H67v10.518h10.519V73.63Zm0-10.519H67V73.63h10.519V63.11Zm0-10.518H67V63.11h10.519V52.593Zm0-10.519H67v10.519h10.519V42.074Z"/>
  <path fill="#68401F" d="M77.519 31.555H67v10.519h10.519V31.556Z"/>
  <path fill="#00C29B" d="M77.519 21.037H67v10.518h10.519V21.037Z"/>
  <path fill="#00E3B5" d="M77.519 10.518H67v10.519h10.519V10.519Z"/>
  <path fill="#80EED3" d="M77.519 0H67v10.518h10.519V0Z"/>
  <path fill="#754C24" d="M67 189.333H56.481v10.519H67v-10.519Zm0-10.518H56.481v10.518H67v-10.518Zm0-10.519H56.481v10.519H67v-10.519Zm0-10.518H56.481v10.518H67v-10.518Zm0-10.519H56.481v10.519H67v-10.519Z"/>
  <path fill="#754C24" d="M67 136.741H56.481v10.518H67v-10.518Zm0-10.519H56.481v10.519H67v-10.519Zm0-10.518H56.481v10.518H67v-10.518Z"/>
  <path fill="#8F6436" d="M67 105.185H56.481v10.519H67v-10.519Z"/>
  <path fill="#754C24" d="M67 94.667H56.481v10.518H67V94.667Zm0-10.519H56.481v10.519H67V84.148Z"/>
  <path fill="#8F6436" d="M67 73.63H56.481v10.518H67V73.63Z"/>
  <path fill="#754C24" d="M67 63.111H56.481V73.63H67V63.11Zm0-10.518H56.481V63.11H67V52.593Zm0-10.519H56.481v10.519H67V42.074Z"/>
  <path fill="#68401F" d="M67 31.555H56.481v10.519H67V31.556Z"/>
  <path fill="#00C29B" d="M67 21.037H56.481v10.518H67V21.037Z"/>
  <path fill="#00E3B5" d="M67 10.518H56.481v10.519H67V10.519Z"/>
  <path fill="#80EED3" d="M67 0H56.481v10.518H67V0Z"/>
  <path fill="#754C24" d="M56.481 189.333H45.963v10.519H56.48v-10.519Zm0-10.518H45.963v10.518H56.48v-10.518Zm0-10.519H45.963v10.519H56.48v-10.519Zm0-10.518H45.963v10.518H56.48v-10.518Zm0-10.519H45.963v10.519H56.48v-10.519Z"/>
  <path fill="#754C24" d="M56.481 136.741H45.963v10.518H56.48v-10.518Zm0-10.519H45.963v10.519H56.48v-10.519Zm0-10.518H45.963v10.518H56.48v-10.518Zm0-10.519H45.963v10.519H56.48v-10.519Zm0-10.518H45.963v10.518H56.48V94.667Z"/>
  <path fill="#8F6436" d="M56.481 84.148H45.963v10.519H56.48V84.148Z"/>
  <path fill="#F9C62C" d="M56.481 73.63H45.963v10.518H56.48V73.63Z"/>
  <path fill="#8F6436" d="M56.481 63.111H45.963V73.63H56.48V63.11Z"/>
  <path fill="#754C24" d="M56.481 52.593H45.963V63.11H56.48V52.593Z"/>
  <path fill="#68401F" d="M56.481 42.074H45.963v10.519H56.48V42.074Z"/>
  <path fill="#00C29B" d="M56.481 31.555H45.963v10.519H56.48V31.556Z"/>
  <path fill="#00E3B5" d="M56.481 21.037H45.963v10.518H56.48V21.037Zm0-10.519H45.963v10.519H56.48V10.519Z"/>
  <path fill="#80EED3" d="M56.481 0H45.963v10.518H56.48V0Z"/>
  <path fill="#754C24" d="M45.963 189.333H35.445v10.519h10.518v-10.519Zm0-10.518H35.445v10.518h10.518v-10.518Zm0-10.519H35.445v10.519h10.518v-10.519Zm0-10.518H35.445v10.518h10.518v-10.518Zm0-10.519H35.445v10.519h10.518v-10.519Z"/>
  <path fill="#754C24" d="M45.963 136.741H35.445v10.518h10.518v-10.518Zm0-10.519H35.445v10.519h10.518v-10.519Zm0-10.518H35.445v10.518h10.518v-10.518Zm0-10.519H35.445v10.519h10.518v-10.519Zm0-10.518H35.445v10.518h10.518V94.667Z"/>
  <path fill="#8F6436" d="M45.963 84.148H35.445v10.519h10.518V84.148Z"/>
  <path fill="#F9C62C" d="M45.963 73.63H35.445v10.518h10.518V73.63Z"/>
  <path fill="#8F6436" d="M45.963 63.111H35.445V73.63h10.518V63.11Z"/>
  <path fill="#754C24" d="M45.963 52.593H35.445V63.11h10.518V52.593Z"/>
  <path fill="#68401F" d="M45.963 42.074H35.445v10.519h10.518V42.074Z"/>
  <path fill="#00C29B" d="M45.963 31.555H35.445v10.519h10.518V31.556Z"/>
  <path fill="#00E3B5" d="M45.963 21.037H35.445v10.518h10.518V21.037Zm0-10.519H35.445v10.519h10.518V10.519Z"/>
  <path fill="#80EED3" d="M45.963 0H35.445v10.518h10.518V0Z"/>
  <path fill="#754C24" d="M35.444 189.333H24.926v10.519h10.518v-10.519Zm0-10.518H24.926v10.518h10.518v-10.518Zm0-10.519H24.926v10.519h10.518v-10.519Zm0-10.518H24.926v10.518h10.518v-10.518Zm0-10.519H24.926v10.519h10.518v-10.519Z"/>
  <path fill="#754C24" d="M35.444 136.741H24.926v10.518h10.518v-10.518Zm0-10.519H24.926v10.519h10.518v-10.519Zm0-10.518H24.926v10.518h10.518v-10.518Zm0-10.519H24.926v10.519h10.518v-10.519Zm0-10.518H24.926v10.518h10.518V94.667Zm0-10.519H24.926v10.519h10.518V84.148Z"/>
  <path fill="#8F6436" d="M35.444 73.63H24.926v10.518h10.518V73.63Z"/>
  <path fill="#754C24" d="M35.444 63.111H24.926V73.63h10.518V63.11Zm0-10.518H24.926V63.11h10.518V52.593Z"/>
  <path fill="#68401F" d="M35.444 42.074H24.926v10.519h10.518V42.074Z"/>
  <path fill="#00C29B" d="M35.444 31.555H24.926v10.519h10.518V31.556Z"/>
  <path fill="#00E3B5" d="M35.444 21.037H24.926v10.518h10.518V21.037Zm0-10.519H24.926v10.519h10.518V10.519Z"/>
  <path fill="#80EED3" d="M35.444 0H24.926v10.518h10.518V0Z"/>
  <path fill="#754C24" d="M24.926 189.333H14.408v10.519h10.518v-10.519Zm0-10.518H14.408v10.518h10.518v-10.518Zm0-10.519H14.408v10.519h10.518v-10.519Zm0-10.518H14.408v10.518h10.518v-10.518Zm0-10.519H14.408v10.519h10.518v-10.519Z"/>
  <path fill="#754C24" d="M24.926 136.741H14.408v10.518h10.518v-10.518Zm0-10.519H14.408v10.519h10.518v-10.519Zm0-10.518H14.408v10.518h10.518v-10.518Zm0-10.519H14.408v10.519h10.518v-10.519Z"/>
  <path fill="#8F6436" d="M24.926 94.667H14.408v10.518h10.518V94.667Z"/>
  <path fill="#754C24" d="M24.926 84.148H14.408v10.519h10.518V84.148Z"/>
  <path fill="#8F6436" d="M24.926 73.63H14.408v10.518h10.518V73.63Z"/>
  <path fill="#754C24" d="M24.926 63.111H14.408V73.63h10.518V63.11Zm0-10.518H14.408V63.11h10.518V52.593Zm0-10.519H14.408v10.519h10.518V42.074Z"/>
  <path fill="#68401F" d="M24.926 31.555H14.408v10.519h10.518V31.556Z"/>
  <path fill="#00C29B" d="M24.926 21.037H14.408v10.518h10.518V21.037Z"/>
  <path fill="#00E3B5" d="M24.926 10.518H14.408v10.519h10.518V10.519Z"/>
  <path fill="#80EED3" d="M24.926 0H14.408v10.518h10.518V0Z"/>
  <path fill="#754C24" d="M14.407 189.333H3.89v10.519h10.518v-10.519Zm0-10.518H3.89v10.518h10.518v-10.518Zm0-10.519H3.89v10.519h10.518v-10.519Zm0-10.518H3.89v10.518h10.518v-10.518Zm0-10.519H3.89v10.519h10.518v-10.519Z"/>
  <path fill="#754C24" d="M14.407 136.741H3.89v10.518h10.518v-10.518Zm0-10.519H3.89v10.519h10.518v-10.519Zm0-10.518H3.89v10.518h10.518v-10.518Z"/>
  <path fill="#8F6436" d="M14.407 105.185H3.89v10.519h10.518v-10.519Zm0-10.518H3.89v10.518h10.518V94.667Z"/>
  <path fill="#754C24" d="M14.407 84.148H3.89v10.519h10.518V84.148Zm0-10.518H3.89v10.518h10.518V73.63Zm0-10.519H3.89V73.63h10.518V63.11Z"/>
  <path fill="#8F6436" d="M14.407 52.593H3.89V63.11h10.518V52.593Z"/>
  <path fill="#754C24" d="M14.407 42.074H3.89v10.519h10.518V42.074Zm0-10.519H3.89v10.519h10.518V31.556Z"/>
  <path fill="#68401F" d="M14.407 21.037H3.89v10.518h10.518V21.037Z"/>
  <path fill="#00E3B5" d="M14.407 10.518H3.89v10.519h10.518V10.519Z"/>
  <path fill="#80EED3" d="M14.407 0H3.89v10.518h10.518V0Z"/>
  <path fill="#754C24" d="M3.889 189.333H-6.63v10.519H3.89v-10.519Zm0-10.518H-6.63v10.518H3.89v-10.518Zm0-10.519H-6.63v10.519H3.89v-10.519Zm0-10.518H-6.63v10.518H3.89v-10.518Zm0-10.519H-6.63v10.519H3.89v-10.519Z"/>
  <path fill="#754C24" d="M3.889 136.741H-6.63v10.518H3.89v-10.518Zm0-10.519H-6.63v10.519H3.89v-10.519Zm0-10.518H-6.63v10.518H3.89v-10.518Zm0-10.519H-6.63v10.519H3.89v-10.519Zm0-10.518H-6.63v10.518H3.89V94.667Zm0-10.519H-6.63v10.519H3.89V84.148Zm0-10.518H-6.63v10.518H3.89V73.63Zm0-10.519H-6.63V73.63H3.89V63.11Z"/>
  <path fill="#8F6436" d="M3.889 52.593H-6.63V63.11H3.89V52.593Z"/>
  <path fill="#754C24" d="M3.889 42.074H-6.63v10.519H3.89V42.074Zm0-10.519H-6.63v10.519H3.89V31.556Z"/>
  <path fill="#68401F" d="M3.889 21.037H-6.63v10.518H3.89V21.037Z"/>
  <path fill="#00E3B5" d="M3.889 10.518H-6.63v10.519H3.89V10.519Z"/>
  <path fill="#80EED3" d="M3.889 0H-6.63v10.518H3.89V0Z"/>
  <path fill="#754C24" d="M372.037 189.333h-10.518v10.519h10.518v-10.519Zm0-10.518h-10.518v10.518h10.518v-10.518Zm0-10.519h-10.518v10.519h10.518v-10.519Zm0-10.518h-10.518v10.518h10.518v-10.518Zm0-10.519h-10.518v10.519h10.518v-10.519Z"/>
  <path fill="#754C24" d="M372.037 136.741h-10.518v10.518h10.518v-10.518Zm0-10.519h-10.518v10.519h10.518v-10.519Zm0-10.518h-10.518v10.518h10.518v-10.518Z"/>
  <path fill="#8F6436" d="M372.037 105.185h-10.518v10.519h10.518v-10.519Zm0-10.518h-10.518v10.518h10.518V94.667Z"/>
  <path fill="#754C24" d="M372.037 84.148h-10.518v10.519h10.518V84.148Zm0-10.518h-10.518v10.518h10.518V73.63Zm0-10.519h-10.518V73.63h10.518V63.11Zm0-10.518h-10.518V63.11h10.518V52.593Zm0-10.519h-10.518v10.519h10.518V42.074Z"/>
  <path fill="#68401F" d="M372.037 31.555h-10.518v10.519h10.518V31.556Z"/>
  <path fill="#00C29B" d="M372.037 21.037h-10.518v10.518h10.518V21.037Z"/>
  <path fill="#00E3B5" d="M372.037 10.518h-10.518v10.519h10.518V10.519Z"/>
  <path fill="#80EED3" d="M372.037 0h-10.518v10.518h10.518V0Z"/>
  <path fill="#754C24" d="M361.519 189.333H351v10.519h10.519v-10.519Zm0-10.518H351v10.518h10.519v-10.518Zm0-10.519H351v10.519h10.519v-10.519Zm0-10.518H351v10.518h10.519v-10.518Zm0-10.519H351v10.519h10.519v-10.519Z"/>
  <path fill="#754C24" d="M361.519 136.741H351v10.518h10.519v-10.518Zm0-10.519H351v10.519h10.519v-10.519Zm0-10.518H351v10.518h10.519v-10.518Z"/>
  <path fill="#8F6436" d="M361.519 105.185H351v10.519h10.519v-10.519Z"/>
  <path fill="#754C24" d="M361.519 94.667H351v10.518h10.519V94.667Zm0-10.519H351v10.519h10.519V84.148Z"/>
  <path fill="#8F6436" d="M361.519 73.63H351v10.518h10.519V73.63Z"/>
  <path fill="#754C24" d="M361.519 63.111H351V73.63h10.519V63.11Zm0-10.518H351V63.11h10.519V52.593Zm0-10.519H351v10.519h10.519V42.074Z"/>
  <path fill="#68401F" d="M361.519 31.555H351v10.519h10.519V31.556Z"/>
  <path fill="#00C29B" d="M361.519 21.037H351v10.518h10.519V21.037Z"/>
  <path fill="#00E3B5" d="M361.519 10.518H351v10.519h10.519V10.519Z"/>
  <path fill="#80EED3" d="M361.519 0H351v10.518h10.519V0Z"/>
  <path fill="#754C24" d="M351 189.333h-10.518v10.519H351v-10.519Zm0-10.518h-10.518v10.518H351v-10.518Zm0-10.519h-10.518v10.519H351v-10.519Zm0-10.518h-10.518v10.518H351v-10.518Zm0-10.519h-10.518v10.519H351v-10.519Z"/>
  <path fill="#754C24" d="M351 136.741h-10.518v10.518H351v-10.518Zm0-10.519h-10.518v10.519H351v-10.519Zm0-10.518h-10.518v10.518H351v-10.518Zm0-10.519h-10.518v10.519H351v-10.519Zm0-10.518h-10.518v10.518H351V94.667Z"/>
  <path fill="#8F6436" d="M351 84.148h-10.518v10.519H351V84.148Z"/>
  <path fill="#F9C62C" d="M351 73.63h-10.518v10.518H351V73.63Z"/>
  <path fill="#8F6436" d="M351 63.111h-10.518V73.63H351V63.11Z"/>
  <path fill="#754C24" d="M351 52.593h-10.518V63.11H351V52.593Z"/>
  <path fill="#68401F" d="M351 42.074h-10.518v10.519H351V42.074Z"/>
  <path fill="#00C29B" d="M351 31.555h-10.518v10.519H351V31.556Z"/>
  <path fill="#00E3B5" d="M351 21.037h-10.518v10.518H351V21.037Zm0-10.519h-10.518v10.519H351V10.519Z"/>
  <path fill="#80EED3" d="M351 0h-10.518v10.518H351V0Z"/>
  <path fill="#754C24" d="M340.482 189.333h-10.519v10.519h10.519v-10.519Zm0-10.518h-10.519v10.518h10.519v-10.518Zm0-10.519h-10.519v10.519h10.519v-10.519Zm0-10.518h-10.519v10.518h10.519v-10.518Zm0-10.519h-10.519v10.519h10.519v-10.519Z"/>
  <path fill="#754C24" d="M340.482 136.741h-10.519v10.518h10.519v-10.518Zm0-10.519h-10.519v10.519h10.519v-10.519Zm0-10.518h-10.519v10.518h10.519v-10.518Zm0-10.519h-10.519v10.519h10.519v-10.519Zm0-10.518h-10.519v10.518h10.519V94.667Z"/>
  <path fill="#8F6436" d="M340.482 84.148h-10.519v10.519h10.519V84.148Z"/>
  <path fill="#F9C62C" d="M340.482 73.63h-10.519v10.518h10.519V73.63Z"/>
  <path fill="#8F6436" d="M340.482 63.111h-10.519V73.63h10.519V63.11Z"/>
  <path fill="#754C24" d="M340.482 52.593h-10.519V63.11h10.519V52.593Z"/>
  <path fill="#68401F" d="M340.482 42.074h-10.519v10.519h10.519V42.074Z"/>
  <path fill="#00C29B" d="M340.482 31.555h-10.519v10.519h10.519V31.556Z"/>
  <path fill="#00E3B5" d="M340.482 21.037h-10.519v10.518h10.519V21.037Zm0-10.519h-10.519v10.519h10.519V10.519Z"/>
  <path fill="#80EED3" d="M340.482 0h-10.519v10.518h10.519V0Z"/>
  <path fill="#754C24" d="M329.963 189.333h-10.518v10.519h10.518v-10.519Zm0-10.518h-10.518v10.518h10.518v-10.518Zm0-10.519h-10.518v10.519h10.518v-10.519Zm0-10.518h-10.518v10.518h10.518v-10.518Zm0-10.519h-10.518v10.519h10.518v-10.519Z"/>
  <path fill="#754C24" d="M329.963 136.741h-10.518v10.518h10.518v-10.518Zm0-10.519h-10.518v10.519h10.518v-10.519Zm0-10.518h-10.518v10.518h10.518v-10.518Zm0-10.519h-10.518v10.519h10.518v-10.519Zm0-10.518h-10.518v10.518h10.518V94.667Zm0-10.519h-10.518v10.519h10.518V84.148Z"/>
  <path fill="#8F6436" d="M329.963 73.63h-10.518v10.518h10.518V73.63Z"/>
  <path fill="#754C24" d="M329.963 63.111h-10.518V73.63h10.518V63.11Zm0-10.518h-10.518V63.11h10.518V52.593Z"/>
  <path fill="#68401F" d="M329.963 42.074h-10.518v10.519h10.518V42.074Z"/>
  <path fill="#00C29B" d="M329.963 31.555h-10.518v10.519h10.518V31.556Z"/>
  <path fill="#00E3B5" d="M329.963 21.037h-10.518v10.518h10.518V21.037Zm0-10.519h-10.518v10.519h10.518V10.519Z"/>
  <path fill="#80EED3" d="M329.963 0h-10.518v10.518h10.518V0Z"/>
  <path fill="#754C24" d="M319.445 189.333h-10.519v10.519h10.519v-10.519Zm0-10.518h-10.519v10.518h10.519v-10.518Zm0-10.519h-10.519v10.519h10.519v-10.519Zm0-10.518h-10.519v10.518h10.519v-10.518Zm0-10.519h-10.519v10.519h10.519v-10.519Z"/>
  <path fill="#754C24" d="M319.445 136.741h-10.519v10.518h10.519v-10.518Zm0-10.519h-10.519v10.519h10.519v-10.519Zm0-10.518h-10.519v10.518h10.519v-10.518Zm0-10.519h-10.519v10.519h10.519v-10.519Z"/>
  <path fill="#8F6436" d="M319.445 94.667h-10.519v10.518h10.519V94.667Z"/>
  <path fill="#754C24" d="M319.445 84.148h-10.519v10.519h10.519V84.148Z"/>
  <path fill="#8F6436" d="M319.445 73.63h-10.519v10.518h10.519V73.63Z"/>
  <path fill="#754C24" d="M319.445 63.111h-10.519V73.63h10.519V63.11Zm0-10.518h-10.519V63.11h10.519V52.593Zm0-10.519h-10.519v10.519h10.519V42.074Z"/>
  <path fill="#68401F" d="M319.445 31.555h-10.519v10.519h10.519V31.556Z"/>
  <path fill="#00C29B" d="M319.445 21.037h-10.519v10.518h10.519V21.037Z"/>
  <path fill="#00E3B5" d="M319.445 10.518h-10.519v10.519h10.519V10.519Z"/>
  <path fill="#80EED3" d="M319.445 0h-10.519v10.518h10.519V0Z"/>
  <path fill="#754C24" d="M308.926 189.333h-10.519v10.519h10.519v-10.519Zm0-10.518h-10.519v10.518h10.519v-10.518Zm0-10.519h-10.519v10.519h10.519v-10.519Zm0-10.518h-10.519v10.518h10.519v-10.518Zm0-10.519h-10.519v10.519h10.519v-10.519Z"/>
  <path fill="#754C24" d="M308.926 136.741h-10.519v10.518h10.519v-10.518Zm0-10.519h-10.519v10.519h10.519v-10.519Zm0-10.518h-10.519v10.518h10.519v-10.518Z"/>
  <path fill="#8F6436" d="M308.926 105.185h-10.519v10.519h10.519v-10.519Zm0-10.518h-10.519v10.518h10.519V94.667Z"/>
  <path fill="#754C24" d="M308.926 84.148h-10.519v10.519h10.519V84.148Zm0-10.518h-10.519v10.518h10.519V73.63Zm0-10.519h-10.519V73.63h10.519V63.11Z"/>
  <path fill="#8F6436" d="M308.926 52.593h-10.519V63.11h10.519V52.593Z"/>
  <path fill="#754C24" d="M308.926 42.074h-10.519v10.519h10.519V42.074Zm0-10.519h-10.519v10.519h10.519V31.556Z"/>
  <path fill="#68401F" d="M308.926 21.037h-10.519v10.518h10.519V21.037Z"/>
  <path fill="#00E3B5" d="M308.926 10.518h-10.519v10.519h10.519V10.519Z"/>
  <path fill="#80EED3" d="M308.926 0h-10.519v10.518h10.519V0Z"/>
  <path fill="#754C24" d="M298.407 189.333h-10.518v10.519h10.518v-10.519Zm0-10.518h-10.518v10.518h10.518v-10.518Zm0-10.519h-10.518v10.519h10.518v-10.519Zm0-10.518h-10.518v10.518h10.518v-10.518Zm0-10.519h-10.518v10.519h10.518v-10.519Z"/>
  <path fill="#754C24" d="M298.407 136.741h-10.518v10.518h10.518v-10.518Zm0-10.519h-10.518v10.519h10.518v-10.519Zm0-10.518h-10.518v10.518h10.518v-10.518Zm0-10.519h-10.518v10.519h10.518v-10.519Zm0-10.518h-10.518v10.518h10.518V94.667Zm0-10.519h-10.518v10.519h10.518V84.148Zm0-10.518h-10.518v10.518h10.518V73.63Zm0-10.519h-10.518V73.63h10.518V63.11Z"/>
  <path fill="#8F6436" d="M298.407 52.593h-10.518V63.11h10.518V52.593Z"/>
  <path fill="#754C24" d="M298.407 42.074h-10.518v10.519h10.518V42.074Zm0-10.519h-10.518v10.519h10.518V31.556Z"/>
  <path fill="#68401F" d="M298.407 21.037h-10.518v10.518h10.518V21.037Z"/>
  <path fill="#00E3B5" d="M298.407 10.518h-10.518v10.519h10.518V10.519Z"/>
  <path fill="#80EED3" d="M298.407 0h-10.518v10.518h10.518V0Z"/>
  <path fill="#754C24" d="M287.889 189.333H277.37v10.519h10.519v-10.519Zm0-10.518H277.37v10.518h10.519v-10.518Zm0-10.519H277.37v10.519h10.519v-10.519Zm0-10.518H277.37v10.518h10.519v-10.518Zm0-10.519H277.37v10.519h10.519v-10.519Z"/>
  <path fill="#754C24" d="M287.889 136.741H277.37v10.518h10.519v-10.518Zm0-10.519H277.37v10.519h10.519v-10.519Zm0-10.518H277.37v10.518h10.519v-10.518Zm0-10.519H277.37v10.519h10.519v-10.519Z"/>
  <path fill="#8F6436" d="M287.889 94.667H277.37v10.518h10.519V94.667Zm0-10.519H277.37v10.519h10.519V84.148Zm0-10.518H277.37v10.518h10.519V73.63Z"/>
  <path fill="#754C24" d="M287.889 63.111H277.37V73.63h10.519V63.11Zm0-10.518H277.37V63.11h10.519V52.593Zm0-10.519H277.37v10.519h10.519V42.074Z"/>
  <path fill="#68401F" d="M287.889 31.555H277.37v10.519h10.519V31.556Z"/>
  <path fill="#00C29B" d="M287.889 21.037H277.37v10.518h10.519V21.037Z"/>
  <path fill="#00E3B5" d="M287.889 10.518H277.37v10.519h10.519V10.519Z"/>
  <path fill="#80EED3" d="M287.889 0H277.37v10.518h10.519V0Z"/>
  <path fill="#754C24" d="M277.37 189.333h-10.518v10.519h10.518v-10.519Zm0-10.518h-10.518v10.518h10.518v-10.518Zm0-10.519h-10.518v10.519h10.518v-10.519Zm0-10.518h-10.518v10.518h10.518v-10.518Zm0-10.519h-10.518v10.519h10.518v-10.519Z"/>
  <path fill="#754C24" d="M277.37 136.741h-10.518v10.518h10.518v-10.518Zm0-10.519h-10.518v10.519h10.518v-10.519Zm0-10.518h-10.518v10.518h10.518v-10.518Zm0-10.519h-10.518v10.519h10.518v-10.519Z"/>
  <path fill="#8F6436" d="M277.37 94.667h-10.518v10.518h10.518V94.667Z"/>
  <path fill="#F9C62C" d="M277.37 84.148h-10.518v10.519h10.518V84.148Zm0-10.518h-10.518v10.518h10.518V73.63Z"/>
  <path fill="#8F6436" d="M277.37 63.111h-10.518V73.63h10.518V63.11Z"/>
  <path fill="#754C24" d="M277.37 52.593h-10.518V63.11h10.518V52.593Z"/>
  <path fill="#68401F" d="M277.37 42.074h-10.518v10.519h10.518V42.074Z"/>
  <path fill="#00C29B" d="M277.37 31.555h-10.518v10.519h10.518V31.556Z"/>
  <path fill="#00E3B5" d="M277.37 21.037h-10.518v10.518h10.518V21.037Zm0-10.519h-10.518v10.519h10.518V10.519Z"/>
  <path fill="#80EED3" d="M277.37 0h-10.518v10.518h10.518V0Z"/>
  <path fill="#754C24" d="M266.852 189.333h-10.519v10.519h10.519v-10.519Zm0-10.518h-10.519v10.518h10.519v-10.518Zm0-10.519h-10.519v10.519h10.519v-10.519Zm0-10.518h-10.519v10.518h10.519v-10.518Zm0-10.519h-10.519v10.519h10.519v-10.519Z"/>
  <path fill="#754C24" d="M266.852 136.741h-10.519v10.518h10.519v-10.518Zm0-10.519h-10.519v10.519h10.519v-10.519Zm0-10.518h-10.519v10.518h10.519v-10.518Zm0-10.519h-10.519v10.519h10.519v-10.519Zm0-10.518h-10.519v10.518h10.519V94.667Z"/>
  <path fill="#8F6436" d="M266.852 84.148h-10.519v10.519h10.519V84.148Z"/>
  <path fill="#F9C62C" d="M266.852 73.63h-10.519v10.518h10.519V73.63Z"/>
  <path fill="#8F6436" d="M266.852 63.111h-10.519V73.63h10.519V63.11Z"/>
  <path fill="#754C24" d="M266.852 52.593h-10.519V63.11h10.519V52.593Zm0-10.519h-10.519v10.519h10.519V42.074Z"/>
  <path fill="#68401F" d="M266.852 31.555h-10.519v10.519h10.519V31.556Z"/>
  <path fill="#00C29B" d="M266.852 21.037h-10.519v10.518h10.519V21.037Z"/>
  <path fill="#00E3B5" d="M266.852 10.518h-10.519v10.519h10.519V10.519Z"/>
  <path fill="#80EED3" d="M266.852 0h-10.519v10.518h10.519V0Z"/>
  <path fill="#754C24" d="M256.333 189.333h-10.518v10.519h10.518v-10.519Zm0-10.518h-10.518v10.518h10.518v-10.518Zm0-10.519h-10.518v10.519h10.518v-10.519Zm0-10.518h-10.518v10.518h10.518v-10.518Zm0-10.519h-10.518v10.519h10.518v-10.519Z"/>
  <path fill="#754C24" d="M256.333 136.741h-10.518v10.518h10.518v-10.518Zm0-10.519h-10.518v10.519h10.518v-10.519Zm0-10.518h-10.518v10.518h10.518v-10.518Zm0-10.519h-10.518v10.519h10.518v-10.519Zm0-10.518h-10.518v10.518h10.518V94.667Zm0-10.519h-10.518v10.519h10.518V84.148Z"/>
  <path fill="#8F6436" d="M256.333 73.63h-10.518v10.518h10.518V73.63Z"/>
  <path fill="#754C24" d="M256.333 63.111h-10.518V73.63h10.518V63.11Zm0-10.518h-10.518V63.11h10.518V52.593Zm0-10.519h-10.518v10.519h10.518V42.074Zm0-10.519h-10.518v10.519h10.518V31.556Z"/>
  <path fill="#68401F" d="M256.333 21.037h-10.518v10.518h10.518V21.037Z"/>
  <path fill="#00E3B5" d="M256.333 10.518h-10.518v10.519h10.518V10.519Z"/>
  <path fill="#80EED3" d="M256.333 0h-10.518v10.518h10.518V0Z"/>
  <path fill="#754C24" d="M245.815 189.333h-10.519v10.519h10.519v-10.519Zm0-10.518h-10.519v10.518h10.519v-10.518Zm0-10.519h-10.519v10.519h10.519v-10.519Zm0-10.518h-10.519v10.518h10.519v-10.518Zm0-10.519h-10.519v10.519h10.519v-10.519Z"/>
  <path fill="#754C24" d="M245.815 136.741h-10.519v10.518h10.519v-10.518Zm0-10.519h-10.519v10.519h10.519v-10.519Zm0-10.518h-10.519v10.518h10.519v-10.518Z"/>
  <path fill="#8F6436" d="M245.815 105.185h-10.519v10.519h10.519v-10.519Zm0-10.518h-10.519v10.518h10.519V94.667Z"/>
  <path fill="#754C24" d="M245.815 84.148h-10.519v10.519h10.519V84.148Zm0-10.518h-10.519v10.518h10.519V73.63Zm0-10.519h-10.519V73.63h10.519V63.11Zm0-10.518h-10.519V63.11h10.519V52.593Zm0-10.519h-10.519v10.519h10.519V42.074Zm0-10.519h-10.519v10.519h10.519V31.556Z"/>
  <path fill="#68401F" d="M245.815 21.037h-10.519v10.518h10.519V21.037Z"/>
  <path fill="#00E3B5" d="M245.815 10.518h-10.519v10.519h10.519V10.519Z"/>
  <path fill="#80EED3" d="M245.815 0h-10.519v10.518h10.519V0Z"/>
  <path fill="#754C24" d="M235.296 189.333h-10.518v10.519h10.518v-10.519Zm0-10.518h-10.518v10.518h10.518v-10.518Zm0-10.519h-10.518v10.519h10.518v-10.519Zm0-10.518h-10.518v10.518h10.518v-10.518Zm0-10.519h-10.518v10.519h10.518v-10.519Z"/>
  <path fill="#754C24" d="M235.296 136.741h-10.518v10.518h10.518v-10.518Zm0-10.519h-10.518v10.519h10.518v-10.519Zm0-10.518h-10.518v10.518h10.518v-10.518Zm0-10.519h-10.518v10.519h10.518v-10.519Z"/>
  <path fill="#8F6436" d="M235.296 94.667h-10.518v10.518h10.518V94.667Z"/>
  <path fill="#754C24" d="M235.296 84.148h-10.518v10.519h10.518V84.148Zm0-10.518h-10.518v10.518h10.518V73.63Zm0-10.519h-10.518V73.63h10.518V63.11Z"/>
  <path fill="#8F6436" d="M235.296 52.593h-10.518V63.11h10.518V52.593Z"/>
  <path fill="#754C24" d="M235.296 42.074h-10.518v10.519h10.518V42.074Z"/>
  <path fill="#68401F" d="M235.296 31.555h-10.518v10.519h10.518V31.556Z"/>
  <path fill="#00C29B" d="M235.296 21.037h-10.518v10.518h10.518V21.037Z"/>
  <path fill="#00E3B5" d="M235.296 10.518h-10.518v10.519h10.518V10.519Z"/>
  <path fill="#80EED3" d="M235.296 0h-10.518v10.518h10.518V0Z"/>
  <path fill="#754C24" d="M224.778 189.333h-10.519v10.519h10.519v-10.519Zm0-10.518h-10.519v10.518h10.519v-10.518Zm0-10.519h-10.519v10.519h10.519v-10.519Zm0-10.518h-10.519v10.518h10.519v-10.518Zm0-10.519h-10.519v10.519h10.519v-10.519Z"/>
  <path fill="#754C24" d="M224.778 136.741h-10.519v10.518h10.519v-10.518Zm0-10.519h-10.519v10.519h10.519v-10.519Zm0-10.518h-10.519v10.518h10.519v-10.518Zm0-10.519h-10.519v10.519h10.519v-10.519Zm0-10.518h-10.519v10.518h10.519V94.667Zm0-10.519h-10.519v10.519h10.519V84.148Zm0-10.518h-10.519v10.518h10.519V73.63Zm0-10.519h-10.519V73.63h10.519V63.11Zm0-10.518h-10.519V63.11h10.519V52.593Zm0-10.519h-10.519v10.519h10.519V42.074Z"/>
  <path fill="#68401F" d="M224.778 31.555h-10.519v10.519h10.519V31.556Z"/>
  <path fill="#00C29B" d="M224.778 21.037h-10.519v10.518h10.519V21.037Z"/>
  <path fill="#00E3B5" d="M224.778 10.518h-10.519v10.519h10.519V10.519Z"/>
  <path fill="#80EED3" d="M224.778 0h-10.519v10.518h10.519V0Z"/>
  <path fill="#754C24" d="M214.259 189.333h-10.518v10.519h10.518v-10.519Zm0-10.518h-10.518v10.518h10.518v-10.518Zm0-10.519h-10.518v10.519h10.518v-10.519Zm0-10.518h-10.518v10.518h10.518v-10.518Zm0-10.519h-10.518v10.519h10.518v-10.519Z"/>
  <path fill="#754C24" d="M214.259 136.741h-10.518v10.518h10.518v-10.518Zm0-10.519h-10.518v10.519h10.518v-10.519Zm0-10.518h-10.518v10.518h10.518v-10.518Zm0-10.519h-10.518v10.519h10.518v-10.519Zm0-10.518h-10.518v10.518h10.518V94.667Z"/>
  <path fill="#8F6436" d="M214.259 84.148h-10.518v10.519h10.518V84.148Z"/>
  <path fill="#754C24" d="M214.259 73.63h-10.518v10.518h10.518V73.63Zm0-10.519h-10.518V73.63h10.518V63.11Zm0-10.518h-10.518V63.11h10.518V52.593Z"/>
  <path fill="#68401F" d="M214.259 42.074h-10.518v10.519h10.518V42.074Z"/>
  <path fill="#00C29B" d="M214.259 31.555h-10.518v10.519h10.518V31.556Z"/>
  <path fill="#00E3B5" d="M214.259 21.037h-10.518v10.518h10.518V21.037Zm0-10.519h-10.518v10.519h10.518V10.519Z"/>
  <path fill="#80EED3" d="M214.259 0h-10.518v10.518h10.518V0Z"/>
  <path fill="#754C24" d="M203.741 189.333h-10.519v10.519h10.519v-10.519Zm0-10.518h-10.519v10.518h10.519v-10.518Zm0-10.519h-10.519v10.519h10.519v-10.519Zm0-10.518h-10.519v10.518h10.519v-10.518Zm0-10.519h-10.519v10.519h10.519v-10.519Z"/>
  <path fill="#754C24" d="M203.741 136.741h-10.519v10.518h10.519v-10.518Zm0-10.519h-10.519v10.519h10.519v-10.519Zm0-10.518h-10.519v10.518h10.519v-10.518Zm0-10.519h-10.519v10.519h10.519v-10.519Z"/>
  <path fill="#8F6436" d="M203.741 94.667h-10.519v10.518h10.519V94.667Z"/>
  <path fill="#F9C62C" d="M203.741 84.148h-10.519v10.519h10.519V84.148Zm0-10.518h-10.519v10.518h10.519V73.63Z"/>
  <path fill="#754C24" d="M203.741 63.111h-10.519V73.63h10.519V63.11Zm0-10.518h-10.519V63.11h10.519V52.593Z"/>
  <path fill="#68401F" d="M203.741 42.074h-10.519v10.519h10.519V42.074Z"/>
  <path fill="#00C29B" d="M203.741 31.555h-10.519v10.519h10.519V31.556Z"/>
  <path fill="#00E3B5" d="M203.741 21.037h-10.519v10.518h10.519V21.037Zm0-10.519h-10.519v10.519h10.519V10.519Z"/>
  <path fill="#80EED3" d="M203.741 0h-10.519v10.518h10.519V0Z"/>
  <path fill="#754C24" d="M193.222 189.333h-10.518v10.519h10.518v-10.519Zm0-10.518h-10.518v10.518h10.518v-10.518Zm0-10.519h-10.518v10.519h10.518v-10.519Zm0-10.518h-10.518v10.518h10.518v-10.518Zm0-10.519h-10.518v10.519h10.518v-10.519Z"/>
  <path fill="#754C24" d="M193.222 136.741h-10.518v10.518h10.518v-10.518Zm0-10.519h-10.518v10.519h10.518v-10.519Zm0-10.518h-10.518v10.518h10.518v-10.518Zm0-10.519h-10.518v10.519h10.518v-10.519Zm0-10.518h-10.518v10.518h10.518V94.667Z"/>
  <path fill="#F9C62C" d="M193.222 84.148h-10.518v10.519h10.518V84.148Z"/>
  <path fill="#8F6436" d="M193.222 73.63h-10.518v10.518h10.518V73.63Zm0-10.519h-10.518V73.63h10.518V63.11Z"/>
  <path fill="#754C24" d="M193.222 52.593h-10.518V63.11h10.518V52.593Zm0-10.519h-10.518v10.519h10.518V42.074Z"/>
  <path fill="#68401F" d="M193.222 31.555h-10.518v10.519h10.518V31.556Z"/>
  <path fill="#00C29B" d="M193.222 21.037h-10.518v10.518h10.518V21.037Z"/>
  <path fill="#00E3B5" d="M193.222 10.518h-10.518v10.519h10.518V10.519Z"/>
  <path fill="#80EED3" d="M193.222 0h-10.518v10.518h10.518V0Z"/>
  <path fill="#754C24" d="M182.704 189.333h-10.519v10.519h10.519v-10.519Zm0-10.518h-10.519v10.518h10.519v-10.518Zm0-10.519h-10.519v10.519h10.519v-10.519Zm0-10.518h-10.519v10.518h10.519v-10.518Zm0-10.519h-10.519v10.519h10.519v-10.519Z"/>
  <path fill="#754C24" d="M182.704 136.741h-10.519v10.518h10.519v-10.518Zm0-10.519h-10.519v10.519h10.519v-10.519Zm0-10.518h-10.519v10.518h10.519v-10.518Zm0-10.519h-10.519v10.519h10.519v-10.519Zm0-10.518h-10.519v10.518h10.519V94.667Zm0-10.519h-10.519v10.519h10.519V84.148Z"/>
  <path fill="#8F6436" d="M182.704 73.63h-10.519v10.518h10.519V73.63Z"/>
  <path fill="#754C24" d="M182.704 63.111h-10.519V73.63h10.519V63.11Zm0-10.518h-10.519V63.11h10.519V52.593Zm0-10.519h-10.519v10.519h10.519V42.074Z"/>
  <path fill="#68401F" d="M182.704 31.555h-10.519v10.519h10.519V31.556Z"/>
  <path fill="#00C29B" d="M182.704 21.037h-10.519v10.518h10.519V21.037Z"/>
  <path fill="#00E3B5" d="M182.704 10.518h-10.519v10.519h10.519V10.519Z"/>
  <path fill="#80EED3" d="M182.704 0h-10.519v10.518h10.519V0Z"/>
  <path fill="#754C24" d="M172.185 189.333h-10.518v10.519h10.518v-10.519Zm0-10.518h-10.518v10.518h10.518v-10.518Zm0-10.519h-10.518v10.519h10.518v-10.519Zm0-10.518h-10.518v10.518h10.518v-10.518Zm0-10.519h-10.518v10.519h10.518v-10.519Z"/>
  <path fill="#754C24" d="M172.185 136.741h-10.518v10.518h10.518v-10.518Zm0-10.519h-10.518v10.519h10.518v-10.519Zm0-10.518h-10.518v10.518h10.518v-10.518Zm0-10.519h-10.518v10.519h10.518v-10.519Zm0-10.518h-10.518v10.518h10.518V94.667Zm0-10.519h-10.518v10.519h10.518V84.148Zm0-10.518h-10.518v10.518h10.518V73.63Zm0-10.519h-10.518V73.63h10.518V63.11Zm0-10.518h-10.518V63.11h10.518V52.593Zm0-10.519h-10.518v10.519h10.518V42.074Zm0-10.519h-10.518v10.519h10.518V31.556Z"/>
  <path fill="#68401F" d="M172.185 21.037h-10.518v10.518h10.518V21.037Z"/>
  <path fill="#00E3B5" d="M172.185 10.518h-10.518v10.519h10.518V10.519Z"/>
  <path fill="#80EED3" d="M172.185 0h-10.518v10.518h10.518V0Z"/>
  <path fill="#754C24" d="M161.667 189.333h-10.519v10.519h10.519v-10.519Zm0-10.518h-10.519v10.518h10.519v-10.518Zm0-10.519h-10.519v10.519h10.519v-10.519Zm0-10.518h-10.519v10.518h10.519v-10.518Zm0-10.519h-10.519v10.519h10.519v-10.519Z"/>
  <path fill="#754C24" d="M161.667 136.741h-10.519v10.518h10.519v-10.518Zm0-10.519h-10.519v10.519h10.519v-10.519Zm0-10.518h-10.519v10.518h10.519v-10.518Zm0-10.519h-10.519v10.519h10.519v-10.519Zm0-10.518h-10.519v10.518h10.519V94.667Zm0-10.519h-10.519v10.519h10.519V84.148Zm0-10.518h-10.519v10.518h10.519V73.63Zm0-10.519h-10.519V73.63h10.519V63.11Z"/>
  <path fill="#8F6436" d="M161.667 52.593h-10.519V63.11h10.519V52.593Z"/>
  <path fill="#754C24" d="M161.667 42.074h-10.519v10.519h10.519V42.074Zm0-10.519h-10.519v10.519h10.519V31.556Z"/>
  <path fill="#68401F" d="M161.667 21.037h-10.519v10.518h10.519V21.037Z"/>
  <path fill="#00E3B5" d="M161.667 10.518h-10.519v10.519h10.519V10.519Z"/>
  <path fill="#80EED3" d="M161.667 0h-10.519v10.518h10.519V0Z"/>
  <path fill="#754C24" d="M151.148 189.333H140.63v10.519h10.518v-10.519Zm0-10.518H140.63v10.518h10.518v-10.518Zm0-10.519H140.63v10.519h10.518v-10.519Zm0-10.518H140.63v10.518h10.518v-10.518Zm0-10.519H140.63v10.519h10.518v-10.519Z"/>
  <path fill="#754C24" d="M151.148 136.741H140.63v10.518h10.518v-10.518Zm0-10.519H140.63v10.519h10.518v-10.519Zm0-10.518H140.63v10.518h10.518v-10.518Zm0-10.519H140.63v10.519h10.518v-10.519Z"/>
  <path fill="#8F6436" d="M151.148 94.667H140.63v10.518h10.518V94.667Zm0-10.519H140.63v10.519h10.518V84.148Z"/>
  <path fill="#754C24" d="M151.148 73.63H140.63v10.518h10.518V73.63Zm0-10.519H140.63V73.63h10.518V63.11Z"/>
  <path fill="#F9C62C" d="M151.148 52.593H140.63V63.11h10.518V52.593Z"/>
  <path fill="#8F6436" d="M151.148 42.074H140.63v10.519h10.518V42.074Z"/>
  <path fill="#754C24" d="M151.148 31.555H140.63v10.519h10.518V31.556Z"/>
  <path fill="#68401F" d="M151.148 21.037H140.63v10.518h10.518V21.037Z"/>
  <path fill="#00E3B5" d="M151.148 10.518H140.63v10.519h10.518V10.519Z"/>
  <path fill="#80EED3" d="M151.148 0H140.63v10.518h10.518V0Z"/>
  <path fill="#754C24" d="M140.63 189.333h-10.519v10.519h10.519v-10.519Zm0-10.518h-10.519v10.518h10.519v-10.518Zm0-10.519h-10.519v10.519h10.519v-10.519Zm0-10.518h-10.519v10.518h10.519v-10.518Zm0-10.519h-10.519v10.519h10.519v-10.519Z"/>
  <path fill="#754C24" d="M140.63 136.741h-10.519v10.518h10.519v-10.518Zm0-10.519h-10.519v10.519h10.519v-10.519Zm0-10.518h-10.519v10.518h10.519v-10.518Zm0-10.519h-10.519v10.519h10.519v-10.519Z"/>
  <path fill="#8F6436" d="M140.63 94.667h-10.519v10.518h10.519V94.667Z"/>
  <path fill="#754C24" d="M140.63 84.148h-10.519v10.519h10.519V84.148Zm0-10.518h-10.519v10.518h10.519V73.63Zm0-10.519h-10.519V73.63h10.519V63.11Zm0-10.518h-10.519V63.11h10.519V52.593Zm0-10.519h-10.519v10.519h10.519V42.074Zm0-10.519h-10.519v10.519h10.519V31.556Z"/>
  <path fill="#68401F" d="M140.63 21.037h-10.519v10.518h10.519V21.037Z"/>
  <path fill="#00E3B5" d="M140.63 10.518h-10.519v10.519h10.519V10.519Z"/>
  <path fill="#80EED3" d="M140.63 0h-10.519v10.518h10.519V0Z"/>
  <path fill="#754C24" d="M130.111 189.333h-10.518v10.519h10.518v-10.519Zm0-10.518h-10.518v10.518h10.518v-10.518Zm0-10.519h-10.518v10.519h10.518v-10.519Zm0-10.518h-10.518v10.518h10.518v-10.518Zm0-10.519h-10.518v10.519h10.518v-10.519Z"/>
  <path fill="#754C24" d="M130.111 136.741h-10.518v10.518h10.518v-10.518Zm0-10.519h-10.518v10.519h10.518v-10.519Zm0-10.518h-10.518v10.518h10.518v-10.518Zm0-10.519h-10.518v10.519h10.518v-10.519Zm0-10.518h-10.518v10.518h10.518V94.667Zm0-10.519h-10.518v10.519h10.518V84.148Zm0-10.518h-10.518v10.518h10.518V73.63Zm0-10.519h-10.518V73.63h10.518V63.11Zm0-10.518h-10.518V63.11h10.518V52.593Zm0-10.519h-10.518v10.519h10.518V42.074Z"/>
  <path fill="#68401F" d="M130.111 31.555h-10.518v10.519h10.518V31.556Z"/>
  <path fill="#00C29B" d="M130.111 21.037h-10.518v10.518h10.518V21.037Z"/>
  <path fill="#00E3B5" d="M130.111 10.518h-10.518v10.519h10.518V10.519Z"/>
  <path fill="#80EED3" d="M130.111 0h-10.518v10.518h10.518V0Z"/>
  <path fill="#754C24" d="M119.593 189.333h-10.519v10.519h10.519v-10.519Zm0-10.518h-10.519v10.518h10.519v-10.518Zm0-10.519h-10.519v10.519h10.519v-10.519Zm0-10.518h-10.519v10.518h10.519v-10.518Zm0-10.519h-10.519v10.519h10.519v-10.519Z"/>
  <path fill="#754C24" d="M119.593 136.741h-10.519v10.518h10.519v-10.518Zm0-10.519h-10.519v10.519h10.519v-10.519Zm0-10.518h-10.519v10.518h10.519v-10.518Zm0-10.519h-10.519v10.519h10.519v-10.519Zm0-10.518h-10.519v10.518h10.519V94.667Zm0-10.519h-10.519v10.519h10.519V84.148Z"/>
  <path fill="#8F6436" d="M119.593 73.63h-10.519v10.518h10.519V73.63Z"/>
  <path fill="#754C24" d="M119.593 63.111h-10.519V73.63h10.519V63.11Zm0-10.518h-10.519V63.11h10.519V52.593Zm0-10.519h-10.519v10.519h10.519V42.074Z"/>
  <path fill="#68401F" d="M119.593 31.555h-10.519v10.519h10.519V31.556Z"/>
  <path fill="#00C29B" d="M119.593 21.037h-10.519v10.518h10.519V21.037Z"/>
  <path fill="#00E3B5" d="M119.593 10.518h-10.519v10.519h10.519V10.519Z"/>
  <path fill="#80EED3" d="M119.593 0h-10.519v10.518h10.519V0Z"/>
  <path fill="#754C24" d="M109.074 189.333H98.556v10.519h10.518v-10.519Zm0-10.518H98.556v10.518h10.518v-10.518Zm0-10.519H98.556v10.519h10.518v-10.519Zm0-10.518H98.556v10.518h10.518v-10.518Zm0-10.519H98.556v10.519h10.518v-10.519Z"/>
  <path fill="#754C24" d="M109.074 136.741H98.556v10.518h10.518v-10.518Zm0-10.519H98.556v10.519h10.518v-10.519Zm0-10.518H98.556v10.518h10.518v-10.518Zm0-10.519H98.556v10.519h10.518v-10.519Zm0-10.518H98.556v10.518h10.518V94.667Z"/>
  <path fill="#8F6436" d="M109.074 84.148H98.556v10.519h10.518V84.148Z"/>
  <path fill="#F9C62C" d="M109.074 73.63H98.556v10.518h10.518V73.63Z"/>
  <path fill="#754C24" d="M109.074 63.111H98.556V73.63h10.518V63.11Zm0-10.518H98.556V63.11h10.518V52.593Z"/>
  <path fill="#68401F" d="M109.074 42.074H98.556v10.519h10.518V42.074Z"/>
  <path fill="#00C29B" d="M109.074 31.555H98.556v10.519h10.518V31.556Z"/>
  <path fill="#00E3B5" d="M109.074 21.037H98.556v10.518h10.518V21.037Zm0-10.519H98.556v10.519h10.518V10.519Z"/>
  <path fill="#80EED3" d="M109.074 0H98.556v10.518h10.518V0Z"/>
  <path fill="#754C24" d="M98.556 189.333H88.037v10.519h10.519v-10.519Zm0-10.518H88.037v10.518h10.519v-10.518Zm0-10.519H88.037v10.519h10.519v-10.519Zm0-10.518H88.037v10.518h10.519v-10.518Zm0-10.519H88.037v10.519h10.519v-10.519Z"/>
  <path fill="#754C24" d="M98.556 136.741H88.037v10.518h10.519v-10.518Zm0-10.519H88.037v10.519h10.519v-10.519Zm0-10.518H88.037v10.518h10.519v-10.518Zm0-10.519H88.037v10.519h10.519v-10.519Zm0-10.518H88.037v10.518h10.519V94.667Zm0-10.519H88.037v10.519h10.519V84.148Z"/>
  <path fill="#8F6436" d="M98.556 73.63H88.037v10.518h10.519V73.63Z"/>
  <path fill="#754C24" d="M98.556 63.111H88.037V73.63h10.519V63.11Zm0-10.518H88.037V63.11h10.519V52.593Zm0-10.519H88.037v10.519h10.519V42.074Z"/>
  <path fill="#68401F" d="M98.556 31.555H88.037v10.519h10.519V31.556Z"/>
  <path fill="#00C29B" d="M98.556 21.037H88.037v10.518h10.519V21.037Z"/>
  <path fill="#00E3B5" d="M98.556 10.518H88.037v10.519h10.519V10.519Z"/>
  <path fill="#80EED3" d="M98.556 0H88.037v10.518h10.519V0Z"/>
  <path fill="#754C24" d="M88.037 189.333H77.52v10.519h10.518v-10.519Zm0-10.518H77.52v10.518h10.518v-10.518Zm0-10.519H77.52v10.519h10.518v-10.519Zm0-10.518H77.52v10.518h10.518v-10.518Zm0-10.519H77.52v10.519h10.518v-10.519Z"/>
  <path fill="#754C24" d="M88.037 136.741H77.52v10.518h10.518v-10.518Zm0-10.519H77.52v10.519h10.518v-10.519Zm0-10.518H77.52v10.518h10.518v-10.518Zm0-10.519H77.52v10.519h10.518v-10.519Z"/>
  <path fill="#8F6436" d="M88.037 94.667H77.52v10.518h10.518V94.667Z"/>
  <path fill="#754C24" d="M88.037 84.148H77.52v10.519h10.518V84.148Zm0-10.518H77.52v10.518h10.518V73.63Zm0-10.519H77.52V73.63h10.518V63.11Z"/>
  <path fill="#8F6436" d="M88.037 52.593H77.52V63.11h10.518V52.593Z"/>
  <path fill="#754C24" d="M88.037 42.074H77.52v10.519h10.518V42.074Zm0-10.519H77.52v10.519h10.518V31.556Z"/>
  <path fill="#68401F" d="M88.037 21.037H77.52v10.518h10.518V21.037Z"/>
  <path fill="#00E3B5" d="M88.037 10.518H77.52v10.519h10.518V10.519Z"/>
  <path fill="#80EED3" d="M88.037 0H77.52v10.518h10.518V0Z"/>
  <path fill="#754C24" d="M393.074 189.333h-10.518v10.519h10.518v-10.519Zm0-10.518h-10.518v10.518h10.518v-10.518Zm0-10.519h-10.518v10.519h10.518v-10.519Zm0-10.518h-10.518v10.518h10.518v-10.518Zm0-10.519h-10.518v10.519h10.518v-10.519Z"/>
  <path fill="#754C24" d="M393.074 136.741h-10.518v10.518h10.518v-10.518Zm0-10.519h-10.518v10.519h10.518v-10.519Zm0-10.518h-10.518v10.518h10.518v-10.518Zm0-10.519h-10.518v10.519h10.518v-10.519Zm0-10.518h-10.518v10.518h10.518V94.667Zm0-10.519h-10.518v10.519h10.518V84.148Z"/>
  <path fill="#8F6436" d="M393.074 73.63h-10.518v10.518h10.518V73.63Z"/>
  <path fill="#754C24" d="M393.074 63.111h-10.518V73.63h10.518V63.11Zm0-10.518h-10.518V63.11h10.518V52.593Zm0-10.519h-10.518v10.519h10.518V42.074Z"/>
  <path fill="#68401F" d="M393.074 31.555h-10.518v10.519h10.518V31.556Z"/>
  <path fill="#00C29B" d="M393.074 21.037h-10.518v10.518h10.518V21.037Z"/>
  <path fill="#00E3B5" d="M393.074 10.518h-10.518v10.519h10.518V10.519Z"/>
  <path fill="#80EED3" d="M393.074 0h-10.518v10.518h10.518V0Z"/>
  <path fill="#754C24" d="M382.556 189.333h-10.519v10.519h10.519v-10.519Zm0-10.518h-10.519v10.518h10.519v-10.518Zm0-10.519h-10.519v10.519h10.519v-10.519Zm0-10.518h-10.519v10.518h10.519v-10.518Zm0-10.519h-10.519v10.519h10.519v-10.519Z"/>
  <path fill="#754C24" d="M382.556 136.741h-10.519v10.518h10.519v-10.518Zm0-10.519h-10.519v10.519h10.519v-10.519Zm0-10.518h-10.519v10.518h10.519v-10.518Zm0-10.519h-10.519v10.519h10.519v-10.519Z"/>
  <path fill="#8F6436" d="M382.556 94.667h-10.519v10.518h10.519V94.667Z"/>
  <path fill="#754C24" d="M382.556 84.148h-10.519v10.519h10.519V84.148Zm0-10.518h-10.519v10.518h10.519V73.63Zm0-10.519h-10.519V73.63h10.519V63.11Z"/>
  <path fill="#8F6436" d="M382.556 52.593h-10.519V63.11h10.519V52.593Z"/>
  <path fill="#754C24" d="M382.556 42.074h-10.519v10.519h10.519V42.074Zm0-10.519h-10.519v10.519h10.519V31.556Z"/>
  <path fill="#68401F" d="M382.556 21.037h-10.519v10.518h10.519V21.037Z"/>
  <path fill="#00E3B5" d="M382.556 10.518h-10.519v10.519h10.519V10.519Z"/>
  <path fill="#80EED3" d="M382.556 0h-10.519v10.518h10.519V0Z"/>
</svg>
