<svg xmlns="http://www.w3.org/2000/svg" width="64" height="64" viewBox="0 0 1024 1024"><g class="nc-icon-wrapper"><path d="M320 192h64v64h-64z" fill="#FFE8D9"></path><path d="M704 512h64v64h-64zM704 448h64v64h-64zM704 384h64v64h-64z" fill="#333"></path><path d="M704 320h64v64h-64z" fill="#FFE8D9"></path><path d="M640 576h64v64h-64z" fill="#333"></path><path d="M640 512h64v64h-64zM640 448h64v64h-64z" fill="#F4BB60"></path><path d="M640 384h64v64h-64z" fill="#333"></path><path d="M640 320h64v64h-64zM640 256h64v64h-64z" fill="#FFDAC5"></path><path d="M576 832h64v64h-64zM576 768h64v64h-64zM576 704h64v64h-64zM576 640h64v64h-64z" fill="#333"></path><path d="M576 576h64v64h-64zM576 512h64v64h-64z" fill="#F4BB60"></path><path d="M576 448h64v64h-64z" fill="#F4D398"></path><path d="M576 384h64v64h-64z" fill="#333"></path><path d="M576 320h64v64h-64z" fill="#ED4832"></path><path d="M576 256h64v64h-64z" fill="#FFE8D9"></path><path d="M576 192h64v64h-64z" fill="#FFDAC5"></path><path d="M512 832h64v64h-64z" fill="#333"></path><path d="M512 768h64v64h-64zM512 704h64v64h-64zM512 640h64v64h-64z" fill="#F4BB60"></path><path d="M512 576h64v64h-64zM512 512h64v64h-64zM512 448h64v64h-64z" fill="#F4D398"></path><path d="M512 384h64v64h-64zM512 320h64v64h-64zM512 256h64v64h-64z" fill="#FFE8D9"></path><path d="M512 192h64v64h-64z" fill="#FFDAC5"></path><path d="M512 128h64v64h-64z" fill="#FFE8D9"></path><path d="M448 832h64v64h-64z" fill="#333"></path><path d="M448 768h64v64h-64zM448 704h64v64h-64zM448 640h64v64h-64z" fill="#F9E4CA"></path><path d="M448 576h64v64h-64zM448 512h64v64h-64z" fill="#F4D398"></path><path d="M448 448h64v64h-64zM448 384h64v64h-64zM448 320h64v64h-64z" fill="#FFE8D9"></path><path d="M448 256h64v64h-64z" fill="#FFDAC5"></path><path d="M448 192h64v64h-64z" fill="#ED4832"></path><path d="M448 128h64v64h-64zM448 64h64v64h-64z" fill="#FFE8D9"></path><path d="M384 832h64v64h-64zM384 768h64v64h-64zM384 704h64v64h-64zM384 640h64v64h-64z" fill="#333"></path><path d="M384 576h64v64h-64z" fill="#F9E4CA"></path><path d="M384 512h64v64h-64zM384 448h64v64h-64z" fill="#F4D398"></path><path d="M384 384h64v64h-64z" fill="#333"></path><path d="M384 320h64v64h-64z" fill="#ED4832"></path><path d="M384 256h64v64h-64zM384 192h64v64h-64z" fill="#FFE8D9"></path><path d="M320 576h64v64h-64z" fill="#333"></path><path d="M320 512h64v64h-64zM320 448h64v64h-64z" fill="#F9E4CA"></path><path d="M320 384h64v64h-64z" fill="#333"></path><path d="M320 320h64v64h-64zM320 256h64v64h-64z" fill="#FFE8D9"></path><path d="M256 512h64v64h-64zM256 448h64v64h-64zM256 384h64v64h-64z" fill="#333"></path><path d="M256 320h64v64h-64z" fill="#FFE8D9"></path></g></svg>