<svg xmlns="http://www.w3.org/2000/svg" width="64" height="64" viewBox="0 0 1024 1024"><g class="nc-icon-wrapper"><path d="M877.71 682.66h48.77v48.77h-48.76z m0-48.76h48.77v48.76h-48.76z m0-48.76h48.77v48.76h-48.76z m0-48.76h48.77v48.76h-48.76z m0-48.76h48.77v48.76h-48.76z m0-48.76h48.77v48.76h-48.76z m0-48.76h48.77v48.76h-48.76z m0-48.77h48.77v48.77h-48.76z m-48.76 390.1h48.76v48.76h-48.76z m0-48.77h48.76v48.77h-48.76z m0-48.76h48.76v48.76h-48.76z" fill="#231815"></path><path d="M828.95 585.14h48.76v48.76h-48.76z m0-48.76h48.76v48.76h-48.76z m0-48.76h48.76v48.76h-48.76z m0-48.76h48.76v48.76h-48.76z m0-48.76h48.76v48.76h-48.76z" fill="#FBB002"></path><path d="M828.95 341.33h48.76v48.77h-48.76z m0-48.76h48.76v48.76h-48.76z m0-48.76h48.76v48.76h-48.76z m-48.76 536.38h48.76v48.76h-48.76z m0-48.76h48.76v48.76h-48.76z" fill="#231815"></path><path d="M780.19 682.66h48.76v48.77h-48.76z m0-48.76h48.76v48.76h-48.76z" fill="#FBB002"></path><path d="M780.19 585.14h48.76v48.76h-48.76z m0-48.76h48.76v48.76h-48.76z m0-48.76h48.76v48.76h-48.76z m0-48.76h48.76v48.76h-48.76z m0-48.76h48.76v48.76h-48.76z" fill="#010101"></path><path d="M780.19 341.33h48.76v48.77h-48.76z" fill="#FBB002"></path><path d="M828.95 292.57v48.76h-97.52v-48.76h97.52z" fill="#F5F5F5"></path><path d="M780.19 243.81h48.76v48.76h-48.76z m0-48.76h48.76v48.76h-48.76z m-48.76 633.9h48.76v48.76h-48.76z m0-48.76h48.76v48.76h-48.76z" fill="#231815"></path><path d="M731.43 731.43h48.76v48.76h-48.76z m0-48.77h48.76v48.77h-48.76z" fill="#FBB002"></path><path d="M731.43 633.9h48.76v48.76h-48.76z" fill="#010101"></path><path d="M731.43 585.14h48.76v48.76h-48.76z m0-48.76h48.76v48.76h-48.76z m0-48.76h48.76v48.76h-48.76z m0-48.76h48.76v48.76h-48.76z m0-48.76h48.76v48.76h-48.76z" fill="#EB8F01"></path><path d="M731.43 341.33h48.76v48.77h-48.76z" fill="#010101"></path><path d="M731.43 243.81h48.76v48.76h-48.76z" fill="#FBB002"></path><path d="M731.43 195.05h48.76v48.76h-48.76z m0-48.76h48.76v48.76h-48.76z m-48.77 682.66h48.77v48.76h-48.77z" fill="#231815"></path><path d="M682.66 780.19h48.77v48.76h-48.77z m0-48.76h48.77v48.76h-48.77z" fill="#FBB002"></path><path d="M682.66 682.66h48.77v48.77h-48.77z" fill="#010101"></path><path d="M682.66 633.9h48.77v48.76h-48.77z m0-48.76h48.77v48.76h-48.77z m0-48.76h48.77v48.76h-48.77z m0-48.76h48.77v48.76h-48.77z m0-48.76h48.77v48.76h-48.77z m0-48.76h48.77v48.76h-48.77z" fill="#EB8F01"></path><path d="M682.66 341.33h48.77v48.77h-48.77z" fill="#EB8E00"></path><path d="M682.66 292.57h48.77v48.76h-48.77z m0-48.76h48.77v48.76h-48.77z" fill="#010101"></path><path d="M682.66 195.05h48.77v48.76h-48.77z" fill="#FBB002"></path><path d="M682.66 146.29h48.77v48.76h-48.77z m-48.76 731.42h48.76v48.77h-48.76z m0-48.76h48.76v48.76h-48.76z" fill="#231815"></path><path d="M633.9 780.19h48.76v48.76h-48.76z" fill="#FBB002"></path><path d="M633.9 731.43h48.76v48.76h-48.76z" fill="#010101"></path><path d="M633.9 682.66h48.76v48.77h-48.76z" fill="#EB8F01"></path><path d="M633.9 633.9h48.76v48.76h-48.76z m0-48.76h48.76v48.76h-48.76z m0-48.76h48.76v48.76h-48.76z m0-48.76h48.76v48.76h-48.76z" fill="#FFEA54"></path><path d="M633.9 438.86h48.76v48.76h-48.76z" fill="#EB8F01"></path><path d="M633.9 390.1h48.76v48.76h-48.76z m0-48.77h48.76v48.77h-48.76z" fill="#FFEA54"></path><path d="M633.9 292.57h48.76v48.76h-48.76z" fill="#EB8F01"></path><path d="M633.9 243.81h48.76v48.76h-48.76z" fill="#010101"></path><path d="M633.9 195.05h48.76v48.76h-48.76z" fill="#F5F5F5"></path><path d="M633.9 146.29h48.76v48.76h-48.76z" fill="#231815"></path><path d="M633.9 97.53h48.76v48.76h-48.76z m-48.76 780.19h48.76v48.76h-48.76z" fill="#231815"></path><path d="M585.14 828.95h48.76v48.76h-48.76z" fill="#FBB002"></path><path d="M585.14 780.19h48.76v48.76h-48.76z" fill="#010101"></path><path d="M585.14 731.43h48.76v48.76h-48.76z" fill="#010202"></path><path d="M585.14 682.66h48.76v48.77h-48.76z m0-48.76h48.76v48.76h-48.76z m0-48.76h48.76v48.76h-48.76z m0-48.76h48.76v48.76h-48.76z m0-48.76h48.76v48.76h-48.76z" fill="#FFEA54"></path><path d="M585.14 438.86h48.76v48.76h-48.76z" fill="#EB8F01"></path><path d="M585.14 390.1h48.76v48.76h-48.76z m0-48.77h48.76v48.77h-48.76z" fill="#FFEA54"></path><path d="M585.14 292.57h48.76v48.76h-48.76z m0-48.76h48.76v48.76h-48.76z" fill="#EB8F01"></path><path d="M585.14 195.05h48.76v48.76h-48.76z" fill="#010101"></path><path d="M585.14 146.29h48.76v48.76h-48.76z" fill="#FBB002"></path><path d="M585.14 97.53h48.76v48.76h-48.76z m-48.76 780.19h48.76v48.76h-48.76z" fill="#231815"></path><path d="M536.38 828.95h48.76v48.76h-48.76z" fill="#FBB002"></path><path d="M536.38 780.19h48.76v48.76h-48.76z" fill="#010101"></path><path d="M536.38 731.43h48.76v48.76h-48.76z" fill="#EB8F01"></path><path d="M536.38 682.66h48.76v48.77h-48.76z m0-48.76h48.76v48.76h-48.76z" fill="#FFEA54"></path><path d="M536.38 585.14h48.76v48.76h-48.76z" fill="#EB8F01"></path><path d="M536.38 536.38h48.76v48.76h-48.76z m0-48.76h48.76v48.76h-48.76z" fill="#FFEA54"></path><path d="M536.38 438.86h48.76v48.76h-48.76z" fill="#EB8F01"></path><path d="M536.38 390.1h48.76v48.76h-48.76z m0-48.77h48.76v48.77h-48.76z" fill="#FFEA54"></path><path d="M536.38 292.57h48.76v48.76h-48.76z m0-48.76h48.76v48.76h-48.76z" fill="#EB8F01"></path><path d="M536.38 195.05h48.76v48.76h-48.76z" fill="#010101"></path><path d="M536.38 146.29h48.76v48.76h-48.76z" fill="#FBB002"></path><path d="M536.38 97.53h48.76v48.76h-48.76z m-48.76 780.19h48.76v48.76h-48.76z" fill="#231815"></path><path d="M487.62 828.95h48.76v48.76h-48.76z" fill="#FBB002"></path><path d="M487.62 780.19h48.76v48.76h-48.76z" fill="#010101"></path><path d="M487.62 731.43h48.76v48.76h-48.76z" fill="#EB8F01"></path><path d="M487.62 682.66h48.76v48.77h-48.76z m0-48.76h48.76v48.76h-48.76z" fill="#FFEA54"></path><path d="M487.62 585.14h48.76v48.76h-48.76z" fill="#EB8F01"></path><path d="M487.62 536.38h48.76v48.76h-48.76z m0-48.76h48.76v48.76h-48.76z" fill="#FFEA54"></path><path d="M487.62 438.86h48.76v48.76h-48.76z" fill="#EB8F01"></path><path d="M487.62 390.1h48.76v48.76h-48.76z m0-48.77h48.76v48.77h-48.76z" fill="#FFEA54"></path><path d="M487.62 292.57h48.76v48.76h-48.76z m0-48.76h48.76v48.76h-48.76z" fill="#EB8F01"></path><path d="M487.62 195.05h48.76v48.76h-48.76z" fill="#010101"></path><path d="M487.62 146.29h48.76v48.76h-48.76z" fill="#FBB002"></path><path d="M487.62 97.53h48.76v48.76h-48.76z m-48.76 780.19h48.76v48.76h-48.76z" fill="#231815"></path><path d="M438.86 828.95h48.76v48.76h-48.76z" fill="#FBB002"></path><path d="M438.86 780.19h48.76v48.76h-48.76z" fill="#010101"></path><path d="M438.86 731.43h48.76v48.76h-48.76z" fill="#EB8F01"></path><path d="M438.86 682.66h48.76v48.77h-48.76z m0-48.76h48.76v48.76h-48.76z m0-48.76h48.76v48.76h-48.76z" fill="#FFEA54"></path><path d="M438.86 536.38h48.76v48.76h-48.76z m0-48.76h48.76v48.76h-48.76z m0-48.76h48.76v48.76h-48.76z" fill="#EB8F01"></path><path d="M438.86 390.1h48.76v48.76h-48.76z m0-48.77h48.76v48.77h-48.76z" fill="#FFEA54"></path><path d="M438.86 292.57h48.76v48.76h-48.76z m0-48.76h48.76v48.76h-48.76z" fill="#EB8F01"></path><path d="M438.86 195.05h48.76v48.76h-48.76z" fill="#010101"></path><path d="M438.86 146.29h48.76v48.76h-48.76z" fill="#FBB002"></path><path d="M438.86 97.53h48.76v48.76h-48.76z m-48.76 780.19h48.76v48.76h-48.76z" fill="#231815"></path><path d="M390.1 828.95h48.76v48.76h-48.76z" fill="#FBB002"></path><path d="M390.1 780.19h48.76v48.76h-48.76z" fill="#010202"></path><path d="M390.1 731.43h48.76v48.76h-48.76z" fill="#010101"></path><path d="M390.1 682.66h48.76v48.77h-48.76z m0-48.76h48.76v48.76h-48.76z m0-48.76h48.76v48.76h-48.76z m0-48.76h48.76v48.76h-48.76z m0-48.76h48.76v48.76h-48.76z m0-48.76h48.76v48.76h-48.76z m0-48.76h48.76v48.76h-48.76z m0-48.77h48.76v48.77h-48.76z" fill="#FFEA54"></path><path d="M390.1 292.57h48.76v48.76h-48.76z m0-48.76h48.76v48.76h-48.76z" fill="#EB8F01"></path><path d="M390.1 195.05h48.76v48.76h-48.76z" fill="#010101"></path><path d="M390.1 146.29h48.76v48.76h-48.76z" fill="#FBB002"></path><path d="M390.1 97.53h48.76v48.76h-48.76z m-48.77 780.19h48.77v48.76h-48.77z m0-48.77h48.77v48.76h-48.77z" fill="#231815"></path><path d="M341.33 780.19h48.77v48.76h-48.77z" fill="#FBB002"></path><path d="M341.33 731.43h48.77v48.76h-48.77z" fill="#010101"></path><path d="M341.33 682.66h48.77v48.77h-48.77z" fill="#EB8F01"></path><path d="M341.33 633.9h48.77v48.76h-48.77z m0-48.76h48.77v48.76h-48.77z m0-48.76h48.77v48.76h-48.77z m0-48.76h48.77v48.76h-48.77z m0-48.76h48.77v48.76h-48.77z m0-48.76h48.77v48.76h-48.77z m0-48.77h48.77v48.77h-48.77z" fill="#FFEA54"></path><path d="M341.33 292.57h48.77v48.76h-48.77z" fill="#EB8F01"></path><path d="M341.33 243.81h48.77v48.76h-48.77z" fill="#010101"></path><path d="M341.33 195.05h48.77v48.76h-48.77z" fill="#FBB002"></path><path d="M341.33 146.29h48.77v48.76h-48.77z" fill="#231815"></path><path d="M341.33 97.53h48.77v48.76h-48.77z m-48.76 731.42h48.76v48.76h-48.76z" fill="#231815"></path><path d="M292.57 780.19h48.76v48.76h-48.76z" fill="#F5F5F5"></path><path d="M292.57 731.43h48.76v48.76h-48.76z" fill="#FBB002"></path><path d="M292.57 682.66h48.76v48.77h-48.76z" fill="#010101"></path><path d="M292.57 633.9h48.76v48.76h-48.76z" fill="#EB8F01"></path><path d="M292.57 585.14h48.76v48.76h-48.76z" fill="#EA8E01"></path><path d="M292.57 536.38h48.76v48.76h-48.76z m0-48.76h48.76v48.76h-48.76z m0-48.76h48.76v48.76h-48.76z" fill="#FFEA54"></path><path d="M292.57 390.1h48.76v48.76h-48.76z" fill="#EB8E00"></path><path d="M292.57 341.33h48.76v48.77h-48.76z m0-48.76h48.76v48.76h-48.76z" fill="#EB8F01"></path><path d="M292.57 243.81h48.76v48.76h-48.76z" fill="#010101"></path><path d="M292.57 195.05h48.76v48.76h-48.76z" fill="#FBB002"></path><path d="M292.57 146.29h48.76v48.76h-48.76z m-48.76 682.66h48.76v48.76h-48.76z" fill="#231815"></path><path d="M243.81 780.19h48.76v48.76h-48.76z" fill="#F5F5F5"></path><path d="M243.81 731.43h48.76v48.76h-48.76z m0-48.77h48.76v48.77h-48.76z" fill="#FBB002"></path><path d="M243.81 633.9h48.76v48.76h-48.76z" fill="#010101"></path><path d="M243.81 585.14h48.76v48.76h-48.76z m0-48.76h48.76v48.76h-48.76z m0-48.76h48.76v48.76h-48.76z m0-48.76h48.76v48.76h-48.76z m0-48.76h48.76v48.76h-48.76z" fill="#EB8F01"></path><path d="M243.81 341.33h48.76v48.77h-48.76z m0-48.76h48.76v48.76h-48.76z" fill="#010101"></path><path d="M243.81 243.81h48.76v48.76h-48.76z" fill="#FBB002"></path><path d="M243.81 195.05h48.76v48.76h-48.76z m0-48.76h48.76v48.76h-48.76z m-48.76 633.9h48.76v48.76h-48.76z m0-48.76h48.76v48.76h-48.76z" fill="#231815"></path><path d="M195.05 682.66h48.76v48.77h-48.76z" fill="#FBB002"></path><path d="M195.05 633.9h48.76v48.76h-48.76z" fill="#F5F5F5"></path><path d="M195.05 585.14h48.76v48.76h-48.76z m0-48.76h48.76v48.76h-48.76z m0-48.76h48.76v48.76h-48.76z m0-48.76h48.76v48.76h-48.76z m0-48.76h48.76v48.76h-48.76z" fill="#010101"></path><path d="M195.05 341.33h48.76v48.77h-48.76z m0-48.76h48.76v48.76h-48.76z" fill="#FBB002"></path><path d="M195.05 243.81h48.76v48.76h-48.76z m0-48.76h48.76v48.76h-48.76z m-48.76 536.38h48.76v48.76h-48.76z m0-48.77h48.76v48.77h-48.76z m0-48.76h48.76v48.76h-48.76z" fill="#231815"></path><path d="M146.29 585.14h48.76v48.76h-48.76z m0-48.76h48.76v48.76h-48.76z m0-48.76h48.76v48.76h-48.76z m0-48.76h48.76v48.76h-48.76z m0-48.76h48.76v48.76h-48.76z" fill="#FBB002"></path><path d="M146.29 341.33h48.76v48.77h-48.76z m0-48.76h48.76v48.76h-48.76z m0-48.76h48.76v48.76h-48.76z m-48.76 438.85h48.76v48.77h-48.76z m0-48.76h48.76v48.76h-48.76z m0-48.76h48.76v48.76h-48.76z m0-48.76h48.76v48.76h-48.76z m0-48.76h48.76v48.76h-48.76z m0-48.76h48.76v48.76h-48.76z m0-48.76h48.76v48.76h-48.76z" fill="#231815"></path><path d="M97.53 341.33h48.76v48.77h-48.76z m0-48.76h48.76v48.76h-48.76z" fill="#231815"></path></g></svg>