<svg width="64" height="64" xmlns="http://www.w3.org/2000/svg" viewBox="0 0 1024 1024"><g class="nc-icon-wrapper"><path d="M585.14 877.71h48.76v48.77h-48.76z" fill="#C0C8D5"></path><path d="M633.9 877.71h48.76v48.77h-48.76z" fill="#FFF"></path><path d="M438.86 877.71h48.76v48.77h-48.76z m97.52 0h48.76v48.77h-48.76z m-48.76 0h48.76v48.77h-48.76z" fill="#C0C8D5"></path><path d="M341.33 877.71h48.77v48.77h-48.77z" fill="#939299"></path><path d="M390.1 877.71h48.76v48.77h-48.76z" fill="#4C4F65"></path><path d="M292.57 877.71h48.76v48.77h-48.76z" fill="#939299"></path><path d="M633.9 780.19h48.76v48.76h-48.76z" fill="#C0C8D5"></path><path d="M585.14 780.19h48.76v48.76h-48.76z" fill="#FFF"></path><path d="M487.62 780.19h48.76v48.76h-48.76z m48.76 0h48.76v48.76h-48.76z m-97.52 0h48.76v48.76h-48.76z" fill="#C0C8D5"></path><path d="M292.57 780.19h48.76v48.76h-48.76z m48.76 0h48.77v48.76h-48.77z" fill="#939299"></path><path d="M390.1 780.19h48.76v48.76h-48.76z m195.04 146.28h48.76v48.76h-48.76z m-97.52 0h48.76v48.76h-48.76z m48.76 0h48.76v48.76h-48.76z m-97.52 0h48.76v48.76h-48.76z m-48.76 0h48.76v48.76h-48.76z m-48.77 0h48.77v48.76h-48.77z m292.57-97.52h48.76v48.76h-48.76z m-48.76 0h48.76v48.76h-48.76z m-48.76 0h48.76v48.76h-48.76z m-97.52 0h48.76v48.76h-48.76z m48.76 0h48.76v48.76h-48.76z m-146.29 0h48.77v48.76h-48.77z m-48.76 0h48.76v48.76h-48.76z m97.53 0h48.76v48.76h-48.76z m195.04-97.52h48.76v48.76h-48.76z m48.76 0h48.76v48.76h-48.76z m-146.28 0h48.76v48.76h-48.76z m48.76 0h48.76v48.76h-48.76z m-97.52 0h48.76v48.76h-48.76z m-146.29 0h48.76v48.76h-48.76z m48.76 0h48.77v48.76h-48.77z m48.77 0h48.76v48.76h-48.76z" fill="#4C4F65"></path><path d="M585.14 682.66h48.76v48.77h-48.76z" fill="#FFF"></path><path d="M633.9 682.66h48.76v48.77h-48.76z" fill="#C0C8D5"></path><path d="M536.38 682.66h48.76v48.77h-48.76z" fill="#FFF"></path><path d="M487.62 682.66h48.76v48.77h-48.76z m-48.76 0h48.76v48.77h-48.76z" fill="#C0C8D5"></path><path d="M341.33 682.66h48.77v48.77h-48.77z m-48.76 0h48.76v48.77h-48.76z" fill="#939299"></path><path d="M390.1 682.66h48.76v48.77h-48.76z" fill="#4C4F65"></path><path d="M292.57 585.14h48.76v48.76h-48.76z m195.05-48.76h48.76v48.76h-48.76z m0-195.05h48.76v48.77h-48.76z m97.52 0h48.76v48.77h-48.76z m-146.28 48.77h48.76v48.76h-48.76z m0-48.77h48.76v48.77h-48.76z m0-48.76h48.76v48.76h-48.76z m195.04-146.28h48.76v48.76h-48.76z m48.76 97.52h48.77v48.76h-48.77z m0-48.76h48.77v48.76h-48.77z m-195.04 0h48.76v48.76h-48.76z m-48.76-97.52h48.76v48.76h-48.76z m-97.53 438.85h48.77v48.76h-48.77z m-48.76-97.52h48.76v48.76h-48.76z m48.76 0h48.77v48.76h-48.77z m0 48.76h48.77v48.76h-48.77z m-146.28-146.29h48.76v48.77h-48.76z m48.76 0h48.76v48.77h-48.76z m-48.76-48.76h48.76v48.76h-48.76z m0-48.76h48.76v48.76h-48.76z m48.76 0h48.76v48.76h-48.76z m0 146.29h48.76v48.76h-48.76z m0-97.53h48.76v48.76h-48.76z" fill="#a1a1a1"></path><path d="M536.38 243.81h48.76v48.76h-48.76z m0-48.76h48.76v48.76h-48.76z m48.76 48.76h48.76v48.76h-48.76z m48.76 48.76h48.76v48.76h-48.76z" fill="#636363"></path><path d="M633.9 195.05h48.76v48.76h-48.76z m0 48.76h48.76v48.76h-48.76z" fill="#a1a1a1"></path><path d="M585.14 195.05h48.76v48.76h-48.76z m-48.76-48.76h48.76v48.76h-48.76z m-48.76 0h48.76v48.76h-48.76z m97.52 0h48.76v48.76h-48.76z m0 146.28h48.76v48.76h-48.76z m48.76 292.57h48.76v48.76h-48.76z m0-48.76h48.76v48.76h-48.76z" fill="#636363"></path><path d="M682.66 487.62h48.77v48.76h-48.77z" fill="#FFF"></path><path d="M731.43 438.86h48.76v48.76h-48.76z" fill="#636363"></path><path d="M682.66 438.86h48.77v48.76h-48.77z" fill="#FFF"></path><path d="M780.19 390.1h48.76v48.76h-48.76z m0-146.29h48.76v48.76h-48.76z m0-48.76h48.76v48.76h-48.76z m0 146.28h48.76v48.77h-48.76z m0-48.76h48.76v48.76h-48.76z m-48.76 97.53h48.76v48.76h-48.76z m0-48.77h48.76v48.77h-48.76z m-48.77 48.77h48.77v48.76h-48.77z m-48.76 48.76h48.76v48.76h-48.76z" fill="#636363"></path><path d="M633.9 487.62h48.76v48.76h-48.76z m-48.76 0h48.76v48.76h-48.76z" fill="#FFF"></path><path d="M633.9 48.76h48.76v48.77h-48.76z m-97.52 0h48.76v48.77h-48.76z m48.76 0h48.76v48.77h-48.76z m97.52 48.77h48.77v48.75h-48.77z" fill="#636363"></path><path d="M682.66 146.29h48.77v48.76h-48.77z m-48.76 195.04h48.76v48.77h-48.76z m97.53-48.76h48.76v48.76h-48.76z m0-48.76h48.76v48.76h-48.76z m-146.29 292.57h48.76v48.76h-48.76z m146.29-341.33h48.76v48.76h-48.76z m0-48.76h48.76v48.76h-48.76z m-48.77 195.04h48.77v48.77h-48.77z m0-48.76h48.77v48.76h-48.77z m-97.52 146.29h48.76v48.76h-48.76z m48.76-341.34h48.76v48.76h-48.76z m0 292.58h48.76v48.76h-48.76z m-97.52 48.76h48.76v48.76h-48.76z m0-341.34h48.76v48.76h-48.76z m48.76 0h48.76v48.76h-48.76z m-97.52-48.76h48.76v48.76h-48.76z m97.52 341.34h48.76v48.76h-48.76z m-97.52-292.58h48.76v48.76h-48.76z m-48.76-48.76h48.76v48.76h-48.76z" fill="#636363"></path><path d="M585.14 633.9h48.76v48.76h-48.76z m48.76 0h48.76v48.76h-48.76z m-146.28 0h48.76v48.76h-48.76z m-48.76 0h48.76v48.76h-48.76z m-146.29 0h48.76v48.76h-48.76z m48.76 0h48.77v48.76h-48.77z m48.77 0h48.76v48.76h-48.76z" fill="#4C4F65"></path><path d="M585.14 585.14h48.76v48.76h-48.76z m-146.28 0h48.76v48.76h-48.76z m48.76 0h48.76v48.76h-48.76z m-146.29 0h48.77v48.76h-48.77z m48.77 0h48.76v48.76h-48.76z" fill="#636363"></path><path d="M536.38 633.9h48.76v48.76h-48.76z" fill="#4C4F65"></path><path d="M487.62 390.1h48.76v48.76h-48.76z m48.76 146.28h48.76v48.76h-48.76z m0-195.05h48.76v48.77h-48.76z m-48.76 146.29h48.76v48.76h-48.76z m0-243.81h48.76v48.76h-48.76z m0 195.05h48.76v48.76h-48.76z m48.76 48.76h48.76v48.76h-48.76z m0-195.05h48.76v48.76h-48.76z m0 292.57h48.76v48.76h-48.76z m-48.76-292.57h48.76v48.76h-48.76z m48.76 97.53h48.76v48.76h-48.76z m-97.52-146.29h48.76v48.76h-48.76z" fill="#636363"></path><path d="M438.86 195.05h48.76v48.76h-48.76z" fill="#FFF"></path><path d="M438.86 146.29h48.76v48.76h-48.76z m-243.81 48.76h48.76v48.76h-48.76z m97.52 0h48.76v48.76h-48.76z m-48.76 0h48.76v48.76h-48.76z m97.52 97.52h48.77v48.76h-48.77z m0 48.76h48.77v48.77h-48.77z m97.53 195.05h48.76v48.76h-48.76z m0-48.76h48.76v48.76h-48.76z m0-48.76h48.76v48.76h-48.76z" fill="#636363"></path><path d="M292.57 390.1h48.76v48.76h-48.76z" fill="#a1a1a1"></path><path d="M292.57 341.33h48.76v48.77h-48.76z m48.76 48.77h48.77v48.76h-48.77z m-48.76-146.29h48.76v48.76h-48.76z m0 48.76h48.76v48.76h-48.76z m97.53 146.29h48.76v48.76h-48.76z m0 97.52h48.76v48.76h-48.76z m0-48.76h48.76v48.76h-48.76z m0-146.29h48.76v48.77h-48.76z m0-97.52h48.76v48.76h-48.76z m0 48.76h48.76v48.76h-48.76z m0 97.53h48.76v48.76h-48.76z m-48.77-243.81h48.77v48.76h-48.77z m-48.76-97.53h48.76v48.77h-48.76z" fill="#636363"></path><path d="M390.1 195.05h48.76v48.76h-48.76z m0-48.76h48.76v48.76h-48.76z" fill="#FFF"></path><path d="M390.1 48.76h48.76v48.77h-48.76z m-48.77 146.29h48.77v48.76h-48.77z m0-146.29h48.77v48.77h-48.77z m48.77 48.77h48.76v48.76h-48.76z m-48.77 146.28h48.77v48.76h-48.77z m-97.52-146.28h48.76v48.76h-48.76z m97.52 0h48.77v48.76h-48.77z m-146.28 48.76h48.76v48.76h-48.76z" fill="#636363"></path><path d="M243.81 146.29h48.76v48.76h-48.76z m48.76 0h48.76v48.76h-48.76z" fill="#636363"></path><path d="M292.57 97.53h48.76v48.76h-48.76z" fill="#636363"></path><path d="M195.05 390.1h48.76v48.76h-48.76z" fill="#a1a1a1"></path><path d="M292.57 536.38h48.76v48.76h-48.76z m0-48.76h48.76v48.76h-48.76z m-97.52-48.76h48.76v48.76h-48.76z m48.76 0h48.76v48.76h-48.76z m0 48.76h48.76v48.76h-48.76z m-97.52-195.05h48.76v48.76h-48.76z m0 48.76h48.76v48.77h-48.76z m0 48.77h48.76v48.76h-48.76z m0-146.29h48.76v48.76h-48.76z m0-48.76h48.76v48.76h-48.76z" fill="#636363"></path><path d="M243.81 48.76h48.76v48.77h-48.76z m-48.76 48.77h48.76v48.75h-48.76z m-48.76 48.75h48.76v48.77h-48.76z m-48.77 97.53h48.76v48.76h-48.76z m0-48.76h48.76v48.76h-48.76z m0 195.05h48.76v48.76h-48.76z m0-48.77h48.76v48.77h-48.76z m0-48.76h48.76v48.76h-48.76z m48.76 146.29h48.77v48.76h-48.76z m48.77 48.76h48.76v48.76h-48.76z m48.76 97.52h48.76v48.76h-48.76z m0 48.76h48.76v48.76h-48.76z m0-97.52h48.76v48.76h-48.76z m0 292.57h48.76v48.76h-48.76z m0-48.76h48.76v48.76h-48.76z m0-97.53h48.76v48.77h-48.76z m0 48.77h48.76v48.76h-48.76z m0 146.28h48.76v48.76h-48.76z m48.76 48.76h48.76v48.76h-48.76z m292.57 48.76h48.76v48.77h-48.76z m-146.28 0h48.76v48.77h-48.76z m48.76 0h48.76v48.77h-48.76z m48.76 0h48.76v48.77h-48.76z m-146.28 0h48.76v48.77h-48.76z m-48.77 0h48.77v48.77h-48.77z m292.57-48.76h48.76v48.76h-48.76z m48.76-243.81h48.77v48.77h-48.77z m0 195.06h48.77v48.76h-48.77z m0-97.53h48.77v48.76h-48.77z m0 48.76h48.77v48.76h-48.77z m0-97.52h48.77v48.76h-48.77z m0-97.53h48.77v48.76h-48.77z m0-48.76h48.77v48.76h-48.77z m0-48.76h48.77v48.76h-48.77z m48.77-48.76h48.76v48.76h-48.76z m48.76-48.76h48.76v48.76h-48.76z m48.76-243.81h48.76v48.76h-48.76z m0 97.52h48.76v48.76h-48.76z m0 97.53h48.76v48.76h-48.76z m0-146.29h48.76v48.76h-48.76z m0 97.52h48.76v48.77h-48.76z m-48.76-195.04h48.76v48.76h-48.76z m-48.76-48.76h48.76v48.76h-48.76z m-48.77-48.77h48.77v48.77h-48.77z m-48.76-48.76h48.76v48.76h-48.76z m-48.76 0h48.76v48.76h-48.76z m-48.76 0h48.76v48.76h-48.76z m-48.76 0h48.76v48.76h-48.76z m-48.76 0h48.76v48.76h-48.76z m-48.76 0h48.76v48.76h-48.76z m-48.77 0h48.77v48.76h-48.77z m-48.76 0h48.76v48.76h-48.76z" fill="#1D2033"></path></g></svg>